# Blender 5.2.2 LTS
# www.blender.org
o tower_shaft
v 0.000000 53.606834 12.034188
v 0.000000 0.000002 12.034186
v 4.605284 53.606834 11.118140
v 4.605284 0.000002 11.118138
v 8.509456 53.606834 8.509457
v 8.509456 0.000002 8.509455
v 11.118139 53.606834 4.605285
v 11.118139 0.000002 4.605283
v 12.034187 53.606834 0.000001
v 12.034187 0.000002 -0.000001
v 11.118139 53.606834 -4.605283
v 11.118139 0.000002 -4.605285
v 8.509456 53.606834 -8.509455
v 8.509456 0.000002 -8.509457
v 4.605284 53.606834 -11.118138
v 4.605284 0.000002 -11.118140
v 0.000000 53.606834 -12.034186
v 0.000000 0.000002 -12.034188
v -4.605284 53.606834 -11.118138
v -4.605284 0.000002 -11.118140
v -8.509456 53.606834 -8.509455
v -8.509456 0.000002 -8.509457
v -11.118139 53.606834 -4.605283
v -11.118139 0.000002 -4.605285
v -12.034187 53.606834 0.000001
v -12.034187 0.000002 -0.000001
v -11.118139 53.606834 4.605285
v -11.118139 0.000002 4.605283
v -8.509456 53.606834 8.509457
v -8.509456 0.000002 8.509455
v -4.605284 53.606834 11.118140
v -4.605284 0.000002 11.118138
s 0
f 1 2 4 3
f 3 4 6 5
f 5 6 8 7
f 7 8 10 9
f 9 10 12 11
f 11 12 14 13
f 13 14 16 15
f 15 16 18 17
f 17 18 20 19
f 19 20 22 21
f 21 22 24 23
f 23 24 26 25
f 25 26 28 27
f 27 28 30 29
f 4 2 32 30 28 26 24 22 20 18 16 14 12 10 8 6
f 29 30 32 31
f 31 32 2 1
f 1 3 5 7 9 11 13 15 17 19 21 23 25 27 29 31
o flared_base
v 0.000000 9.846153 15.316238
v 0.000000 0.000000 15.316238
v 5.861271 9.846153 14.150358
v 5.861271 0.000000 14.150358
v 10.830216 9.846153 10.830216
v 10.830216 0.000000 10.830216
v 14.150358 9.846153 5.861271
v 14.150358 0.000000 5.861271
v 15.316238 9.846154 0.000000
v 15.316238 0.000001 -0.000000
v 14.150358 9.846155 -5.861271
v 14.150358 0.000001 -5.861271
v 10.830216 9.846155 -10.830216
v 10.830216 0.000001 -10.830216
v 5.861271 9.846155 -14.150358
v 5.861271 0.000001 -14.150358
v 0.000000 9.846155 -15.316238
v 0.000000 0.000001 -15.316238
v -5.861271 9.846155 -14.150358
v -5.861271 0.000001 -14.150358
v -10.830216 9.846155 -10.830216
v -10.830216 0.000001 -10.830216
v -14.150358 9.846155 -5.861271
v -14.150358 0.000001 -5.861271
v -15.316238 9.846154 0.000000
v -15.316238 0.000001 -0.000000
v -14.150358 9.846153 5.861271
v -14.150358 0.000000 5.861271
v -10.830216 9.846153 10.830216
v -10.830216 0.000000 10.830216
v -5.861271 9.846153 14.150358
v -5.861271 0.000000 14.150358
s 0
f 33 34 36 35
f 35 36 38 37
f 37 38 40 39
f 39 40 42 41
f 41 42 44 43
f 43 44 46 45
f 45 46 48 47
f 47 48 50 49
f 49 50 52 51
f 51 52 54 53
f 53 54 56 55
f 55 56 58 57
f 57 58 60 59
f 59 60 62 61
f 36 34 64 62 60 58 56 54 52 50 48 46 44 42 40 38
f 61 62 64 63
f 63 64 34 33
f 33 35 37 39 41 43 45 47 49 51 53 55 57 59 61 63
o upper_walkway
v 0.000000 58.529915 14.222221
v 0.000000 53.059830 14.222221
v 5.442609 58.529915 13.139619
v 5.442609 53.059830 13.139619
v 10.056628 58.529915 10.056628
v 10.056628 53.059830 10.056628
v 13.139619 58.529915 5.442609
v 13.139619 53.059830 5.442609
v 14.222221 58.529915 0.000000
v 14.222221 53.059830 -0.000000
v 13.139619 58.529915 -5.442609
v 13.139619 53.059830 -5.442609
v 10.056628 58.529915 -10.056628
v 10.056628 53.059830 -10.056628
v 5.442609 58.529915 -13.139619
v 5.442609 53.059830 -13.139619
v 0.000000 58.529915 -14.222221
v 0.000000 53.059830 -14.222221
v -5.442609 58.529915 -13.139619
v -5.442609 53.059830 -13.139619
v -10.056628 58.529915 -10.056628
v -10.056628 53.059830 -10.056628
v -13.139619 58.529915 -5.442609
v -13.139619 53.059830 -5.442609
v -14.222221 58.529915 0.000000
v -14.222221 53.059830 -0.000000
v -13.139619 58.529915 5.442609
v -13.139619 53.059830 5.442609
v -10.056628 58.529915 10.056628
v -10.056628 53.059830 10.056628
v -5.442609 58.529915 13.139619
v -5.442609 53.059830 13.139619
s 0
f 65 66 68 67
f 67 68 70 69
f 69 70 72 71
f 71 72 74 73
f 73 74 76 75
f 75 76 78 77
f 77 78 80 79
f 79 80 82 81
f 81 82 84 83
f 83 84 86 85
f 85 86 88 87
f 87 88 90 89
f 89 90 92 91
f 91 92 94 93
f 68 66 96 94 92 90 88 86 84 82 80 78 76 74 72 70
f 93 94 96 95
f 95 96 66 65
f 65 67 69 71 73 75 77 79 81 83 85 87 89 91 93 95
o entrance_shadow
v -2.297436 0.547009 -11.482906
v -2.297436 0.547009 -10.717094
v -2.297436 10.393163 -11.482906
v -2.297436 10.393163 -10.717094
v 2.297436 0.547009 -11.482906
v 2.297436 0.547009 -10.717094
v 2.297436 10.393163 -11.482906
v 2.297436 10.393163 -10.717094
s 0
f 97 98 100 99
f 99 100 104 103
f 103 104 102 101
f 101 102 98 97
f 99 103 101 97
f 104 100 98 102
o arrow_slit
v -0.820513 35.555557 -11.532906
v -0.820513 35.555557 -10.767094
v -0.820513 41.025642 -11.532906
v -0.820513 41.025642 -10.767094
v 0.820513 35.555557 -11.532906
v 0.820513 35.555557 -10.767094
v 0.820513 41.025642 -11.532906
v 0.820513 41.025642 -10.767094
s 0
f 105 106 108 107
f 107 108 112 111
f 111 112 110 109
f 109 110 106 105
f 107 111 109 105
f 112 108 106 110
o merlon_00
v 8.249573 58.529915 -1.750427
v 8.249573 58.529915 1.750427
v 8.249573 64.000000 -1.750427
v 8.249573 64.000000 1.750427
v 11.750427 58.529915 -1.750427
v 11.750427 58.529915 1.750427
v 11.750427 64.000000 -1.750427
v 11.750427 64.000000 1.750427
s 0
f 113 114 116 115
f 115 116 120 119
f 119 120 118 117
f 117 118 114 113
f 115 119 117 113
f 120 116 114 118
o merlon_01
v 5.320641 58.529915 5.320641
v 5.320641 58.529915 8.821495
v 5.320641 64.000000 5.320641
v 5.320641 64.000000 8.821495
v 8.821495 58.529915 5.320641
v 8.821495 58.529915 8.821495
v 8.821495 64.000000 5.320641
v 8.821495 64.000000 8.821495
s 0
f 121 122 124 123
f 123 124 128 127
f 127 128 126 125
f 125 126 122 121
f 123 127 125 121
f 128 124 122 126
o merlon_02
v -1.750427 58.529915 8.249573
v -1.750427 58.529915 11.750427
v -1.750427 64.000000 8.249573
v -1.750427 64.000000 11.750427
v 1.750427 58.529915 8.249573
v 1.750427 58.529915 11.750427
v 1.750427 64.000000 8.249573
v 1.750427 64.000000 11.750427
s 0
f 129 130 132 131
f 131 132 136 135
f 135 136 134 133
f 133 134 130 129
f 131 135 133 129
f 136 132 130 134
o merlon_03
v -8.821495 58.529915 5.320641
v -8.821495 58.529915 8.821495
v -8.821495 64.000000 5.320641
v -8.821495 64.000000 8.821495
v -5.320641 58.529915 5.320641
v -5.320641 58.529915 8.821495
v -5.320641 64.000000 5.320641
v -5.320641 64.000000 8.821495
s 0
f 137 138 140 139
f 139 140 144 143
f 143 144 142 141
f 141 142 138 137
f 139 143 141 137
f 144 140 138 142
o merlon_04
v -11.750427 58.529915 -1.750427
v -11.750427 58.529915 1.750427
v -11.750427 64.000000 -1.750427
v -11.750427 64.000000 1.750427
v -8.249573 58.529915 -1.750427
v -8.249573 58.529915 1.750427
v -8.249573 64.000000 -1.750427
v -8.249573 64.000000 1.750427
s 0
f 145 146 148 147
f 147 148 152 151
f 151 152 150 149
f 149 150 146 145
f 147 151 149 145
f 152 148 146 150
o merlon_05
v -8.821495 58.529915 -8.821495
v -8.821495 58.529915 -5.320641
v -8.821495 64.000000 -8.821495
v -8.821495 64.000000 -5.320641
v -5.320641 58.529915 -8.821495
v -5.320641 58.529915 -5.320641
v -5.320641 64.000000 -8.821495
v -5.320641 64.000000 -5.320641
s 0
f 153 154 156 155
f 155 156 160 159
f 159 160 158 157
f 157 158 154 153
f 155 159 157 153
f 160 156 154 158
o merlon_06
v -1.750427 58.529915 -11.750427
v -1.750427 58.529915 -8.249573
v -1.750427 64.000000 -11.750427
v -1.750427 64.000000 -8.249573
v 1.750427 58.529915 -11.750427
v 1.750427 58.529915 -8.249573
v 1.750427 64.000000 -11.750427
v 1.750427 64.000000 -8.249573
s 0
f 161 162 164 163
f 163 164 168 167
f 167 168 166 165
f 165 166 162 161
f 163 167 165 161
f 168 164 162 166
o merlon_07
v 5.320641 58.529915 -8.821495
v 5.320641 58.529915 -5.320641
v 5.320641 64.000000 -8.821495
v 5.320641 64.000000 -5.320641
v 8.821495 58.529915 -8.821495
v 8.821495 58.529915 -5.320641
v 8.821495 64.000000 -8.821495
v 8.821495 64.000000 -5.320641
s 0
f 169 170 172 171
f 171 172 176 175
f 175 176 174 173
f 173 174 170 169
f 171 175 173 169
f 176 172 170 174
