# Blender 5.2.2 LTS
# www.blender.org
o torso
v 0.000000 24.360479 10.500207
v 0.000000 27.259310 10.142421
v 0.000000 29.960590 9.093447
v 0.000000 35.179062 2.717654
v 0.000000 35.560699 0.000000
v 0.000000 35.179062 -2.717654
v 0.000000 29.960590 -9.093447
v 0.000000 27.259310 -10.142421
v 0.000000 24.360479 -10.500207
v 1.511642 27.117432 10.142421
v 2.920268 29.686501 9.093447
v 4.129883 31.892612 7.424768
v 5.058053 33.585419 5.250103
v 5.641526 34.649563 2.717654
v 5.840537 35.012524 0.000000
v 5.641526 34.649563 -2.717654
v 5.058053 33.585419 -5.250103
v 4.129883 31.892612 -7.424768
v 2.920268 29.686501 -9.093447
v 1.511642 27.117432 -10.142421
v 2.875314 26.705683 10.142421
v 5.554681 28.891064 9.093447
v 7.855505 30.767693 7.424768
v 9.620988 32.207684 5.250103
v 10.730819 33.112896 2.717654
v 11.109362 33.421650 0.000000
v 10.730819 33.112896 -2.717654
v 9.620988 32.207684 -5.250103
v 7.855505 30.767693 -7.424768
v 5.554681 28.891064 -9.093447
v 2.875314 26.705683 -10.142421
v 3.957530 26.064369 10.142421
v 7.645362 27.652142 9.093447
v 10.812175 29.015593 7.424768
v 13.242154 30.061806 5.250103
v 14.769706 30.719482 2.717654
v 15.290724 30.943804 0.000000
v 14.769706 30.719482 -2.717654
v 13.242154 30.061806 -5.250103
v 10.812175 29.015593 -7.424768
v 7.645362 27.652142 -9.093447
v 3.957530 26.064369 -10.142421
v 4.652356 25.256268 10.142421
v 8.987662 26.091009 9.093447
v 12.710472 26.807817 7.424768
v 15.567087 27.357845 5.250103
v 17.362833 27.703606 2.717654
v 17.975325 27.821537 0.000000
v 17.362833 27.703606 -2.717654
v 15.567087 27.357845 -5.250103
v 12.710472 26.807817 -7.424768
v 8.987662 26.091009 -9.093447
v 4.652356 25.256268 -10.142421
v 4.891777 24.360479 10.142421
v 9.450188 24.360479 9.093447
v 13.364583 24.360479 7.424768
v 16.368204 24.360479 5.250103
v 18.256361 24.360479 2.717654
v 18.900375 24.360479 0.000000
v 18.256361 24.360479 -2.717654
v 16.368204 24.360479 -5.250103
v 13.364583 24.360479 -7.424768
v 9.450188 24.360479 -9.093447
v 4.891777 24.360479 -10.142421
v 4.652356 23.464691 10.142421
v 8.987663 22.629950 9.093447
v 12.710474 21.913141 7.424768
v 15.567088 21.363115 5.250103
v 17.362833 21.017353 2.717654
v 17.975327 20.899420 0.000000
v 17.362833 21.017353 -2.717654
v 15.567088 21.363115 -5.250103
v 12.710474 21.913141 -7.424768
v 8.987663 22.629950 -9.093447
v 4.652356 23.464691 -10.142421
v 3.957530 22.656590 10.142421
v 7.645362 21.068817 9.093447
v 10.812175 19.705364 7.424768
v 13.242157 18.659153 5.250103
v 14.769707 18.001474 2.717654
v 15.290725 17.777153 0.000000
v 14.769707 18.001474 -2.717654
v 13.242157 18.659153 -5.250103
v 10.812175 19.705364 -7.424768
v 7.645362 21.068817 -9.093447
v 3.957530 22.656590 -10.142421
v 2.875314 22.015276 10.142421
v 5.554681 19.829893 9.093447
v 7.855506 17.953264 7.424768
v 9.620992 16.513275 5.250103
v 10.730822 15.608060 2.717654
v 11.109363 15.299308 0.000000
v 10.730822 15.608060 -2.717654
v 9.620992 16.513275 -5.250103
v 7.855506 17.953264 -7.424768
v 5.554681 19.829893 -9.093447
v 2.875314 22.015276 -10.142421
v 1.511642 21.603527 10.142421
v 2.920269 19.034456 9.093447
v 4.129884 16.828346 7.424768
v 5.058055 15.135537 5.250103
v 5.641527 14.071392 2.717654
v 5.840538 13.708433 0.000000
v 5.641527 14.071392 -2.717654
v 5.058055 15.135537 -5.250103
v 4.129884 16.828346 -7.424768
v 2.920269 19.034456 -9.093447
v 1.511642 21.603527 -10.142421
v -0.000000 21.461649 10.142421
v 0.000000 18.760368 9.093447
v 0.000000 16.440725 7.424768
v 0.000001 14.660800 5.250103
v 0.000000 13.541892 2.717654
v 0.000000 13.160255 0.000000
v 0.000000 13.541892 -2.717654
v 0.000001 14.660800 -5.250103
v 0.000000 16.440725 -7.424768
v 0.000000 18.760368 -9.093447
v -0.000000 21.461649 -10.142421
v -1.511643 21.603527 10.142421
v -2.920269 19.034456 9.093447
v -4.129883 16.828346 7.424768
v -5.058054 15.135536 5.250103
v -5.641528 14.071391 2.717654
v -5.840538 13.708433 0.000000
v -5.641528 14.071391 -2.717654
v -5.058054 15.135536 -5.250103
v -4.129883 16.828346 -7.424768
v -2.920269 19.034456 -9.093447
v -1.511643 21.603527 -10.142421
v -2.875315 22.015276 10.142421
v -5.554682 19.829893 9.093447
v -7.855506 17.953264 7.424768
v -9.620992 16.513273 5.250103
v -10.730824 15.608058 2.717654
v -11.109365 15.299308 0.000000
v -10.730824 15.608058 -2.717654
v -9.620992 16.513273 -5.250103
v -7.855506 17.953264 -7.424768
v -5.554682 19.829893 -9.093447
v -2.875315 22.015276 -10.142421
v -3.957531 22.656590 10.142421
v -7.645365 21.068815 9.093447
v -10.812177 19.705364 7.424768
v -13.242160 18.659149 5.250103
v -14.769712 18.001472 2.717654
v -15.290730 17.777153 0.000000
v -14.769712 18.001472 -2.717654
v -13.242160 18.659149 -5.250103
v -10.812177 19.705364 -7.424768
v -7.645365 21.068815 -9.093447
v -3.957531 22.656590 -10.142421
v -4.652357 23.464691 10.142421
v -8.987665 22.629950 9.093447
v -12.710476 21.913139 7.424768
v -15.567094 21.363113 5.250103
v -17.362839 21.017353 2.717654
v -17.975330 20.899418 0.000000
v -17.362839 21.017353 -2.717654
v -15.567094 21.363113 -5.250103
v -12.710476 21.913139 -7.424768
v -8.987665 22.629950 -9.093447
v -4.652357 23.464691 -10.142421
v -4.891778 24.360479 10.142421
v -9.450191 24.360479 9.093447
v -13.364586 24.360479 7.424768
v -16.368210 24.360479 5.250103
v -18.256371 24.360479 2.717654
v -18.900383 24.360479 0.000000
v -18.256371 24.360479 -2.717654
v -16.368210 24.360479 -5.250103
v -13.364586 24.360479 -7.424768
v -9.450191 24.360479 -9.093447
v -4.891778 24.360479 -10.142421
v -4.652357 25.256268 10.142421
v -8.987666 26.091009 9.093447
v -12.710478 26.807817 7.424768
v -15.567094 27.357845 5.250103
v -17.362839 27.703608 2.717654
v -17.975332 27.821541 0.000000
v -17.362839 27.703608 -2.717654
v -15.567094 27.357845 -5.250103
v -12.710478 26.807817 -7.424768
v -8.987666 26.091009 -9.093447
v -4.652357 25.256268 -10.142421
v -3.957531 26.064369 10.142421
v -7.645366 27.652143 9.093447
v -10.812179 29.015594 7.424768
v -13.242161 30.061810 5.250103
v -14.769713 30.719486 2.717654
v -15.290731 30.943808 0.000000
v -14.769713 30.719486 -2.717654
v -13.242161 30.061810 -5.250103
v -10.812179 29.015594 -7.424768
v -7.645366 27.652143 -9.093447
v -3.957531 26.064369 -10.142421
v -2.875314 26.705683 10.142421
v -5.554684 28.891068 9.093447
v -7.855508 30.767696 7.424768
v -9.620993 32.207687 5.250103
v -10.730825 33.112904 2.717654
v -11.109367 33.421654 0.000000
v -10.730825 33.112904 -2.717654
v -9.620993 32.207687 -5.250103
v -7.855508 30.767696 -7.424768
v -5.554684 28.891068 -9.093447
v -2.875314 26.705683 -10.142421
v -1.511641 27.117432 10.142421
v -2.920270 29.686504 9.093447
v -4.129885 31.892614 7.424768
v -5.058054 33.585426 5.250103
v -5.641528 34.649570 2.717654
v -5.840540 35.012527 0.000000
v -5.641528 34.649570 -2.717654
v -5.058054 33.585426 -5.250103
v -4.129885 31.892614 -7.424768
v -2.920270 29.686504 -9.093447
v -1.511641 27.117432 -10.142421
v -0.000001 32.280235 7.424768
v 0.000002 34.060162 5.250103
v 0.000002 34.060162 -5.250103
v -0.000001 32.280235 -7.424768
s 0
f 219 3 11 12
f 7 222 18 19
f 6 5 15 16
f 220 219 12 13
f 8 7 19 20
f 2 1 10
f 221 6 16 17
f 4 220 13 14
f 9 8 20
f 3 2 10 11
f 222 221 17 18
f 5 4 14 15
f 10 1 21
f 17 16 27 28
f 14 13 24 25
f 9 20 31
f 11 10 21 22
f 18 17 28 29
f 15 14 25 26
f 12 11 22 23
f 19 18 29 30
f 16 15 26 27
f 13 12 23 24
f 20 19 30 31
f 30 29 40 41
f 27 26 37 38
f 24 23 34 35
f 31 30 41 42
f 21 1 32
f 28 27 38 39
f 25 24 35 36
f 9 31 42
f 22 21 32 33
f 29 28 39 40
f 26 25 36 37
f 23 22 33 34
f 33 32 43 44
f 40 39 50 51
f 37 36 47 48
f 34 33 44 45
f 41 40 51 52
f 38 37 48 49
f 35 34 45 46
f 42 41 52 53
f 32 1 43
f 39 38 49 50
f 36 35 46 47
f 9 42 53
f 53 52 63 64
f 43 1 54
f 50 49 60 61
f 47 46 57 58
f 9 53 64
f 44 43 54 55
f 51 50 61 62
f 48 47 58 59
f 45 44 55 56
f 52 51 62 63
f 49 48 59 60
f 46 45 56 57
f 56 55 66 67
f 63 62 73 74
f 60 59 70 71
f 57 56 67 68
f 64 63 74 75
f 54 1 65
f 61 60 71 72
f 58 57 68 69
f 9 64 75
f 55 54 65 66
f 62 61 72 73
f 59 58 69 70
f 9 75 86
f 66 65 76 77
f 73 72 83 84
f 70 69 80 81
f 67 66 77 78
f 74 73 84 85
f 71 70 81 82
f 68 67 78 79
f 75 74 85 86
f 65 1 76
f 72 71 82 83
f 69 68 79 80
f 79 78 89 90
f 86 85 96 97
f 76 1 87
f 83 82 93 94
f 80 79 90 91
f 9 86 97
f 77 76 87 88
f 84 83 94 95
f 81 80 91 92
f 78 77 88 89
f 85 84 95 96
f 82 81 92 93
f 89 88 99 100
f 96 95 106 107
f 93 92 103 104
f 90 89 100 101
f 97 96 107 108
f 87 1 98
f 94 93 104 105
f 91 90 101 102
f 9 97 108
f 88 87 98 99
f 95 94 105 106
f 92 91 102 103
f 102 101 112 113
f 9 108 119
f 99 98 109 110
f 106 105 116 117
f 103 102 113 114
f 100 99 110 111
f 107 106 117 118
f 104 103 114 115
f 101 100 111 112
f 108 107 118 119
f 98 1 109
f 105 104 115 116
f 112 111 122 123
f 119 118 129 130
f 109 1 120
f 116 115 126 127
f 113 112 123 124
f 9 119 130
f 110 109 120 121
f 117 116 127 128
f 114 113 124 125
f 111 110 121 122
f 118 117 128 129
f 115 114 125 126
f 125 124 135 136
f 122 121 132 133
f 129 128 139 140
f 126 125 136 137
f 123 122 133 134
f 130 129 140 141
f 120 1 131
f 127 126 137 138
f 124 123 134 135
f 9 130 141
f 121 120 131 132
f 128 127 138 139
f 135 134 145 146
f 9 141 152
f 132 131 142 143
f 139 138 149 150
f 136 135 146 147
f 133 132 143 144
f 140 139 150 151
f 137 136 147 148
f 134 133 144 145
f 141 140 151 152
f 131 1 142
f 138 137 148 149
f 148 147 158 159
f 145 144 155 156
f 152 151 162 163
f 142 1 153
f 149 148 159 160
f 146 145 156 157
f 9 152 163
f 143 142 153 154
f 150 149 160 161
f 147 146 157 158
f 144 143 154 155
f 151 150 161 162
f 158 157 168 169
f 155 154 165 166
f 162 161 172 173
f 159 158 169 170
f 156 155 166 167
f 163 162 173 174
f 153 1 164
f 160 159 170 171
f 157 156 167 168
f 9 163 174
f 154 153 164 165
f 161 160 171 172
f 171 170 181 182
f 168 167 178 179
f 9 174 185
f 165 164 175 176
f 172 171 182 183
f 169 168 179 180
f 166 165 176 177
f 173 172 183 184
f 170 169 180 181
f 167 166 177 178
f 174 173 184 185
f 164 1 175
f 181 180 191 192
f 178 177 188 189
f 185 184 195 196
f 175 1 186
f 182 181 192 193
f 179 178 189 190
f 9 185 196
f 176 175 186 187
f 183 182 193 194
f 180 179 190 191
f 177 176 187 188
f 184 183 194 195
f 194 193 204 205
f 191 190 201 202
f 188 187 198 199
f 195 194 205 206
f 192 191 202 203
f 189 188 199 200
f 196 195 206 207
f 186 1 197
f 193 192 203 204
f 190 189 200 201
f 9 196 207
f 187 186 197 198
f 197 1 208
f 204 203 214 215
f 201 200 211 212
f 9 207 218
f 198 197 208 209
f 205 204 215 216
f 202 201 212 213
f 199 198 209 210
f 206 205 216 217
f 203 202 213 214
f 200 199 210 211
f 207 206 217 218
f 217 216 222 7
f 214 213 5 6
f 211 210 219 220
f 218 217 7 8
f 208 1 2
f 215 214 6 221
f 212 211 220 4
f 9 218 8
f 209 208 2 3
f 216 215 221 222
f 213 212 4 5
f 210 209 3 219
o chest
v 8.000000 27.160534 9.800194
v 8.000000 37.354347 5.760409
v 8.000000 39.760780 0.000000
v 8.000000 39.144081 -3.028426
v 8.000000 37.354347 -5.760409
v 8.000000 31.054226 -9.320539
v 8.000000 27.160534 -9.800194
v 9.324490 30.757835 9.320539
v 10.519329 34.003006 7.928523
v 11.467560 36.578392 5.760409
v 12.076361 38.231888 3.028426
v 12.286139 38.801643 0.000000
v 12.076361 38.231888 -3.028426
v 11.467560 36.578392 -5.760409
v 10.519329 34.003006 -7.928523
v 9.324490 30.757835 -9.320539
v 10.447338 29.913790 9.320539
v 12.655113 32.397537 7.928523
v 14.407214 34.368649 5.760409
v 15.532132 35.634182 3.028426
v 15.919752 36.070255 0.000000
v 15.532132 35.634182 -3.028426
v 14.407214 34.368649 -5.760409
v 12.655113 32.397537 -7.928523
v 10.447338 29.913790 -9.320539
v 11.197601 28.650585 9.320539
v 14.082199 29.994778 7.928523
v 16.371429 31.061537 5.760409
v 17.841206 31.746439 3.028426
v 18.347656 31.982439 0.000000
v 17.841206 31.746439 -3.028426
v 16.371429 31.061537 -5.760409
v 14.082199 29.994778 -7.928523
v 11.197601 28.650585 -9.320539
v 11.461059 27.160534 9.320539
v 14.583324 27.160532 7.928523
v 17.061169 27.160532 5.760409
v 18.652042 27.160532 3.028426
v 19.200222 27.160532 0.000000
v 18.652042 27.160532 -3.028426
v 17.061169 27.160532 -5.760409
v 14.583324 27.160532 -7.928523
v 11.461059 27.160534 -9.320539
v 11.197601 25.670483 9.320539
v 14.082197 24.326288 7.928523
v 16.371426 23.259529 5.760409
v 17.841202 22.574627 3.028426
v 18.347654 22.338625 0.000000
v 17.841202 22.574627 -3.028426
v 16.371426 23.259529 -5.760409
v 14.082197 24.326288 -7.928523
v 11.197601 25.670483 -9.320539
v 10.447337 24.407278 9.320539
v 12.655111 21.923531 7.928523
v 14.407211 19.952417 5.760409
v 15.532129 18.686884 3.028426
v 15.919750 18.250811 0.000000
v 15.532129 18.686884 -3.028426
v 14.407211 19.952417 -5.760409
v 12.655111 21.923531 -7.928523
v 10.447337 24.407278 -9.320539
v 9.324489 23.563232 9.320539
v 10.519327 20.318062 7.928523
v 11.467556 17.742678 5.760409
v 12.076357 16.089180 3.028426
v 12.286136 15.519421 0.000000
v 12.076357 16.089180 -3.028426
v 11.467556 17.742678 -5.760409
v 10.519327 20.318062 -7.928523
v 9.324489 23.563232 -9.320539
v 7.999999 23.266842 9.320539
v 7.999998 19.754295 7.928523
v 7.999997 16.966721 5.760409
v 7.999997 15.176987 3.028426
v 7.999996 14.560286 0.000000
v 7.999997 15.176987 -3.028426
v 7.999997 16.966721 -5.760409
v 7.999998 19.754295 -7.928523
v 7.999999 23.266842 -9.320539
v 6.675509 23.563232 9.320539
v 5.480669 20.318062 7.928523
v 4.532439 17.742682 5.760409
v 3.923637 16.089184 3.028426
v 3.713857 15.519423 0.000000
v 3.923637 16.089184 -3.028426
v 4.532439 17.742682 -5.760409
v 5.480669 20.318062 -7.928523
v 6.675509 23.563232 -9.320539
v 5.552661 24.407280 9.320539
v 3.344886 21.923534 7.928523
v 1.592786 19.952423 5.760409
v 0.467867 18.686890 3.028426
v 0.080245 18.250816 0.000000
v 0.467867 18.686890 -3.028426
v 1.592786 19.952423 -5.760409
v 3.344886 21.923534 -7.928523
v 5.552661 24.407280 -9.320539
v 4.802398 25.670485 9.320539
v 1.917801 24.326292 7.928523
v -0.371427 23.259535 5.760409
v -1.841204 22.574635 3.028426
v -2.347656 22.338633 0.000000
v -1.841204 22.574635 -3.028426
v -0.371427 23.259535 -5.760409
v 1.917801 24.326292 -7.928523
v 4.802398 25.670485 -9.320539
v 4.538941 27.160536 9.320539
v 1.416677 27.160538 7.928523
v -1.061165 27.160538 5.760409
v -2.652040 27.160540 3.028426
v -3.200220 27.160540 0.000000
v -2.652040 27.160540 -3.028426
v -1.061165 27.160538 -5.760409
v 1.416677 27.160538 -7.928523
v 4.538941 27.160536 -9.320539
v 4.802399 28.650587 9.320539
v 1.917804 29.994781 7.928523
v -0.371424 31.061541 5.760409
v -1.841200 31.746445 3.028426
v -2.347652 31.982447 0.000000
v -1.841200 31.746445 -3.028426
v -0.371424 31.061541 -5.760409
v 1.917804 29.994781 -7.928523
v 4.802399 28.650587 -9.320539
v 5.552663 29.913792 9.320539
v 3.344891 32.397537 7.928523
v 1.592792 34.368652 5.760409
v 0.467874 35.634186 3.028426
v 0.080253 36.070259 0.000000
v 0.467874 35.634186 -3.028426
v 1.592792 34.368652 -5.760409
v 3.344891 32.397537 -7.928523
v 5.552663 29.913792 -9.320539
v 6.675511 30.757835 9.320539
v 5.480675 34.003006 7.928523
v 4.532446 36.578388 5.760409
v 3.923646 38.231888 3.028426
v 3.713867 38.801647 0.000000
v 3.923646 38.231888 -3.028426
v 4.532446 36.578388 -5.760409
v 5.480675 34.003006 -7.928523
v 6.675511 30.757835 -9.320539
v 8.000002 31.054226 9.320539
v 8.000004 34.566772 7.928523
v 8.000006 39.144081 3.028426
v 8.000004 34.566772 -7.928523
s 0
f 224 366 231 232
f 229 228 238
f 227 226 235 236
f 367 224 232 233
f 365 223 230
f 368 227 236 237
f 225 367 233 234
f 366 365 230 231
f 228 368 237 238
f 226 225 234 235
f 232 231 240 241
f 229 238 247
f 236 235 244 245
f 233 232 241 242
f 230 223 239
f 237 236 245 246
f 234 233 242 243
f 231 230 239 240
f 238 237 246 247
f 235 234 243 244
f 244 243 252 253
f 241 240 249 250
f 229 247 256
f 245 244 253 254
f 242 241 250 251
f 239 223 248
f 246 245 254 255
f 243 242 251 252
f 240 239 248 249
f 247 246 255 256
f 249 248 257 258
f 256 255 264 265
f 253 252 261 262
f 250 249 258 259
f 229 256 265
f 254 253 262 263
f 251 250 259 260
f 248 223 257
f 255 254 263 264
f 252 251 260 261
f 264 263 272 273
f 261 260 269 270
f 258 257 266 267
f 265 264 273 274
f 262 261 270 271
f 259 258 267 268
f 229 265 274
f 263 262 271 272
f 260 259 268 269
f 257 223 266
f 269 268 277 278
f 266 223 275
f 273 272 281 282
f 270 269 278 279
f 267 266 275 276
f 274 273 282 283
f 271 270 279 280
f 268 267 276 277
f 229 274 283
f 272 271 280 281
f 281 280 289 290
f 278 277 286 287
f 275 223 284
f 282 281 290 291
f 279 278 287 288
f 276 275 284 285
f 283 282 291 292
f 280 279 288 289
f 277 276 285 286
f 229 283 292
f 286 285 294 295
f 229 292 301
f 290 289 298 299
f 287 286 295 296
f 284 223 293
f 291 290 299 300
f 288 287 296 297
f 285 284 293 294
f 292 291 300 301
f 289 288 297 298
f 301 300 309 310
f 298 297 306 307
f 295 294 303 304
f 229 301 310
f 299 298 307 308
f 296 295 304 305
f 293 223 302
f 300 299 308 309
f 297 296 305 306
f 294 293 302 303
f 306 305 314 315
f 303 302 311 312
f 310 309 318 319
f 307 306 315 316
f 304 303 312 313
f 229 310 319
f 308 307 316 317
f 305 304 313 314
f 302 223 311
f 309 308 317 318
f 311 223 320
f 318 317 326 327
f 315 314 323 324
f 312 311 320 321
f 319 318 327 328
f 316 315 324 325
f 313 312 321 322
f 229 319 328
f 317 316 325 326
f 314 313 322 323
f 323 322 331 332
f 320 223 329
f 327 326 335 336
f 324 323 332 333
f 321 320 329 330
f 328 327 336 337
f 325 324 333 334
f 322 321 330 331
f 229 328 337
f 326 325 334 335
f 229 337 346
f 335 334 343 344
f 332 331 340 341
f 329 223 338
f 336 335 344 345
f 333 332 341 342
f 330 329 338 339
f 337 336 345 346
f 334 333 342 343
f 331 330 339 340
f 343 342 351 352
f 340 339 348 349
f 229 346 355
f 344 343 352 353
f 341 340 349 350
f 338 223 347
f 345 344 353 354
f 342 341 350 351
f 339 338 347 348
f 346 345 354 355
f 348 347 356 357
f 355 354 363 364
f 352 351 360 361
f 349 348 357 358
f 229 355 364
f 353 352 361 362
f 350 349 358 359
f 347 223 356
f 354 353 362 363
f 351 350 359 360
f 360 359 367 225
f 357 356 365 366
f 364 363 368 228
f 361 360 225 226
f 358 357 366 224
f 229 364 228
f 362 361 226 227
f 359 358 224 367
f 356 223 365
f 363 362 227 368
o arched_neck
v 7.799919 28.560560 6.300124
v 16.200083 45.360893 6.300125
v 4.982417 29.969311 5.456068
v 13.382581 46.769646 5.456069
v 2.919863 31.000587 3.150062
v 11.320026 47.800922 3.150063
v 2.164915 31.378061 -0.000000
v 10.565079 48.178394 0.000001
v 2.919863 31.000587 -3.150062
v 11.320026 47.800922 -3.150061
v 4.982416 29.969313 -5.456068
v 13.382580 46.769646 -5.456067
v 7.799918 28.560562 -6.300125
v 16.200081 45.360893 -6.300124
v 10.617419 27.151812 -5.456069
v 19.017582 43.952145 -5.456068
v 12.679974 26.120533 -3.150063
v 21.080137 42.920868 -3.150062
v 13.434921 25.743061 -0.000001
v 21.835085 42.543392 0.000000
v 12.679974 26.120533 3.150061
v 21.080137 42.920868 3.150062
v 10.617420 27.151810 5.456067
v 19.017584 43.952145 5.456068
s 0
f 369 370 372 371
f 371 372 374 373
f 373 374 376 375
f 375 376 378 377
f 377 378 380 379
f 379 380 382 381
f 381 382 384 383
f 383 384 386 385
f 385 386 388 387
f 387 388 390 389
f 372 370 392 390 388 386 384 382 380 378 376 374
f 389 390 392 391
f 391 392 370 369
f 369 371 373 375 377 379 381 383 385 387 389 391
o head
v 19.000000 48.160950 7.700152
v 19.000000 53.597652 4.526036
v 19.000000 54.881081 0.000000
v 19.000000 54.552177 -2.379478
v 19.000000 53.597652 -4.526036
v 19.000000 50.237587 -7.323280
v 19.000000 48.160950 -7.700152
v 20.076149 50.079510 7.323280
v 21.046955 51.810268 6.229554
v 21.817392 53.183807 4.526036
v 22.312042 54.065674 2.379478
v 22.482489 54.369541 0.000000
v 22.312042 54.065674 -2.379478
v 21.817392 53.183807 -4.526036
v 21.046955 51.810268 -6.229554
v 20.076149 50.079510 -7.323280
v 20.988462 49.629353 7.323280
v 22.782280 50.954018 6.229554
v 24.205862 52.005280 4.526036
v 25.119858 52.680229 2.379478
v 25.434799 52.912800 0.000000
v 25.119858 52.680229 -2.379478
v 24.205862 52.005280 -4.526036
v 22.782280 50.954018 -6.229554
v 20.988462 49.629353 -7.323280
v 21.598051 48.955643 7.323280
v 23.941788 49.672546 6.229554
v 25.801785 50.241486 4.526036
v 26.995979 50.606766 2.379478
v 27.407471 50.732632 0.000000
v 26.995979 50.606766 -2.379478
v 25.801785 50.241486 -4.526036
v 23.941788 49.672546 -6.229554
v 21.598051 48.955643 -7.323280
v 21.812111 48.160950 7.323280
v 24.348951 48.160950 6.229554
v 26.362198 48.160950 4.526036
v 27.654785 48.160950 2.379478
v 28.100180 48.160950 0.000000
v 27.654785 48.160950 -2.379478
v 26.362198 48.160950 -4.526036
v 24.348951 48.160950 -6.229554
v 21.812111 48.160950 -7.323280
v 21.598051 47.366257 7.323280
v 23.941784 46.649353 6.229554
v 25.801785 46.080414 4.526036
v 26.995977 45.715134 2.379478
v 27.407469 45.589264 0.000000
v 26.995977 45.715134 -2.379478
v 25.801785 46.080414 -4.526036
v 23.941784 46.649353 -6.229554
v 21.598051 47.366257 -7.323280
v 20.988462 46.692547 7.323280
v 22.782278 45.367882 6.229554
v 24.205860 44.316620 4.526036
v 25.119854 43.641670 2.379478
v 25.434797 43.409096 0.000000
v 25.119854 43.641670 -2.379478
v 24.205860 44.316620 -4.526036
v 22.782278 45.367882 -6.229554
v 20.988462 46.692547 -7.323280
v 20.076147 46.242390 7.323280
v 21.046953 44.511631 6.229554
v 21.817390 43.138092 4.526036
v 22.312040 42.256226 2.379478
v 22.482485 41.952354 0.000000
v 22.312040 42.256226 -2.379478
v 21.817390 43.138092 -4.526036
v 21.046953 44.511631 -6.229554
v 20.076147 46.242390 -7.323280
v 19.000000 46.084312 7.323280
v 18.999998 44.210957 6.229554
v 18.999998 42.724251 4.526036
v 18.999998 41.769726 2.379478
v 18.999996 41.440819 0.000000
v 18.999998 41.769726 -2.379478
v 18.999998 42.724251 -4.526036
v 18.999998 44.210957 -6.229554
v 19.000000 46.084312 -7.323280
v 17.923851 46.242390 7.323280
v 16.953043 44.511631 6.229554
v 16.182606 43.138096 4.526036
v 15.687956 42.256229 2.379478
v 15.517509 41.952358 0.000000
v 15.687956 42.256229 -2.379478
v 16.182606 43.138096 -4.526036
v 16.953043 44.511631 -6.229554
v 17.923851 46.242390 -7.323280
v 17.011538 46.692547 7.323280
v 15.217720 45.367882 6.229554
v 13.794138 44.316624 4.526036
v 12.880142 43.641674 2.379478
v 12.565199 43.409100 0.000000
v 12.880142 43.641674 -2.379478
v 13.794138 44.316624 -4.526036
v 15.217720 45.367882 -6.229554
v 17.011538 46.692547 -7.323280
v 16.401949 47.366257 7.323280
v 14.058214 46.649353 6.229554
v 12.198215 46.080418 4.526036
v 11.004022 45.715137 2.379478
v 10.592528 45.589268 0.000000
v 11.004022 45.715137 -2.379478
v 12.198215 46.080418 -4.526036
v 14.058214 46.649353 -6.229554
v 16.401949 47.366257 -7.323280
v 16.187889 48.160950 7.323280
v 13.651050 48.160950 6.229554
v 11.637803 48.160954 4.526036
v 10.345217 48.160954 2.379478
v 9.899821 48.160954 0.000000
v 10.345217 48.160954 -2.379478
v 11.637803 48.160954 -4.526036
v 13.651050 48.160950 -6.229554
v 16.187889 48.160950 -7.323280
v 16.401949 48.955643 7.323280
v 14.058216 49.672550 6.229554
v 12.198217 50.241486 4.526036
v 11.004025 50.606770 2.379478
v 10.592533 50.732635 0.000000
v 11.004025 50.606770 -2.379478
v 12.198217 50.241486 -4.526036
v 14.058216 49.672550 -6.229554
v 16.401949 48.955643 -7.323280
v 17.011539 49.629353 7.323280
v 15.217724 50.954018 6.229554
v 13.794144 52.005280 4.526036
v 12.880148 52.680229 2.379478
v 12.565205 52.912804 0.000000
v 12.880148 52.680229 -2.379478
v 13.794144 52.005280 -4.526036
v 15.217724 50.954018 -6.229554
v 17.011539 49.629353 -7.323280
v 17.923853 50.079510 7.323280
v 16.953049 51.810268 6.229554
v 16.182613 53.183807 4.526036
v 15.687963 54.065674 2.379478
v 15.517517 54.369545 0.000000
v 15.687963 54.065674 -2.379478
v 16.182613 53.183807 -4.526036
v 16.953049 51.810268 -6.229554
v 17.923853 50.079510 -7.323280
v 19.000002 50.237587 7.323280
v 19.000004 52.110943 6.229554
v 19.000006 54.552174 2.379478
v 19.000004 52.110943 -6.229554
s 0
f 394 536 401 402
f 399 398 408
f 397 396 405 406
f 537 394 402 403
f 535 393 400
f 538 397 406 407
f 395 537 403 404
f 536 535 400 401
f 398 538 407 408
f 396 395 404 405
f 402 401 410 411
f 399 408 417
f 406 405 414 415
f 403 402 411 412
f 400 393 409
f 407 406 415 416
f 404 403 412 413
f 401 400 409 410
f 408 407 416 417
f 405 404 413 414
f 414 413 422 423
f 411 410 419 420
f 399 417 426
f 415 414 423 424
f 412 411 420 421
f 409 393 418
f 416 415 424 425
f 413 412 421 422
f 410 409 418 419
f 417 416 425 426
f 419 418 427 428
f 426 425 434 435
f 423 422 431 432
f 420 419 428 429
f 399 426 435
f 424 423 432 433
f 421 420 429 430
f 418 393 427
f 425 424 433 434
f 422 421 430 431
f 434 433 442 443
f 431 430 439 440
f 428 427 436 437
f 435 434 443 444
f 432 431 440 441
f 429 428 437 438
f 399 435 444
f 433 432 441 442
f 430 429 438 439
f 427 393 436
f 439 438 447 448
f 436 393 445
f 443 442 451 452
f 440 439 448 449
f 437 436 445 446
f 444 443 452 453
f 441 440 449 450
f 438 437 446 447
f 399 444 453
f 442 441 450 451
f 451 450 459 460
f 448 447 456 457
f 445 393 454
f 452 451 460 461
f 449 448 457 458
f 446 445 454 455
f 453 452 461 462
f 450 449 458 459
f 447 446 455 456
f 399 453 462
f 456 455 464 465
f 399 462 471
f 460 459 468 469
f 457 456 465 466
f 454 393 463
f 461 460 469 470
f 458 457 466 467
f 455 454 463 464
f 462 461 470 471
f 459 458 467 468
f 471 470 479 480
f 468 467 476 477
f 465 464 473 474
f 399 471 480
f 469 468 477 478
f 466 465 474 475
f 463 393 472
f 470 469 478 479
f 467 466 475 476
f 464 463 472 473
f 476 475 484 485
f 473 472 481 482
f 480 479 488 489
f 477 476 485 486
f 474 473 482 483
f 399 480 489
f 478 477 486 487
f 475 474 483 484
f 472 393 481
f 479 478 487 488
f 481 393 490
f 488 487 496 497
f 485 484 493 494
f 482 481 490 491
f 489 488 497 498
f 486 485 494 495
f 483 482 491 492
f 399 489 498
f 487 486 495 496
f 484 483 492 493
f 493 492 501 502
f 490 393 499
f 497 496 505 506
f 494 493 502 503
f 491 490 499 500
f 498 497 506 507
f 495 494 503 504
f 492 491 500 501
f 399 498 507
f 496 495 504 505
f 399 507 516
f 505 504 513 514
f 502 501 510 511
f 499 393 508
f 506 505 514 515
f 503 502 511 512
f 500 499 508 509
f 507 506 515 516
f 504 503 512 513
f 501 500 509 510
f 513 512 521 522
f 510 509 518 519
f 399 516 525
f 514 513 522 523
f 511 510 519 520
f 508 393 517
f 515 514 523 524
f 512 511 520 521
f 509 508 517 518
f 516 515 524 525
f 518 517 526 527
f 525 524 533 534
f 522 521 530 531
f 519 518 527 528
f 399 525 534
f 523 522 531 532
f 520 519 528 529
f 517 393 526
f 524 523 532 533
f 521 520 529 530
f 530 529 537 395
f 527 526 535 536
f 534 533 538 398
f 531 530 395 396
f 528 527 536 394
f 399 534 398
f 532 531 396 397
f 529 528 394 537
f 526 393 535
f 533 532 397 538
o snout
v 19.399889 51.941025 0.000000
v 30.600111 49.000965 -0.000000
v 19.399889 51.247021 -2.590051
v 30.600111 48.700855 -1.120022
v 19.399889 49.350971 -4.486100
v 30.600111 47.880943 -1.939935
v 19.399889 46.760921 -5.180102
v 30.600111 46.760921 -2.240045
v 19.399889 44.170872 -4.486100
v 30.600111 45.640900 -1.939935
v 19.399889 42.274822 -2.590051
v 30.600111 44.820988 -1.120022
v 19.399889 41.580818 0.000000
v 30.600111 44.520878 -0.000000
v 19.399889 42.274822 2.590051
v 30.600111 44.820988 1.120022
v 19.399889 44.170872 4.486101
v 30.600111 45.640900 1.939935
v 19.399889 46.760921 5.180103
v 30.600111 46.760921 2.240044
v 19.399889 49.350971 4.486101
v 30.600111 47.880943 1.939935
v 19.399889 51.247021 2.590051
v 30.600111 48.700855 1.120022
s 0
f 539 540 542 541
f 541 542 544 543
f 543 544 546 545
f 545 546 548 547
f 547 548 550 549
f 549 550 552 551
f 551 552 554 553
f 553 554 556 555
f 555 556 558 557
f 557 558 560 559
f 542 540 562 560 558 556 554 552 550 548 546 544
f 559 560 562 561
f 561 562 540 539
f 539 541 543 545 547 549 551 553 555 557 559 561
o horn
v 17.200014 53.761063 1.540030
v 15.799986 62.161224 1.540031
v 16.440475 53.634472 1.333705
v 15.040448 62.034637 1.333706
v 15.884455 53.541801 0.770015
v 14.484427 61.941967 0.770015
v 15.680937 53.507881 -0.000000
v 14.280910 61.908047 0.000000
v 15.884455 53.541801 -0.770016
v 14.484427 61.941967 -0.770015
v 16.440475 53.634472 -1.333706
v 15.040448 62.034637 -1.333705
v 17.200014 53.761063 -1.540031
v 15.799986 62.161224 -1.540030
v 17.959553 53.887650 -1.333706
v 16.559525 62.287815 -1.333705
v 18.515572 53.980320 -0.770015
v 17.115545 62.380486 -0.770015
v 18.719090 54.014240 -0.000000
v 17.319063 62.414406 0.000000
v 18.515572 53.980320 0.770015
v 17.115545 62.380486 0.770016
v 17.959553 53.887650 1.333705
v 16.559525 62.287815 1.333706
s 0
f 563 564 566 565
f 565 566 568 567
f 567 568 570 569
f 569 570 572 571
f 571 572 574 573
f 573 574 576 575
f 575 576 578 577
f 577 578 580 579
f 579 580 582 581
f 581 582 584 583
f 566 564 586 584 582 580 578 576 574 572 570 568
f 583 584 586 585
f 585 586 564 563
f 563 565 567 569 571 573 575 577 579 581 583 585
o tail_base
v -7.199805 21.560425 5.880116
v -26.800194 17.360342 5.880116
v -6.583778 18.685627 5.092330
v -26.184168 14.485546 5.092330
v -6.132814 16.581131 2.940059
v -25.733204 12.381050 2.940058
v -5.967751 15.810831 0.000001
v -25.568140 11.610750 0.000000
v -6.132814 16.581131 -2.940057
v -25.733204 12.381048 -2.940058
v -6.583777 18.685627 -5.092329
v -26.184166 14.485545 -5.092330
v -7.199805 21.560423 -5.880116
v -26.800194 17.360340 -5.880116
v -7.815832 24.435219 -5.092330
v -27.416222 20.235138 -5.092330
v -8.266796 26.539715 -2.940058
v -27.867186 22.339634 -2.940059
v -8.431860 27.310015 -0.000000
v -28.032249 23.109934 -0.000001
v -8.266796 26.539717 2.940058
v -27.867186 22.339634 2.940057
v -7.815833 24.435219 5.092330
v -27.416222 20.235138 5.092329
s 0
f 587 588 590 589
f 589 590 592 591
f 591 592 594 593
f 593 594 596 595
f 595 596 598 597
f 597 598 600 599
f 599 600 602 601
f 601 602 604 603
f 603 604 606 605
f 605 606 608 607
f 590 588 610 608 606 604 602 600 598 596 594 592
f 607 608 610 609
f 609 610 588 587
f 587 589 591 593 595 597 599 601 603 605 607 609
o tail_tip
v -20.799778 17.360342 2.800054
v -43.200222 14.560286 2.800056
v -20.626125 15.971126 2.424918
v -43.026569 13.171070 2.424920
v -20.499004 14.954148 1.400027
v -42.899445 12.154093 1.400029
v -20.452475 14.581909 -0.000001
v -42.852917 11.781853 0.000001
v -20.499004 14.954148 -1.400028
v -42.899445 12.154092 -1.400027
v -20.626127 15.971126 -2.424920
v -43.026569 13.171069 -2.424918
v -20.799778 17.360342 -2.800056
v -43.200222 14.560286 -2.800054
v -20.973431 18.749557 -2.424920
v -43.373875 15.949502 -2.424918
v -21.100554 19.766535 -1.400029
v -43.500996 16.966478 -1.400027
v -21.147083 20.138775 -0.000001
v -43.547523 17.338718 0.000001
v -21.100554 19.766537 1.400027
v -43.500996 16.966480 1.400028
v -20.973431 18.749557 2.424918
v -43.373871 15.949502 2.424920
s 0
f 611 612 614 613
f 613 614 616 615
f 615 616 618 617
f 617 618 620 619
f 619 620 622 621
f 621 622 624 623
f 623 624 626 625
f 625 626 628 627
f 627 628 630 629
f 629 630 632 631
f 614 612 634 632 630 628 626 624 622 620 618 616
f 631 632 634 633
f 633 634 612 611
f 611 613 615 617 619 621 623 625 627 629 631 633
o near_wing_spar
v 1.748817 28.814795 3.256547
v -8.051376 61.015434 22.856930
v 0.563633 28.621813 2.980997
v -9.236561 60.822453 22.581379
v -0.397421 28.787556 2.228178
v -10.197615 60.988194 21.828560
v -0.876832 29.267612 1.199809
v -10.677026 61.468250 20.800190
v -0.746141 29.933352 0.171440
v -10.546335 62.133987 19.771822
v -0.040368 30.606388 -0.581379
v -9.840562 62.807026 19.019003
v 1.051377 31.106384 -0.856930
v -8.748817 63.307022 18.743452
v 2.236561 31.299366 -0.581379
v -7.563633 63.500008 19.019003
v 3.197615 31.133625 0.171440
v -6.602579 63.334263 19.771822
v 3.677026 30.653568 1.199809
v -6.123168 62.854206 20.800190
v 3.546335 29.987829 2.228178
v -6.253859 62.188469 21.828560
v 2.840562 29.314793 2.980997
v -6.959632 61.515430 22.581379
s 0
f 635 636 638 637
f 637 638 640 639
f 639 640 642 641
f 641 642 644 643
f 643 644 646 645
f 645 646 648 647
f 647 648 650 649
f 649 650 652 651
f 651 652 654 653
f 653 654 656 655
f 638 636 658 656 654 652 650 648 646 644 642 640
f 655 656 658 657
f 657 658 636 635
f 635 637 639 641 643 645 647 649 651 653 655 657
o near_wing_membrane
v 1.400028 34.160675 5.600111
v -9.800194 62.161228 25.200497
v -5.600111 39.760784 29.400579
v 7.000138 36.960728 18.200359
v 11.200221 32.760647 7.000138
s 0
f 659 660 661 662 663
o far_wing_spar
v 1.051377 31.106388 0.856932
v -8.748817 63.307022 -18.743456
v -0.040367 30.606392 0.581382
v -9.840562 62.807026 -19.019005
v -0.746141 29.933353 -0.171436
v -10.546335 62.133987 -19.771824
v -0.876832 29.267614 -1.199806
v -10.677027 61.468246 -20.800194
v -0.397421 28.787558 -2.228175
v -10.197616 60.988190 -21.828564
v 0.563633 28.621815 -2.980993
v -9.236562 60.822449 -22.581381
v 1.748817 28.814796 -3.256544
v -8.051377 61.015430 -22.856932
v 2.840562 29.314793 -2.980994
v -6.959633 61.515427 -22.581383
v 3.546335 29.987831 -2.228176
v -6.253860 62.188465 -21.828564
v 3.677026 30.653570 -1.199806
v -6.123168 62.854202 -20.800194
v 3.197616 31.133627 -0.171437
v -6.602579 63.334259 -19.771824
v 2.236562 31.299370 0.581381
v -7.563633 63.500004 -19.019007
s 0
f 664 665 667 666
f 666 667 669 668
f 668 669 671 670
f 670 671 673 672
f 672 673 675 674
f 674 675 677 676
f 676 677 679 678
f 678 679 681 680
f 680 681 683 682
f 682 683 685 684
f 667 665 687 685 683 681 679 677 675 673 671 669
f 684 685 687 686
f 686 687 665 664
f 664 666 668 670 672 674 676 678 680 682 684 686
o far_wing_membrane
v 1.400028 34.160675 -5.600111
v -9.800194 62.161228 -25.200497
v -5.600111 39.760784 -29.400579
v 7.000138 36.960728 -18.200359
v 11.200221 32.760647 -7.000138
s 0
f 688 689 690 691 692
o leg_-7_-5
v -6.799986 21.560425 -1.639932
v -8.200014 3.360065 -1.639935
v -5.124902 21.431572 -2.090096
v -6.524929 3.231213 -2.090099
v -3.898654 21.337246 -3.319965
v -5.298682 3.136886 -3.319968
v -3.449817 21.302719 -4.999999
v -4.849844 3.102360 -5.000001
v -3.898654 21.337246 -6.680032
v -5.298682 3.136887 -6.680035
v -5.124902 21.431572 -7.909902
v -6.524929 3.231214 -7.909904
v -6.799986 21.560425 -8.360065
v -8.200014 3.360066 -8.360067
v -8.475071 21.689278 -7.909902
v -9.875098 3.488918 -7.909904
v -9.701318 21.783604 -6.680032
v -11.101345 3.583245 -6.680035
v -10.150156 21.818130 -4.999999
v -11.550183 3.617771 -5.000001
v -9.701318 21.783604 -3.319965
v -11.101345 3.583244 -3.319968
v -8.475071 21.689278 -2.090096
v -9.875098 3.488917 -2.090099
s 0
f 693 694 696 695
f 695 696 698 697
f 697 698 700 699
f 699 700 702 701
f 701 702 704 703
f 703 704 706 705
f 705 706 708 707
f 707 708 710 709
f 709 710 712 711
f 711 712 714 713
f 696 694 716 714 712 710 708 706 704 702 700 698
f 713 714 716 715
f 715 716 694 693
f 693 695 697 699 701 703 705 707 709 711 713 715
o foot_-7_-5
v -8.000000 1.960038 -1.499931
v -8.000000 3.545743 -2.942711
v -8.000000 3.920077 -5.000000
v -8.000000 3.824146 -6.081581
v -8.000000 3.545743 -7.057289
v -8.000000 2.565723 -8.328764
v -8.000000 1.960038 -8.500069
v -7.503316 2.519618 -1.671236
v -7.055252 3.024423 -2.168385
v -6.699665 3.425038 -2.942711
v -6.471365 3.682249 -3.918419
v -6.392698 3.770878 -5.000000
v -6.471365 3.682249 -6.081581
v -6.699665 3.425038 -7.057289
v -7.055252 3.024423 -7.831615
v -7.503316 2.519618 -8.328764
v -7.082248 2.388322 -1.671236
v -6.254333 2.774683 -2.168385
v -5.597295 3.081300 -2.942711
v -5.175450 3.278161 -3.918419
v -5.030093 3.345994 -5.000000
v -5.175450 3.278161 -6.081581
v -5.597295 3.081300 -7.057289
v -6.254333 2.774683 -7.831615
v -7.082248 2.388322 -8.328764
v -6.800900 2.191824 -1.671236
v -5.719175 2.400921 -2.168385
v -4.860714 2.566861 -2.942711
v -4.309548 2.673401 -3.918419
v -4.119629 2.710112 -5.000000
v -4.309548 2.673401 -6.081581
v -4.860714 2.566861 -7.057289
v -5.719175 2.400921 -7.831615
v -6.800900 2.191824 -8.328764
v -6.702103 1.960038 -1.671236
v -5.531254 1.960038 -2.168385
v -4.602062 1.960038 -2.942711
v -4.005484 1.960038 -3.918419
v -3.799917 1.960038 -5.000000
v -4.005484 1.960038 -6.081581
v -4.602062 1.960038 -7.057289
v -5.531254 1.960038 -7.831615
v -6.702103 1.960038 -8.328764
v -6.800900 1.728252 -1.671236
v -5.719176 1.519155 -2.168385
v -4.860715 1.353215 -2.942711
v -4.309549 1.246675 -3.918419
v -4.119630 1.209963 -5.000000
v -4.309549 1.246675 -6.081581
v -4.860715 1.353215 -7.057289
v -5.719176 1.519155 -7.831615
v -6.800900 1.728252 -8.328764
v -7.082249 1.531754 -1.671236
v -6.254333 1.145393 -2.168385
v -5.597296 0.838776 -2.942711
v -5.175451 0.641915 -3.918419
v -5.030094 0.574081 -5.000000
v -5.175451 0.641915 -6.081581
v -5.597296 0.838776 -7.057289
v -6.254333 1.145393 -7.831615
v -7.082249 1.531754 -8.328764
v -7.503317 1.400458 -1.671236
v -7.055252 0.895653 -2.168385
v -6.699667 0.495038 -2.942711
v -6.471366 0.237827 -3.918419
v -6.392699 0.149198 -5.000000
v -6.471366 0.237827 -6.081581
v -6.699667 0.495038 -7.057289
v -7.055252 0.895653 -7.831615
v -7.503317 1.400458 -8.328764
v -8.000000 1.354353 -1.671236
v -8.000001 0.807956 -2.168385
v -8.000001 0.374334 -2.942711
v -8.000001 0.095931 -3.918419
v -8.000002 -0.000001 -5.000000
v -8.000001 0.095931 -6.081581
v -8.000001 0.374334 -7.057289
v -8.000001 0.807956 -7.831615
v -8.000000 1.354353 -8.328764
v -8.496684 1.400458 -1.671236
v -8.944749 0.895654 -2.168385
v -9.300335 0.495039 -2.942711
v -9.528636 0.237828 -3.918419
v -9.607304 0.149199 -5.000000
v -9.528636 0.237828 -6.081581
v -9.300335 0.495039 -7.057289
v -8.944749 0.895654 -7.831615
v -8.496684 1.400458 -8.328764
v -8.917752 1.531754 -1.671236
v -9.745667 1.145394 -2.168385
v -10.402705 0.838776 -2.942711
v -10.824550 0.641916 -3.918419
v -10.969908 0.574082 -5.000000
v -10.824550 0.641916 -6.081581
v -10.402705 0.838776 -7.057289
v -9.745667 1.145394 -7.831615
v -8.917752 1.531754 -8.328764
v -9.199100 1.728253 -1.671236
v -10.280825 1.519156 -2.168385
v -11.139285 1.353216 -2.942711
v -11.690452 1.246676 -3.918419
v -11.880371 1.209965 -5.000000
v -11.690452 1.246676 -6.081581
v -11.139285 1.353216 -7.057289
v -10.280825 1.519156 -7.831615
v -9.199100 1.728253 -8.328764
v -9.297897 1.960038 -1.671236
v -10.468746 1.960039 -2.168385
v -11.397937 1.960039 -2.942711
v -11.994514 1.960039 -3.918419
v -12.200083 1.960039 -5.000000
v -11.994514 1.960039 -6.081581
v -11.397937 1.960039 -7.057289
v -10.468746 1.960039 -7.831615
v -9.297897 1.960038 -8.328764
v -9.199100 2.191824 -1.671236
v -10.280824 2.400921 -2.168385
v -11.139284 2.566861 -2.942711
v -11.690450 2.673402 -3.918419
v -11.880369 2.710113 -5.000000
v -11.690450 2.673402 -6.081581
v -11.139284 2.566861 -7.057289
v -10.280824 2.400921 -7.831615
v -9.199100 2.191824 -8.328764
v -8.917751 2.388322 -1.671236
v -9.745667 2.774683 -2.168385
v -10.402703 3.081301 -2.942711
v -10.824547 3.278162 -3.918419
v -10.969906 3.345995 -5.000000
v -10.824547 3.278162 -6.081581
v -10.402703 3.081301 -7.057289
v -9.745667 2.774683 -7.831615
v -8.917751 2.388322 -8.328764
v -8.496683 2.519619 -1.671236
v -8.944747 3.024423 -2.168385
v -9.300333 3.425038 -2.942711
v -9.528633 3.682249 -3.918419
v -9.607300 3.770878 -5.000000
v -9.528633 3.682249 -6.081581
v -9.300333 3.425038 -7.057289
v -8.944747 3.024423 -7.831615
v -8.496683 2.519619 -8.328764
v -8.000000 2.565723 -1.671236
v -7.999999 3.112119 -2.168385
v -7.999998 3.824145 -3.918419
v -7.999999 3.112119 -7.831615
s 0
f 718 860 725 726
f 723 722 732
f 721 720 729 730
f 861 718 726 727
f 859 717 724
f 862 721 730 731
f 719 861 727 728
f 860 859 724 725
f 722 862 731 732
f 720 719 728 729
f 726 725 734 735
f 723 732 741
f 730 729 738 739
f 727 726 735 736
f 724 717 733
f 731 730 739 740
f 728 727 736 737
f 725 724 733 734
f 732 731 740 741
f 729 728 737 738
f 738 737 746 747
f 735 734 743 744
f 723 741 750
f 739 738 747 748
f 736 735 744 745
f 733 717 742
f 740 739 748 749
f 737 736 745 746
f 734 733 742 743
f 741 740 749 750
f 743 742 751 752
f 750 749 758 759
f 747 746 755 756
f 744 743 752 753
f 723 750 759
f 748 747 756 757
f 745 744 753 754
f 742 717 751
f 749 748 757 758
f 746 745 754 755
f 758 757 766 767
f 755 754 763 764
f 752 751 760 761
f 759 758 767 768
f 756 755 764 765
f 753 752 761 762
f 723 759 768
f 757 756 765 766
f 754 753 762 763
f 751 717 760
f 763 762 771 772
f 760 717 769
f 767 766 775 776
f 764 763 772 773
f 761 760 769 770
f 768 767 776 777
f 765 764 773 774
f 762 761 770 771
f 723 768 777
f 766 765 774 775
f 775 774 783 784
f 772 771 780 781
f 769 717 778
f 776 775 784 785
f 773 772 781 782
f 770 769 778 779
f 777 776 785 786
f 774 773 782 783
f 771 770 779 780
f 723 777 786
f 780 779 788 789
f 723 786 795
f 784 783 792 793
f 781 780 789 790
f 778 717 787
f 785 784 793 794
f 782 781 790 791
f 779 778 787 788
f 786 785 794 795
f 783 782 791 792
f 795 794 803 804
f 792 791 800 801
f 789 788 797 798
f 723 795 804
f 793 792 801 802
f 790 789 798 799
f 787 717 796
f 794 793 802 803
f 791 790 799 800
f 788 787 796 797
f 800 799 808 809
f 797 796 805 806
f 804 803 812 813
f 801 800 809 810
f 798 797 806 807
f 723 804 813
f 802 801 810 811
f 799 798 807 808
f 796 717 805
f 803 802 811 812
f 805 717 814
f 812 811 820 821
f 809 808 817 818
f 806 805 814 815
f 813 812 821 822
f 810 809 818 819
f 807 806 815 816
f 723 813 822
f 811 810 819 820
f 808 807 816 817
f 817 816 825 826
f 814 717 823
f 821 820 829 830
f 818 817 826 827
f 815 814 823 824
f 822 821 830 831
f 819 818 827 828
f 816 815 824 825
f 723 822 831
f 820 819 828 829
f 723 831 840
f 829 828 837 838
f 826 825 834 835
f 823 717 832
f 830 829 838 839
f 827 826 835 836
f 824 823 832 833
f 831 830 839 840
f 828 827 836 837
f 825 824 833 834
f 837 836 845 846
f 834 833 842 843
f 723 840 849
f 838 837 846 847
f 835 834 843 844
f 832 717 841
f 839 838 847 848
f 836 835 844 845
f 833 832 841 842
f 840 839 848 849
f 842 841 850 851
f 849 848 857 858
f 846 845 854 855
f 843 842 851 852
f 723 849 858
f 847 846 855 856
f 844 843 852 853
f 841 717 850
f 848 847 856 857
f 845 844 853 854
f 854 853 861 719
f 851 850 859 860
f 858 857 862 722
f 855 854 719 720
f 852 851 860 718
f 723 858 722
f 856 855 720 721
f 853 852 718 861
f 850 717 859
f 857 856 721 862
o leg_-7_5
v -6.799986 21.560425 8.360067
v -8.200014 3.360065 8.360065
v -5.124902 21.431572 7.909904
v -6.524929 3.231213 7.909902
v -3.898654 21.337246 6.680035
v -5.298682 3.136886 6.680032
v -3.449817 21.302719 5.000001
v -4.849844 3.102360 4.999999
v -3.898654 21.337246 3.319968
v -5.298682 3.136887 3.319965
v -5.124902 21.431572 2.090099
v -6.524929 3.231214 2.090096
v -6.799986 21.560425 1.639935
v -8.200014 3.360066 1.639932
v -8.475071 21.689278 2.090099
v -9.875098 3.488918 2.090096
v -9.701318 21.783604 3.319968
v -11.101345 3.583245 3.319965
v -10.150156 21.818130 5.000001
v -11.550183 3.617771 4.999999
v -9.701318 21.783604 6.680035
v -11.101345 3.583244 6.680032
v -8.475071 21.689278 7.909904
v -9.875098 3.488917 7.909902
s 0
f 863 864 866 865
f 865 866 868 867
f 867 868 870 869
f 869 870 872 871
f 871 872 874 873
f 873 874 876 875
f 875 876 878 877
f 877 878 880 879
f 879 880 882 881
f 881 882 884 883
f 866 864 886 884 882 880 878 876 874 872 870 868
f 883 884 886 885
f 885 886 864 863
f 863 865 867 869 871 873 875 877 879 881 883 885
o foot_-7_5
v -8.000000 1.960038 8.500069
v -8.000000 3.545743 7.057289
v -8.000000 3.920077 5.000000
v -8.000000 3.824146 3.918419
v -8.000000 3.545743 2.942711
v -8.000000 2.565723 1.671236
v -8.000000 1.960038 1.499931
v -7.503316 2.519618 8.328764
v -7.055252 3.024423 7.831615
v -6.699665 3.425038 7.057289
v -6.471365 3.682249 6.081581
v -6.392698 3.770878 5.000000
v -6.471365 3.682249 3.918419
v -6.699665 3.425038 2.942711
v -7.055252 3.024423 2.168385
v -7.503316 2.519618 1.671236
v -7.082248 2.388322 8.328764
v -6.254333 2.774683 7.831615
v -5.597295 3.081300 7.057289
v -5.175450 3.278161 6.081581
v -5.030093 3.345994 5.000000
v -5.175450 3.278161 3.918419
v -5.597295 3.081300 2.942711
v -6.254333 2.774683 2.168385
v -7.082248 2.388322 1.671236
v -6.800900 2.191824 8.328764
v -5.719175 2.400921 7.831615
v -4.860714 2.566861 7.057289
v -4.309548 2.673401 6.081581
v -4.119629 2.710112 5.000000
v -4.309548 2.673401 3.918419
v -4.860714 2.566861 2.942711
v -5.719175 2.400921 2.168385
v -6.800900 2.191824 1.671236
v -6.702103 1.960038 8.328764
v -5.531254 1.960038 7.831615
v -4.602062 1.960038 7.057289
v -4.005484 1.960038 6.081581
v -3.799917 1.960038 5.000000
v -4.005484 1.960038 3.918419
v -4.602062 1.960038 2.942711
v -5.531254 1.960038 2.168385
v -6.702103 1.960038 1.671236
v -6.800900 1.728252 8.328764
v -5.719176 1.519155 7.831615
v -4.860715 1.353215 7.057289
v -4.309549 1.246675 6.081581
v -4.119630 1.209963 5.000000
v -4.309549 1.246675 3.918419
v -4.860715 1.353215 2.942711
v -5.719176 1.519155 2.168385
v -6.800900 1.728252 1.671236
v -7.082249 1.531754 8.328764
v -6.254333 1.145393 7.831615
v -5.597296 0.838776 7.057289
v -5.175451 0.641915 6.081581
v -5.030094 0.574081 5.000000
v -5.175451 0.641915 3.918419
v -5.597296 0.838776 2.942711
v -6.254333 1.145393 2.168385
v -7.082249 1.531754 1.671236
v -7.503317 1.400458 8.328764
v -7.055252 0.895653 7.831615
v -6.699667 0.495038 7.057289
v -6.471366 0.237827 6.081581
v -6.392699 0.149198 5.000000
v -6.471366 0.237827 3.918419
v -6.699667 0.495038 2.942711
v -7.055252 0.895653 2.168385
v -7.503317 1.400458 1.671236
v -8.000000 1.354353 8.328764
v -8.000001 0.807956 7.831615
v -8.000001 0.374334 7.057289
v -8.000001 0.095931 6.081581
v -8.000002 -0.000001 5.000000
v -8.000001 0.095931 3.918419
v -8.000001 0.374334 2.942711
v -8.000001 0.807956 2.168385
v -8.000000 1.354353 1.671236
v -8.496684 1.400458 8.328764
v -8.944749 0.895654 7.831615
v -9.300335 0.495039 7.057289
v -9.528636 0.237828 6.081581
v -9.607304 0.149199 5.000000
v -9.528636 0.237828 3.918419
v -9.300335 0.495039 2.942711
v -8.944749 0.895654 2.168385
v -8.496684 1.400458 1.671236
v -8.917752 1.531754 8.328764
v -9.745667 1.145394 7.831615
v -10.402705 0.838776 7.057289
v -10.824550 0.641916 6.081581
v -10.969908 0.574082 5.000000
v -10.824550 0.641916 3.918419
v -10.402705 0.838776 2.942711
v -9.745667 1.145394 2.168385
v -8.917752 1.531754 1.671236
v -9.199100 1.728253 8.328764
v -10.280825 1.519156 7.831615
v -11.139285 1.353216 7.057289
v -11.690452 1.246676 6.081581
v -11.880371 1.209965 5.000000
v -11.690452 1.246676 3.918419
v -11.139285 1.353216 2.942711
v -10.280825 1.519156 2.168385
v -9.199100 1.728253 1.671236
v -9.297897 1.960038 8.328764
v -10.468746 1.960039 7.831615
v -11.397937 1.960039 7.057289
v -11.994514 1.960039 6.081581
v -12.200083 1.960039 5.000000
v -11.994514 1.960039 3.918419
v -11.397937 1.960039 2.942711
v -10.468746 1.960039 2.168385
v -9.297897 1.960038 1.671236
v -9.199100 2.191824 8.328764
v -10.280824 2.400921 7.831615
v -11.139284 2.566861 7.057289
v -11.690450 2.673402 6.081581
v -11.880369 2.710113 5.000000
v -11.690450 2.673402 3.918419
v -11.139284 2.566861 2.942711
v -10.280824 2.400921 2.168385
v -9.199100 2.191824 1.671236
v -8.917751 2.388322 8.328764
v -9.745667 2.774683 7.831615
v -10.402703 3.081301 7.057289
v -10.824547 3.278162 6.081581
v -10.969906 3.345995 5.000000
v -10.824547 3.278162 3.918419
v -10.402703 3.081301 2.942711
v -9.745667 2.774683 2.168385
v -8.917751 2.388322 1.671236
v -8.496683 2.519619 8.328764
v -8.944747 3.024423 7.831615
v -9.300333 3.425038 7.057289
v -9.528633 3.682249 6.081581
v -9.607300 3.770878 5.000000
v -9.528633 3.682249 3.918419
v -9.300333 3.425038 2.942711
v -8.944747 3.024423 2.168385
v -8.496683 2.519619 1.671236
v -8.000000 2.565723 8.328764
v -7.999999 3.112119 7.831615
v -7.999998 3.824145 6.081581
v -7.999999 3.112119 2.168385
s 0
f 888 1030 895 896
f 893 892 902
f 891 890 899 900
f 1031 888 896 897
f 1029 887 894
f 1032 891 900 901
f 889 1031 897 898
f 1030 1029 894 895
f 892 1032 901 902
f 890 889 898 899
f 896 895 904 905
f 893 902 911
f 900 899 908 909
f 897 896 905 906
f 894 887 903
f 901 900 909 910
f 898 897 906 907
f 895 894 903 904
f 902 901 910 911
f 899 898 907 908
f 908 907 916 917
f 905 904 913 914
f 893 911 920
f 909 908 917 918
f 906 905 914 915
f 903 887 912
f 910 909 918 919
f 907 906 915 916
f 904 903 912 913
f 911 910 919 920
f 913 912 921 922
f 920 919 928 929
f 917 916 925 926
f 914 913 922 923
f 893 920 929
f 918 917 926 927
f 915 914 923 924
f 912 887 921
f 919 918 927 928
f 916 915 924 925
f 928 927 936 937
f 925 924 933 934
f 922 921 930 931
f 929 928 937 938
f 926 925 934 935
f 923 922 931 932
f 893 929 938
f 927 926 935 936
f 924 923 932 933
f 921 887 930
f 933 932 941 942
f 930 887 939
f 937 936 945 946
f 934 933 942 943
f 931 930 939 940
f 938 937 946 947
f 935 934 943 944
f 932 931 940 941
f 893 938 947
f 936 935 944 945
f 945 944 953 954
f 942 941 950 951
f 939 887 948
f 946 945 954 955
f 943 942 951 952
f 940 939 948 949
f 947 946 955 956
f 944 943 952 953
f 941 940 949 950
f 893 947 956
f 950 949 958 959
f 893 956 965
f 954 953 962 963
f 951 950 959 960
f 948 887 957
f 955 954 963 964
f 952 951 960 961
f 949 948 957 958
f 956 955 964 965
f 953 952 961 962
f 965 964 973 974
f 962 961 970 971
f 959 958 967 968
f 893 965 974
f 963 962 971 972
f 960 959 968 969
f 957 887 966
f 964 963 972 973
f 961 960 969 970
f 958 957 966 967
f 970 969 978 979
f 967 966 975 976
f 974 973 982 983
f 971 970 979 980
f 968 967 976 977
f 893 974 983
f 972 971 980 981
f 969 968 977 978
f 966 887 975
f 973 972 981 982
f 975 887 984
f 982 981 990 991
f 979 978 987 988
f 976 975 984 985
f 983 982 991 992
f 980 979 988 989
f 977 976 985 986
f 893 983 992
f 981 980 989 990
f 978 977 986 987
f 987 986 995 996
f 984 887 993
f 991 990 999 1000
f 988 987 996 997
f 985 984 993 994
f 992 991 1000 1001
f 989 988 997 998
f 986 985 994 995
f 893 992 1001
f 990 989 998 999
f 893 1001 1010
f 999 998 1007 1008
f 996 995 1004 1005
f 993 887 1002
f 1000 999 1008 1009
f 997 996 1005 1006
f 994 993 1002 1003
f 1001 1000 1009 1010
f 998 997 1006 1007
f 995 994 1003 1004
f 1007 1006 1015 1016
f 1004 1003 1012 1013
f 893 1010 1019
f 1008 1007 1016 1017
f 1005 1004 1013 1014
f 1002 887 1011
f 1009 1008 1017 1018
f 1006 1005 1014 1015
f 1003 1002 1011 1012
f 1010 1009 1018 1019
f 1012 1011 1020 1021
f 1019 1018 1027 1028
f 1016 1015 1024 1025
f 1013 1012 1021 1022
f 893 1019 1028
f 1017 1016 1025 1026
f 1014 1013 1022 1023
f 1011 887 1020
f 1018 1017 1026 1027
f 1015 1014 1023 1024
f 1024 1023 1031 889
f 1021 1020 1029 1030
f 1028 1027 1032 892
f 1025 1024 889 890
f 1022 1021 1030 888
f 893 1028 892
f 1026 1025 890 891
f 1023 1022 888 1031
f 1020 887 1029
f 1027 1026 891 1032
o leg_7_-5
v 6.799986 21.560425 -1.639932
v 8.200014 3.360065 -1.639935
v 8.475071 21.689278 -2.090096
v 9.875098 3.488917 -2.090099
v 9.701318 21.783604 -3.319965
v 11.101345 3.583244 -3.319968
v 10.150156 21.818130 -4.999999
v 11.550183 3.617771 -5.000001
v 9.701318 21.783604 -6.680032
v 11.101345 3.583245 -6.680035
v 8.475071 21.689278 -7.909902
v 9.875098 3.488918 -7.909904
v 6.799986 21.560425 -8.360065
v 8.200014 3.360066 -8.360067
v 5.124902 21.431572 -7.909902
v 6.524929 3.231214 -7.909904
v 3.898654 21.337246 -6.680032
v 5.298682 3.136887 -6.680035
v 3.449817 21.302719 -4.999999
v 4.849844 3.102360 -5.000001
v 3.898654 21.337246 -3.319965
v 5.298682 3.136886 -3.319968
v 5.124902 21.431572 -2.090096
v 6.524929 3.231213 -2.090099
s 0
f 1033 1034 1036 1035
f 1035 1036 1038 1037
f 1037 1038 1040 1039
f 1039 1040 1042 1041
f 1041 1042 1044 1043
f 1043 1044 1046 1045
f 1045 1046 1048 1047
f 1047 1048 1050 1049
f 1049 1050 1052 1051
f 1051 1052 1054 1053
f 1036 1034 1056 1054 1052 1050 1048 1046 1044 1042 1040 1038
f 1053 1054 1056 1055
f 1055 1056 1034 1033
f 1033 1035 1037 1039 1041 1043 1045 1047 1049 1051 1053 1055
o foot_7_-5
v 8.000000 1.960038 -1.499931
v 8.000000 3.545743 -2.942711
v 8.000000 3.920077 -5.000000
v 8.000000 3.824146 -6.081581
v 8.000000 3.545743 -7.057289
v 8.000000 2.565723 -8.328764
v 8.000000 1.960038 -8.500069
v 8.496684 2.519618 -1.671236
v 8.944749 3.024423 -2.168385
v 9.300335 3.425038 -2.942711
v 9.528635 3.682249 -3.918419
v 9.607302 3.770878 -5.000000
v 9.528635 3.682249 -6.081581
v 9.300335 3.425038 -7.057289
v 8.944749 3.024423 -7.831615
v 8.496684 2.519618 -8.328764
v 8.917752 2.388322 -1.671236
v 9.745667 2.774683 -2.168385
v 10.402705 3.081300 -2.942711
v 10.824550 3.278161 -3.918419
v 10.969908 3.345994 -5.000000
v 10.824550 3.278161 -6.081581
v 10.402705 3.081300 -7.057289
v 9.745667 2.774683 -7.831615
v 8.917752 2.388322 -8.328764
v 9.199100 2.191824 -1.671236
v 10.280825 2.400921 -2.168385
v 11.139286 2.566861 -2.942711
v 11.690452 2.673401 -3.918419
v 11.880371 2.710112 -5.000000
v 11.690452 2.673401 -6.081581
v 11.139286 2.566861 -7.057289
v 10.280825 2.400921 -7.831615
v 9.199100 2.191824 -8.328764
v 9.297897 1.960038 -1.671236
v 10.468746 1.960038 -2.168385
v 11.397938 1.960038 -2.942711
v 11.994516 1.960038 -3.918419
v 12.200083 1.960038 -5.000000
v 11.994516 1.960038 -6.081581
v 11.397938 1.960038 -7.057289
v 10.468746 1.960038 -7.831615
v 9.297897 1.960038 -8.328764
v 9.199100 1.728252 -1.671236
v 10.280824 1.519155 -2.168385
v 11.139285 1.353215 -2.942711
v 11.690451 1.246675 -3.918419
v 11.880370 1.209963 -5.000000
v 11.690451 1.246675 -6.081581
v 11.139285 1.353215 -7.057289
v 10.280824 1.519155 -7.831615
v 9.199100 1.728252 -8.328764
v 8.917751 1.531754 -1.671236
v 9.745667 1.145393 -2.168385
v 10.402704 0.838776 -2.942711
v 10.824549 0.641915 -3.918419
v 10.969906 0.574081 -5.000000
v 10.824549 0.641915 -6.081581
v 10.402704 0.838776 -7.057289
v 9.745667 1.145393 -7.831615
v 8.917751 1.531754 -8.328764
v 8.496683 1.400458 -1.671236
v 8.944748 0.895653 -2.168385
v 9.300334 0.495038 -2.942711
v 9.528634 0.237827 -3.918419
v 9.607301 0.149198 -5.000000
v 9.528634 0.237827 -6.081581
v 9.300334 0.495038 -7.057289
v 8.944748 0.895653 -7.831615
v 8.496683 1.400458 -8.328764
v 8.000000 1.354353 -1.671236
v 7.999999 0.807956 -2.168385
v 7.999999 0.374334 -2.942711
v 7.999999 0.095931 -3.918419
v 7.999999 -0.000001 -5.000000
v 7.999999 0.095931 -6.081581
v 7.999999 0.374334 -7.057289
v 7.999999 0.807956 -7.831615
v 8.000000 1.354353 -8.328764
v 7.503316 1.400458 -1.671236
v 7.055251 0.895654 -2.168385
v 6.699665 0.495039 -2.942711
v 6.471364 0.237828 -3.918419
v 6.392696 0.149199 -5.000000
v 6.471364 0.237828 -6.081581
v 6.699665 0.495039 -7.057289
v 7.055251 0.895654 -7.831615
v 7.503316 1.400458 -8.328764
v 7.082248 1.531754 -1.671236
v 6.254333 1.145394 -2.168385
v 5.597295 0.838776 -2.942711
v 5.175450 0.641916 -3.918419
v 5.030092 0.574082 -5.000000
v 5.175450 0.641916 -6.081581
v 5.597295 0.838776 -7.057289
v 6.254333 1.145394 -7.831615
v 7.082248 1.531754 -8.328764
v 6.800900 1.728253 -1.671236
v 5.719175 1.519156 -2.168385
v 4.860715 1.353216 -2.942711
v 4.309548 1.246676 -3.918419
v 4.119629 1.209965 -5.000000
v 4.309548 1.246676 -6.081581
v 4.860715 1.353216 -7.057289
v 5.719175 1.519156 -7.831615
v 6.800900 1.728253 -8.328764
v 6.702103 1.960038 -1.671236
v 5.531254 1.960039 -2.168385
v 4.602063 1.960039 -2.942711
v 4.005485 1.960039 -3.918419
v 3.799917 1.960039 -5.000000
v 4.005485 1.960039 -6.081581
v 4.602063 1.960039 -7.057289
v 5.531254 1.960039 -7.831615
v 6.702103 1.960038 -8.328764
v 6.800900 2.191824 -1.671236
v 5.719176 2.400921 -2.168385
v 4.860716 2.566861 -2.942711
v 4.309550 2.673402 -3.918419
v 4.119630 2.710113 -5.000000
v 4.309550 2.673402 -6.081581
v 4.860716 2.566861 -7.057289
v 5.719176 2.400921 -7.831615
v 6.800900 2.191824 -8.328764
v 7.082249 2.388322 -1.671236
v 6.254334 2.774683 -2.168385
v 5.597297 3.081301 -2.942711
v 5.175453 3.278162 -3.918419
v 5.030095 3.345995 -5.000000
v 5.175453 3.278162 -6.081581
v 5.597297 3.081301 -7.057289
v 6.254334 2.774683 -7.831615
v 7.082249 2.388322 -8.328764
v 7.503317 2.519619 -1.671236
v 7.055253 3.024423 -2.168385
v 6.699667 3.425038 -2.942711
v 6.471367 3.682249 -3.918419
v 6.392700 3.770878 -5.000000
v 6.471367 3.682249 -6.081581
v 6.699667 3.425038 -7.057289
v 7.055253 3.024423 -7.831615
v 7.503317 2.519619 -8.328764
v 8.000001 2.565723 -1.671236
v 8.000001 3.112119 -2.168385
v 8.000002 3.824145 -3.918419
v 8.000001 3.112119 -7.831615
s 0
f 1058 1200 1065 1066
f 1063 1062 1072
f 1061 1060 1069 1070
f 1201 1058 1066 1067
f 1199 1057 1064
f 1202 1061 1070 1071
f 1059 1201 1067 1068
f 1200 1199 1064 1065
f 1062 1202 1071 1072
f 1060 1059 1068 1069
f 1066 1065 1074 1075
f 1063 1072 1081
f 1070 1069 1078 1079
f 1067 1066 1075 1076
f 1064 1057 1073
f 1071 1070 1079 1080
f 1068 1067 1076 1077
f 1065 1064 1073 1074
f 1072 1071 1080 1081
f 1069 1068 1077 1078
f 1078 1077 1086 1087
f 1075 1074 1083 1084
f 1063 1081 1090
f 1079 1078 1087 1088
f 1076 1075 1084 1085
f 1073 1057 1082
f 1080 1079 1088 1089
f 1077 1076 1085 1086
f 1074 1073 1082 1083
f 1081 1080 1089 1090
f 1083 1082 1091 1092
f 1090 1089 1098 1099
f 1087 1086 1095 1096
f 1084 1083 1092 1093
f 1063 1090 1099
f 1088 1087 1096 1097
f 1085 1084 1093 1094
f 1082 1057 1091
f 1089 1088 1097 1098
f 1086 1085 1094 1095
f 1098 1097 1106 1107
f 1095 1094 1103 1104
f 1092 1091 1100 1101
f 1099 1098 1107 1108
f 1096 1095 1104 1105
f 1093 1092 1101 1102
f 1063 1099 1108
f 1097 1096 1105 1106
f 1094 1093 1102 1103
f 1091 1057 1100
f 1103 1102 1111 1112
f 1100 1057 1109
f 1107 1106 1115 1116
f 1104 1103 1112 1113
f 1101 1100 1109 1110
f 1108 1107 1116 1117
f 1105 1104 1113 1114
f 1102 1101 1110 1111
f 1063 1108 1117
f 1106 1105 1114 1115
f 1115 1114 1123 1124
f 1112 1111 1120 1121
f 1109 1057 1118
f 1116 1115 1124 1125
f 1113 1112 1121 1122
f 1110 1109 1118 1119
f 1117 1116 1125 1126
f 1114 1113 1122 1123
f 1111 1110 1119 1120
f 1063 1117 1126
f 1120 1119 1128 1129
f 1063 1126 1135
f 1124 1123 1132 1133
f 1121 1120 1129 1130
f 1118 1057 1127
f 1125 1124 1133 1134
f 1122 1121 1130 1131
f 1119 1118 1127 1128
f 1126 1125 1134 1135
f 1123 1122 1131 1132
f 1135 1134 1143 1144
f 1132 1131 1140 1141
f 1129 1128 1137 1138
f 1063 1135 1144
f 1133 1132 1141 1142
f 1130 1129 1138 1139
f 1127 1057 1136
f 1134 1133 1142 1143
f 1131 1130 1139 1140
f 1128 1127 1136 1137
f 1140 1139 1148 1149
f 1137 1136 1145 1146
f 1144 1143 1152 1153
f 1141 1140 1149 1150
f 1138 1137 1146 1147
f 1063 1144 1153
f 1142 1141 1150 1151
f 1139 1138 1147 1148
f 1136 1057 1145
f 1143 1142 1151 1152
f 1145 1057 1154
f 1152 1151 1160 1161
f 1149 1148 1157 1158
f 1146 1145 1154 1155
f 1153 1152 1161 1162
f 1150 1149 1158 1159
f 1147 1146 1155 1156
f 1063 1153 1162
f 1151 1150 1159 1160
f 1148 1147 1156 1157
f 1157 1156 1165 1166
f 1154 1057 1163
f 1161 1160 1169 1170
f 1158 1157 1166 1167
f 1155 1154 1163 1164
f 1162 1161 1170 1171
f 1159 1158 1167 1168
f 1156 1155 1164 1165
f 1063 1162 1171
f 1160 1159 1168 1169
f 1063 1171 1180
f 1169 1168 1177 1178
f 1166 1165 1174 1175
f 1163 1057 1172
f 1170 1169 1178 1179
f 1167 1166 1175 1176
f 1164 1163 1172 1173
f 1171 1170 1179 1180
f 1168 1167 1176 1177
f 1165 1164 1173 1174
f 1177 1176 1185 1186
f 1174 1173 1182 1183
f 1063 1180 1189
f 1178 1177 1186 1187
f 1175 1174 1183 1184
f 1172 1057 1181
f 1179 1178 1187 1188
f 1176 1175 1184 1185
f 1173 1172 1181 1182
f 1180 1179 1188 1189
f 1182 1181 1190 1191
f 1189 1188 1197 1198
f 1186 1185 1194 1195
f 1183 1182 1191 1192
f 1063 1189 1198
f 1187 1186 1195 1196
f 1184 1183 1192 1193
f 1181 1057 1190
f 1188 1187 1196 1197
f 1185 1184 1193 1194
f 1194 1193 1201 1059
f 1191 1190 1199 1200
f 1198 1197 1202 1062
f 1195 1194 1059 1060
f 1192 1191 1200 1058
f 1063 1198 1062
f 1196 1195 1060 1061
f 1193 1192 1058 1201
f 1190 1057 1199
f 1197 1196 1061 1202
o leg_7_5
v 6.799986 21.560425 8.360067
v 8.200014 3.360065 8.360065
v 8.475071 21.689278 7.909904
v 9.875098 3.488917 7.909902
v 9.701318 21.783604 6.680035
v 11.101345 3.583244 6.680032
v 10.150156 21.818130 5.000001
v 11.550183 3.617771 4.999999
v 9.701318 21.783604 3.319968
v 11.101345 3.583245 3.319965
v 8.475071 21.689278 2.090099
v 9.875098 3.488918 2.090096
v 6.799986 21.560425 1.639935
v 8.200014 3.360066 1.639932
v 5.124902 21.431572 2.090099
v 6.524929 3.231214 2.090096
v 3.898654 21.337246 3.319968
v 5.298682 3.136887 3.319965
v 3.449817 21.302719 5.000001
v 4.849844 3.102360 4.999999
v 3.898654 21.337246 6.680035
v 5.298682 3.136886 6.680032
v 5.124902 21.431572 7.909904
v 6.524929 3.231213 7.909902
s 0
f 1203 1204 1206 1205
f 1205 1206 1208 1207
f 1207 1208 1210 1209
f 1209 1210 1212 1211
f 1211 1212 1214 1213
f 1213 1214 1216 1215
f 1215 1216 1218 1217
f 1217 1218 1220 1219
f 1219 1220 1222 1221
f 1221 1222 1224 1223
f 1206 1204 1226 1224 1222 1220 1218 1216 1214 1212 1210 1208
f 1223 1224 1226 1225
f 1225 1226 1204 1203
f 1203 1205 1207 1209 1211 1213 1215 1217 1219 1221 1223 1225
o foot_7_5
v 8.000000 1.960038 8.500069
v 8.000000 3.545743 7.057289
v 8.000000 3.920077 5.000000
v 8.000000 3.824146 3.918419
v 8.000000 3.545743 2.942711
v 8.000000 2.565723 1.671236
v 8.000000 1.960038 1.499931
v 8.496684 2.519618 8.328764
v 8.944749 3.024423 7.831615
v 9.300335 3.425038 7.057289
v 9.528635 3.682249 6.081581
v 9.607302 3.770878 5.000000
v 9.528635 3.682249 3.918419
v 9.300335 3.425038 2.942711
v 8.944749 3.024423 2.168385
v 8.496684 2.519618 1.671236
v 8.917752 2.388322 8.328764
v 9.745667 2.774683 7.831615
v 10.402705 3.081300 7.057289
v 10.824550 3.278161 6.081581
v 10.969908 3.345994 5.000000
v 10.824550 3.278161 3.918419
v 10.402705 3.081300 2.942711
v 9.745667 2.774683 2.168385
v 8.917752 2.388322 1.671236
v 9.199100 2.191824 8.328764
v 10.280825 2.400921 7.831615
v 11.139286 2.566861 7.057289
v 11.690452 2.673401 6.081581
v 11.880371 2.710112 5.000000
v 11.690452 2.673401 3.918419
v 11.139286 2.566861 2.942711
v 10.280825 2.400921 2.168385
v 9.199100 2.191824 1.671236
v 9.297897 1.960038 8.328764
v 10.468746 1.960038 7.831615
v 11.397938 1.960038 7.057289
v 11.994516 1.960038 6.081581
v 12.200083 1.960038 5.000000
v 11.994516 1.960038 3.918419
v 11.397938 1.960038 2.942711
v 10.468746 1.960038 2.168385
v 9.297897 1.960038 1.671236
v 9.199100 1.728252 8.328764
v 10.280824 1.519155 7.831615
v 11.139285 1.353215 7.057289
v 11.690451 1.246675 6.081581
v 11.880370 1.209963 5.000000
v 11.690451 1.246675 3.918419
v 11.139285 1.353215 2.942711
v 10.280824 1.519155 2.168385
v 9.199100 1.728252 1.671236
v 8.917751 1.531754 8.328764
v 9.745667 1.145393 7.831615
v 10.402704 0.838776 7.057289
v 10.824549 0.641915 6.081581
v 10.969906 0.574081 5.000000
v 10.824549 0.641915 3.918419
v 10.402704 0.838776 2.942711
v 9.745667 1.145393 2.168385
v 8.917751 1.531754 1.671236
v 8.496683 1.400458 8.328764
v 8.944748 0.895653 7.831615
v 9.300334 0.495038 7.057289
v 9.528634 0.237827 6.081581
v 9.607301 0.149198 5.000000
v 9.528634 0.237827 3.918419
v 9.300334 0.495038 2.942711
v 8.944748 0.895653 2.168385
v 8.496683 1.400458 1.671236
v 8.000000 1.354353 8.328764
v 7.999999 0.807956 7.831615
v 7.999999 0.374334 7.057289
v 7.999999 0.095931 6.081581
v 7.999999 -0.000001 5.000000
v 7.999999 0.095931 3.918419
v 7.999999 0.374334 2.942711
v 7.999999 0.807956 2.168385
v 8.000000 1.354353 1.671236
v 7.503316 1.400458 8.328764
v 7.055251 0.895654 7.831615
v 6.699665 0.495039 7.057289
v 6.471364 0.237828 6.081581
v 6.392696 0.149199 5.000000
v 6.471364 0.237828 3.918419
v 6.699665 0.495039 2.942711
v 7.055251 0.895654 2.168385
v 7.503316 1.400458 1.671236
v 7.082248 1.531754 8.328764
v 6.254333 1.145394 7.831615
v 5.597295 0.838776 7.057289
v 5.175450 0.641916 6.081581
v 5.030092 0.574082 5.000000
v 5.175450 0.641916 3.918419
v 5.597295 0.838776 2.942711
v 6.254333 1.145394 2.168385
v 7.082248 1.531754 1.671236
v 6.800900 1.728253 8.328764
v 5.719175 1.519156 7.831615
v 4.860715 1.353216 7.057289
v 4.309548 1.246676 6.081581
v 4.119629 1.209965 5.000000
v 4.309548 1.246676 3.918419
v 4.860715 1.353216 2.942711
v 5.719175 1.519156 2.168385
v 6.800900 1.728253 1.671236
v 6.702103 1.960038 8.328764
v 5.531254 1.960039 7.831615
v 4.602063 1.960039 7.057289
v 4.005485 1.960039 6.081581
v 3.799917 1.960039 5.000000
v 4.005485 1.960039 3.918419
v 4.602063 1.960039 2.942711
v 5.531254 1.960039 2.168385
v 6.702103 1.960038 1.671236
v 6.800900 2.191824 8.328764
v 5.719176 2.400921 7.831615
v 4.860716 2.566861 7.057289
v 4.309550 2.673402 6.081581
v 4.119630 2.710113 5.000000
v 4.309550 2.673402 3.918419
v 4.860716 2.566861 2.942711
v 5.719176 2.400921 2.168385
v 6.800900 2.191824 1.671236
v 7.082249 2.388322 8.328764
v 6.254334 2.774683 7.831615
v 5.597297 3.081301 7.057289
v 5.175453 3.278162 6.081581
v 5.030095 3.345995 5.000000
v 5.175453 3.278162 3.918419
v 5.597297 3.081301 2.942711
v 6.254334 2.774683 2.168385
v 7.082249 2.388322 1.671236
v 7.503317 2.519619 8.328764
v 7.055253 3.024423 7.831615
v 6.699667 3.425038 7.057289
v 6.471367 3.682249 6.081581
v 6.392700 3.770878 5.000000
v 6.471367 3.682249 3.918419
v 6.699667 3.425038 2.942711
v 7.055253 3.024423 2.168385
v 7.503317 2.519619 1.671236
v 8.000001 2.565723 8.328764
v 8.000001 3.112119 7.831615
v 8.000002 3.824145 6.081581
v 8.000001 3.112119 2.168385
s 0
f 1228 1370 1235 1236
f 1233 1232 1242
f 1231 1230 1239 1240
f 1371 1228 1236 1237
f 1369 1227 1234
f 1372 1231 1240 1241
f 1229 1371 1237 1238
f 1370 1369 1234 1235
f 1232 1372 1241 1242
f 1230 1229 1238 1239
f 1236 1235 1244 1245
f 1233 1242 1251
f 1240 1239 1248 1249
f 1237 1236 1245 1246
f 1234 1227 1243
f 1241 1240 1249 1250
f 1238 1237 1246 1247
f 1235 1234 1243 1244
f 1242 1241 1250 1251
f 1239 1238 1247 1248
f 1248 1247 1256 1257
f 1245 1244 1253 1254
f 1233 1251 1260
f 1249 1248 1257 1258
f 1246 1245 1254 1255
f 1243 1227 1252
f 1250 1249 1258 1259
f 1247 1246 1255 1256
f 1244 1243 1252 1253
f 1251 1250 1259 1260
f 1253 1252 1261 1262
f 1260 1259 1268 1269
f 1257 1256 1265 1266
f 1254 1253 1262 1263
f 1233 1260 1269
f 1258 1257 1266 1267
f 1255 1254 1263 1264
f 1252 1227 1261
f 1259 1258 1267 1268
f 1256 1255 1264 1265
f 1268 1267 1276 1277
f 1265 1264 1273 1274
f 1262 1261 1270 1271
f 1269 1268 1277 1278
f 1266 1265 1274 1275
f 1263 1262 1271 1272
f 1233 1269 1278
f 1267 1266 1275 1276
f 1264 1263 1272 1273
f 1261 1227 1270
f 1273 1272 1281 1282
f 1270 1227 1279
f 1277 1276 1285 1286
f 1274 1273 1282 1283
f 1271 1270 1279 1280
f 1278 1277 1286 1287
f 1275 1274 1283 1284
f 1272 1271 1280 1281
f 1233 1278 1287
f 1276 1275 1284 1285
f 1285 1284 1293 1294
f 1282 1281 1290 1291
f 1279 1227 1288
f 1286 1285 1294 1295
f 1283 1282 1291 1292
f 1280 1279 1288 1289
f 1287 1286 1295 1296
f 1284 1283 1292 1293
f 1281 1280 1289 1290
f 1233 1287 1296
f 1290 1289 1298 1299
f 1233 1296 1305
f 1294 1293 1302 1303
f 1291 1290 1299 1300
f 1288 1227 1297
f 1295 1294 1303 1304
f 1292 1291 1300 1301
f 1289 1288 1297 1298
f 1296 1295 1304 1305
f 1293 1292 1301 1302
f 1305 1304 1313 1314
f 1302 1301 1310 1311
f 1299 1298 1307 1308
f 1233 1305 1314
f 1303 1302 1311 1312
f 1300 1299 1308 1309
f 1297 1227 1306
f 1304 1303 1312 1313
f 1301 1300 1309 1310
f 1298 1297 1306 1307
f 1310 1309 1318 1319
f 1307 1306 1315 1316
f 1314 1313 1322 1323
f 1311 1310 1319 1320
f 1308 1307 1316 1317
f 1233 1314 1323
f 1312 1311 1320 1321
f 1309 1308 1317 1318
f 1306 1227 1315
f 1313 1312 1321 1322
f 1315 1227 1324
f 1322 1321 1330 1331
f 1319 1318 1327 1328
f 1316 1315 1324 1325
f 1323 1322 1331 1332
f 1320 1319 1328 1329
f 1317 1316 1325 1326
f 1233 1323 1332
f 1321 1320 1329 1330
f 1318 1317 1326 1327
f 1327 1326 1335 1336
f 1324 1227 1333
f 1331 1330 1339 1340
f 1328 1327 1336 1337
f 1325 1324 1333 1334
f 1332 1331 1340 1341
f 1329 1328 1337 1338
f 1326 1325 1334 1335
f 1233 1332 1341
f 1330 1329 1338 1339
f 1233 1341 1350
f 1339 1338 1347 1348
f 1336 1335 1344 1345
f 1333 1227 1342
f 1340 1339 1348 1349
f 1337 1336 1345 1346
f 1334 1333 1342 1343
f 1341 1340 1349 1350
f 1338 1337 1346 1347
f 1335 1334 1343 1344
f 1347 1346 1355 1356
f 1344 1343 1352 1353
f 1233 1350 1359
f 1348 1347 1356 1357
f 1345 1344 1353 1354
f 1342 1227 1351
f 1349 1348 1357 1358
f 1346 1345 1354 1355
f 1343 1342 1351 1352
f 1350 1349 1358 1359
f 1352 1351 1360 1361
f 1359 1358 1367 1368
f 1356 1355 1364 1365
f 1353 1352 1361 1362
f 1233 1359 1368
f 1357 1356 1365 1366
f 1354 1353 1362 1363
f 1351 1227 1360
f 1358 1357 1366 1367
f 1355 1354 1363 1364
f 1364 1363 1371 1229
f 1361 1360 1369 1370
f 1368 1367 1372 1232
f 1365 1364 1229 1230
f 1362 1361 1370 1228
f 1233 1368 1232
f 1366 1365 1230 1231
f 1363 1362 1228 1371
f 1360 1227 1369
f 1367 1366 1231 1372
