# Blender 5.2.2 LTS
# www.blender.org
o continuous_tapered_hull
v -18.892988 3.778598 0.000000
v -18.892988 0.000000 0.000000
v -18.892988 3.778598 0.000000
v -15.350553 2.361624 -5.904059
v -15.350553 0.000000 0.000000
v -15.350553 2.361624 5.904059
v -8.265682 1.416974 -8.265682
v -8.265682 0.000000 0.000000
v -8.265682 1.416974 8.265682
v 8.265682 1.416974 -8.265682
v 8.265682 0.000000 0.000000
v 8.265682 1.416974 8.265682
v 16.531364 2.833948 -5.904059
v 16.531364 0.000000 0.000000
v 16.531364 2.833948 5.904059
v 20.073799 4.959409 0.000000
v 20.073799 0.236162 0.000000
v 20.073799 4.959409 0.000000
s 0
f 1 4 5 2
f 2 5 6 3
f 1 3 6 4
f 4 7 8 5
f 5 8 9 6
f 4 6 9 7
f 7 10 11 8
f 8 11 12 9
f 7 9 12 10
f 10 13 14 11
f 11 14 15 12
f 10 12 15 13
f 13 16 17 14
f 14 17 18 15
f 13 15 18 16
f 1 2 3
f 16 17 18
o deck
v -15.940959 6.553505 -7.675276
v -15.940959 6.553505 7.675276
v -15.940959 8.560885 -7.675276
v -15.940959 8.560885 7.675276
v 15.940959 6.553505 -7.675276
v 15.940959 6.553505 7.675276
v 15.940959 8.560885 -7.675276
v 15.940959 8.560885 7.675276
s 0
f 19 20 22 21
f 21 22 26 25
f 25 26 24 23
f 23 24 20 19
f 21 25 23 19
f 26 22 20 24
o front_rail
v -15.350553 8.147601 -7.149446
v -15.350553 8.147601 -5.850554
v -15.350553 10.509225 -7.149446
v -15.350553 10.509225 -5.850554
v 15.350553 8.147601 -7.149446
v 15.350553 8.147601 -5.850554
v 15.350553 10.509225 -7.149446
v 15.350553 10.509225 -5.850554
s 0
f 27 28 30 29
f 29 30 34 33
f 33 34 32 31
f 31 32 28 27
f 29 33 31 27
f 34 30 28 32
o mast
v 0.000000 63.999996 1.594097
v 0.000000 7.321033 1.594095
v 0.797048 63.999996 1.380529
v 0.797048 7.321033 1.380526
v 1.380527 63.999996 0.797049
v 1.380527 7.321033 0.797047
v 1.594096 63.999996 0.000001
v 1.594096 7.321033 -0.000001
v 1.380527 63.999996 -0.797047
v 1.380527 7.321033 -0.797049
v 0.797048 63.999996 -1.380526
v 0.797048 7.321033 -1.380529
v 0.000000 63.999996 -1.594095
v 0.000000 7.321033 -1.594097
v -0.797048 63.999996 -1.380526
v -0.797048 7.321033 -1.380529
v -1.380527 63.999996 -0.797047
v -1.380527 7.321033 -0.797049
v -1.594096 63.999996 0.000001
v -1.594096 7.321033 -0.000001
v -1.380527 63.999996 0.797049
v -1.380527 7.321033 0.797047
v -0.797048 63.999996 1.380529
v -0.797048 7.321033 1.380526
s 0
f 35 36 38 37
f 37 38 40 39
f 39 40 42 41
f 41 42 44 43
f 43 44 46 45
f 45 46 48 47
f 47 48 50 49
f 49 50 52 51
f 51 52 54 53
f 53 54 56 55
f 38 36 58 56 54 52 50 48 46 44 42 40
f 55 56 58 57
f 57 58 36 35
f 35 37 39 41 43 45 47 49 51 53 55 57
o yard
v -17.121771 43.217712 -0.708487
v -17.121771 43.217712 0.708487
v -17.121771 44.634689 -0.708487
v -17.121771 44.634689 0.708487
v 17.121771 43.217712 -0.708487
v 17.121771 43.217712 0.708487
v 17.121771 44.634689 -0.708487
v 17.121771 44.634689 0.708487
s 0
f 59 60 62 61
f 61 62 66 65
f 65 66 64 63
f 63 64 60 59
f 61 65 63 59
f 66 62 60 64
o lower_sail
v -8.265682 9.682657 0.000000
v 8.265682 9.682657 0.000000
v 7.084870 38.022137 0.000000
v -7.084870 38.022137 0.000000
s 0
f 67 68 69 70
o upper_sail
v -5.904059 42.745384 0.000000
v 5.904059 42.745384 0.000000
v 5.313653 59.276749 0.000000
v -5.313653 59.276749 0.000000
s 0
f 71 72 73 74
