# Blender 5.2.2 LTS
# www.blender.org
o ground_floor_walls
v -17.884096 0.000000 -11.922730
v -17.884096 0.000000 11.922730
v -17.884096 29.806826 -11.922730
v -17.884096 29.806826 11.922730
v 17.884096 0.000000 -11.922730
v 17.884096 0.000000 11.922730
v 17.884096 29.806826 -11.922730
v 17.884096 29.806826 11.922730
s 0
f 1 2 4 3
f 3 4 8 7
f 7 8 6 5
f 5 6 2 1
f 3 7 5 1
f 8 4 2 6
o upper_floor_walls
v -16.393755 27.571316 -11.177560
v -16.393755 27.571316 11.177560
v -16.393755 54.397457 -11.177560
v -16.393755 54.397457 11.177560
v 16.393755 27.571316 -11.177560
v 16.393755 27.571316 11.177560
v 16.393755 54.397457 -11.177560
v 16.393755 54.397457 11.177560
s 0
f 9 10 12 11
f 11 12 16 15
f 15 16 14 13
f 13 14 10 9
f 11 15 13 9
f 16 12 10 14
o front_door
v -2.533580 0.149034 -8.622585
v -2.533580 0.149034 -7.877415
v -2.533580 10.581423 -8.622585
v -2.533580 10.581423 -7.877415
v 2.533580 0.149034 -8.622585
v 2.533580 0.149034 -7.877415
v 2.533580 10.581423 -8.622585
v 2.533580 10.581423 -7.877415
s 0
f 17 18 20 19
f 19 20 24 23
f 23 24 22 21
f 21 22 18 17
f 19 23 21 17
f 24 20 18 22
o ground_window_-7
v -10.129717 14.754379 -8.747103
v -10.129717 14.754379 -7.852898
v -10.129717 21.013813 -8.747103
v -10.129717 21.013813 -7.852898
v -3.870283 14.754379 -8.747103
v -3.870283 14.754379 -7.852898
v -3.870283 21.013813 -8.747103
v -3.870283 21.013813 -7.852898
s 0
f 25 26 28 27
f 27 28 32 31
f 31 32 30 29
f 29 30 26 25
f 27 31 29 25
f 32 28 26 30
o upper_window_-7
v -10.129717 40.090183 -9.747103
v -10.129717 40.090183 -8.852898
v -10.129717 46.349613 -9.747103
v -10.129717 46.349613 -8.852898
v -3.870283 40.090183 -9.747103
v -3.870283 40.090183 -8.852898
v -3.870283 46.349613 -9.747103
v -3.870283 46.349613 -8.852898
s 0
f 33 34 36 35
f 35 36 40 39
f 39 40 38 37
f 37 38 34 33
f 35 39 37 33
f 40 36 34 38
o ground_window_7
v 3.870283 14.754379 -8.747103
v 3.870283 14.754379 -7.852898
v 3.870283 21.013813 -8.747103
v 3.870283 21.013813 -7.852898
v 10.129717 14.754379 -8.747103
v 10.129717 14.754379 -7.852898
v 10.129717 21.013813 -8.747103
v 10.129717 21.013813 -7.852898
s 0
f 41 42 44 43
f 43 44 48 47
f 47 48 46 45
f 45 46 42 41
f 43 47 45 41
f 48 44 42 46
o upper_window_7
v 3.870283 40.090183 -9.747103
v 3.870283 40.090183 -8.852898
v 3.870283 46.349613 -9.747103
v 3.870283 46.349613 -8.852898
v 10.129717 40.090183 -9.747103
v 10.129717 40.090183 -8.852898
v 10.129717 46.349613 -9.747103
v 10.129717 46.349613 -8.852898
s 0
f 49 50 52 51
f 51 52 56 55
f 55 56 54 53
f 53 54 50 49
f 51 55 53 49
f 56 52 50 54
o left_roof
v -15.694365 49.265938 -17.884096
v -15.694365 49.265938 17.884096
v -17.563923 52.315262 -17.884096
v -17.563923 52.315262 17.884096
v 3.363924 60.950676 -17.884096
v 3.363924 60.950676 17.884096
v 1.494365 64.000000 -17.884096
v 1.494365 64.000000 17.884096
s 0
f 57 58 60 59
f 59 60 64 63
f 63 64 62 61
f 61 62 58 57
f 59 63 61 57
f 64 60 58 62
o right_roof
v -3.363924 60.950676 -17.884096
v -3.363924 60.950676 17.884096
v -1.494365 64.000000 -17.884096
v -1.494365 64.000000 17.884096
v 15.694365 49.265938 -17.884096
v 15.694365 49.265938 17.884096
v 17.563923 52.315262 -17.884096
v 17.563923 52.315262 17.884096
s 0
f 65 66 68 67
f 67 68 72 71
f 71 72 70 69
f 69 70 66 65
f 67 71 69 65
f 72 68 66 70
