# Blender 5.2.2 LTS
# www.blender.org
o monument_base
v -13.096086 0.000000 -10.249110
v -13.096086 0.000000 10.249110
v -13.096086 6.832740 -10.249110
v -13.096086 6.832740 10.249110
v 13.096086 0.000000 -10.249110
v 13.096086 0.000000 10.249110
v 13.096086 6.832740 -10.249110
v 13.096086 6.832740 10.249110
s 0
f 1 2 4 3
f 3 4 8 7
f 7 8 6 5
f 5 6 2 1
f 3 7 5 1
f 8 4 2 6
o upper_step
v -10.249110 6.832740 -7.971530
v -10.249110 6.832740 7.971530
v -10.249110 10.249110 -7.971530
v -10.249110 10.249110 7.971530
v 10.249110 6.832740 -7.971530
v 10.249110 6.832740 7.971530
v 10.249110 10.249110 -7.971530
v 10.249110 10.249110 7.971530
s 0
f 9 10 12 11
f 11 12 16 15
f 15 16 14 13
f 13 14 10 9
f 11 15 13 9
f 16 12 10 14
o torso
v 0.000000 35.302490 5.352313
v 0.000000 45.436794 3.146011
v 0.000000 47.829182 0.000000
v 0.000000 47.216080 -1.653956
v 0.000000 45.436794 -3.146011
v 0.000000 39.173450 -5.090352
v 0.000000 35.302490 -5.352313
v 0.861878 38.878792 5.090352
v 1.639389 42.105019 4.330112
v 2.256425 44.665367 3.146011
v 2.652587 46.309212 1.653956
v 2.789095 46.875641 0.000000
v 2.652587 46.309212 -1.653956
v 2.256425 44.665367 -3.146011
v 1.639389 42.105019 -4.330112
v 0.861878 38.878792 -5.090352
v 1.592543 38.039673 5.090352
v 3.029196 40.508919 4.330112
v 4.169330 42.468525 3.146011
v 4.901342 43.726669 1.653956
v 5.153575 44.160198 0.000000
v 4.901342 43.726669 -1.653956
v 4.169330 42.468525 -3.146011
v 3.029196 40.508919 -4.330112
v 1.592543 38.039673 -5.090352
v 2.080757 36.783844 5.090352
v 3.957835 38.120190 4.330112
v 5.447492 39.180717 3.146011
v 6.403911 39.861622 1.653956
v 6.733471 40.096245 0.000000
v 6.403911 39.861622 -1.653956
v 5.447492 39.180717 -3.146011
v 3.957835 38.120190 -4.330112
v 2.080757 36.783844 -5.090352
v 2.252195 35.302490 5.090352
v 4.283929 35.302490 4.330112
v 5.896322 35.302490 3.146011
v 6.931543 35.302490 1.653956
v 7.288256 35.302490 0.000000
v 6.931543 35.302490 -1.653956
v 5.896322 35.302490 -3.146011
v 4.283929 35.302490 -4.330112
v 2.252195 35.302490 -5.090352
v 2.080757 33.821136 5.090352
v 3.957834 32.484791 4.330112
v 5.447491 31.424259 3.146011
v 6.403910 30.743355 1.653956
v 6.733470 30.508732 0.000000
v 6.403910 30.743355 -1.653956
v 5.447491 31.424259 -3.146011
v 3.957834 32.484791 -4.330112
v 2.080757 33.821136 -5.090352
v 1.592542 32.565308 5.090352
v 3.029194 30.096060 4.330112
v 4.169329 28.136454 3.146011
v 4.901340 26.878309 1.653956
v 5.153574 26.444780 0.000000
v 4.901340 26.878309 -1.653956
v 4.169329 28.136454 -3.146011
v 3.029194 30.096060 -4.330112
v 1.592542 32.565308 -5.090352
v 0.861877 31.726189 5.090352
v 1.639387 28.499962 4.330112
v 2.256423 25.939615 3.146011
v 2.652585 24.295769 1.653956
v 2.789093 23.729336 0.000000
v 2.652585 24.295769 -1.653956
v 2.256423 25.939615 -3.146011
v 1.639387 28.499962 -4.330112
v 0.861877 31.726189 -5.090352
v -0.000001 31.431530 5.090352
v -0.000001 27.939487 4.330112
v -0.000002 25.168188 3.146011
v -0.000002 23.388901 1.653956
v -0.000003 22.775799 0.000000
v -0.000002 23.388901 -1.653956
v -0.000002 25.168188 -3.146011
v -0.000001 27.939487 -4.330112
v -0.000001 31.431530 -5.090352
v -0.861878 31.726189 5.090352
v -1.639390 28.499966 4.330112
v -2.256426 25.939617 3.146011
v -2.652588 24.295773 1.653956
v -2.789098 23.729340 0.000000
v -2.652588 24.295773 -1.653956
v -2.256426 25.939617 -3.146011
v -1.639390 28.499966 -4.330112
v -0.861878 31.726189 -5.090352
v -1.592543 32.565308 5.090352
v -3.029196 30.096064 4.330112
v -4.169330 28.136459 3.146011
v -4.901342 26.878315 1.653956
v -5.153578 26.444786 0.000000
v -4.901342 26.878315 -1.653956
v -4.169330 28.136459 -3.146011
v -3.029196 30.096064 -4.330112
v -1.592543 32.565308 -5.090352
v -2.080757 33.821140 5.090352
v -3.957834 32.484795 4.330112
v -5.447491 31.424265 3.146011
v -6.403911 30.743362 1.653956
v -6.733471 30.508739 0.000000
v -6.403911 30.743362 -1.653956
v -5.447491 31.424265 -3.146011
v -3.957834 32.484795 -4.330112
v -2.080757 33.821140 -5.090352
v -2.252195 35.302490 5.090352
v -4.283928 35.302494 4.330112
v -5.896321 35.302494 3.146011
v -6.931541 35.302494 1.653956
v -7.288256 35.302498 0.000000
v -6.931541 35.302494 -1.653956
v -5.896321 35.302494 -3.146011
v -4.283928 35.302494 -4.330112
v -2.252195 35.302490 -5.090352
v -2.080757 36.783844 5.090352
v -3.957833 38.120193 4.330112
v -5.447489 39.180725 3.146011
v -6.403908 39.861629 1.653956
v -6.733469 40.096252 0.000000
v -6.403908 39.861629 -1.653956
v -5.447489 39.180725 -3.146011
v -3.957833 38.120193 -4.330112
v -2.080757 36.783844 -5.090352
v -1.592542 38.039673 5.090352
v -3.029193 40.508919 4.330112
v -4.169326 42.468525 3.146011
v -4.901338 43.726673 1.653956
v -5.153572 44.160202 0.000000
v -4.901338 43.726673 -1.653956
v -4.169326 42.468525 -3.146011
v -3.029193 40.508919 -4.330112
v -1.592542 38.039673 -5.090352
v -0.861877 38.878792 5.090352
v -1.639386 42.105019 4.330112
v -2.256422 44.665363 3.146011
v -2.652583 46.309212 1.653956
v -2.789091 46.875645 0.000000
v -2.652583 46.309212 -1.653956
v -2.256422 44.665363 -3.146011
v -1.639386 42.105019 -4.330112
v -0.861877 38.878792 -5.090352
v 0.000001 39.173450 5.090352
v 0.000002 42.665489 4.330112
v 0.000004 47.216076 1.653956
v 0.000002 42.665489 -4.330112
s 0
f 159 17 24
f 162 21 30 31
f 19 161 27 28
f 160 159 24 25
f 22 162 31 32
f 20 19 28 29
f 18 160 25 26
f 23 22 32
f 21 20 29 30
f 161 18 26 27
f 31 30 39 40
f 28 27 36 37
f 25 24 33 34
f 32 31 40 41
f 29 28 37 38
f 26 25 34 35
f 23 32 41
f 30 29 38 39
f 27 26 35 36
f 24 17 33
f 36 35 44 45
f 33 17 42
f 40 39 48 49
f 37 36 45 46
f 34 33 42 43
f 41 40 49 50
f 38 37 46 47
f 35 34 43 44
f 23 41 50
f 39 38 47 48
f 48 47 56 57
f 45 44 53 54
f 42 17 51
f 49 48 57 58
f 46 45 54 55
f 43 42 51 52
f 50 49 58 59
f 47 46 55 56
f 44 43 52 53
f 23 50 59
f 53 52 61 62
f 23 59 68
f 57 56 65 66
f 54 53 62 63
f 51 17 60
f 58 57 66 67
f 55 54 63 64
f 52 51 60 61
f 59 58 67 68
f 56 55 64 65
f 68 67 76 77
f 65 64 73 74
f 62 61 70 71
f 23 68 77
f 66 65 74 75
f 63 62 71 72
f 60 17 69
f 67 66 75 76
f 64 63 72 73
f 61 60 69 70
f 73 72 81 82
f 70 69 78 79
f 77 76 85 86
f 74 73 82 83
f 71 70 79 80
f 23 77 86
f 75 74 83 84
f 72 71 80 81
f 69 17 78
f 76 75 84 85
f 78 17 87
f 85 84 93 94
f 82 81 90 91
f 79 78 87 88
f 86 85 94 95
f 83 82 91 92
f 80 79 88 89
f 23 86 95
f 84 83 92 93
f 81 80 89 90
f 90 89 98 99
f 87 17 96
f 94 93 102 103
f 91 90 99 100
f 88 87 96 97
f 95 94 103 104
f 92 91 100 101
f 89 88 97 98
f 23 95 104
f 93 92 101 102
f 23 104 113
f 102 101 110 111
f 99 98 107 108
f 96 17 105
f 103 102 111 112
f 100 99 108 109
f 97 96 105 106
f 104 103 112 113
f 101 100 109 110
f 98 97 106 107
f 110 109 118 119
f 107 106 115 116
f 23 113 122
f 111 110 119 120
f 108 107 116 117
f 105 17 114
f 112 111 120 121
f 109 108 117 118
f 106 105 114 115
f 113 112 121 122
f 115 114 123 124
f 122 121 130 131
f 119 118 127 128
f 116 115 124 125
f 23 122 131
f 120 119 128 129
f 117 116 125 126
f 114 17 123
f 121 120 129 130
f 118 117 126 127
f 127 126 135 136
f 124 123 132 133
f 131 130 139 140
f 128 127 136 137
f 125 124 133 134
f 23 131 140
f 129 128 137 138
f 126 125 134 135
f 123 17 132
f 130 129 138 139
f 132 17 141
f 139 138 147 148
f 136 135 144 145
f 133 132 141 142
f 140 139 148 149
f 137 136 145 146
f 134 133 142 143
f 23 140 149
f 138 137 146 147
f 135 134 143 144
f 147 146 155 156
f 144 143 152 153
f 141 17 150
f 148 147 156 157
f 145 144 153 154
f 142 141 150 151
f 149 148 157 158
f 146 145 154 155
f 143 142 151 152
f 23 149 158
f 152 151 160 18
f 23 158 22
f 156 155 20 21
f 153 152 18 161
f 150 17 159
f 157 156 21 162
f 154 153 161 19
f 151 150 159 160
f 158 157 162 22
f 155 154 19 20
o neck
v 0.000000 51.814945 3.416370
v 0.000000 46.120995 3.416370
v 1.307388 51.814945 3.156314
v 1.307388 46.120995 3.156314
v 2.415738 51.814945 2.415739
v 2.415738 46.120998 2.415738
v 3.156314 51.814945 1.307388
v 3.156314 46.120998 1.307388
v 3.416370 51.814945 0.000000
v 3.416370 46.120998 -0.000000
v 3.156314 51.814945 -1.307388
v 3.156314 46.120998 -1.307388
v 2.415738 51.814945 -2.415738
v 2.415738 46.120998 -2.415739
v 1.307388 51.814949 -3.156314
v 1.307388 46.120998 -3.156314
v 0.000000 51.814949 -3.416370
v 0.000000 46.120998 -3.416370
v -1.307388 51.814949 -3.156314
v -1.307388 46.120998 -3.156314
v -2.415738 51.814945 -2.415738
v -2.415738 46.120998 -2.415739
v -3.156314 51.814945 -1.307388
v -3.156314 46.120998 -1.307388
v -3.416370 51.814945 0.000000
v -3.416370 46.120998 -0.000000
v -3.156314 51.814945 1.307388
v -3.156314 46.120998 1.307388
v -2.415738 51.814945 2.415739
v -2.415738 46.120998 2.415738
v -1.307388 51.814945 3.156314
v -1.307388 46.120995 3.156314
s 0
f 163 164 166 165
f 165 166 168 167
f 167 168 170 169
f 169 170 172 171
f 171 172 174 173
f 173 174 176 175
f 175 176 178 177
f 177 178 180 179
f 179 180 182 181
f 181 182 184 183
f 183 184 186 185
f 185 186 188 187
f 187 188 190 189
f 189 190 192 191
f 166 164 194 192 190 188 186 184 182 180 178 176 174 172 170 168
f 191 192 194 193
f 193 194 164 163
f 163 165 167 169 171 173 175 177 179 181 183 185 187 189 191 193
o head
v 0.000000 58.078293 5.124555
v 0.000000 62.869057 3.012138
v 0.000000 64.000000 0.000000
v 0.000000 63.710171 -1.583575
v 0.000000 62.869057 -3.012138
v 0.000000 59.908203 -4.873742
v 0.000000 58.078293 -5.124555
v 0.646408 59.768909 4.873742
v 1.229542 61.294033 4.145852
v 1.692319 62.504379 3.012138
v 1.989440 63.281471 1.583575
v 2.091821 63.549236 0.000000
v 1.989440 63.281471 -1.583575
v 1.692319 62.504379 -3.012138
v 1.229542 61.294033 -4.145852
v 0.646408 59.768909 -4.873742
v 1.194407 59.372234 4.873742
v 2.271897 60.539513 4.145852
v 3.126998 61.465874 3.012138
v 3.676006 62.060631 1.583575
v 3.865182 62.265572 0.000000
v 3.676006 62.060631 -1.583575
v 3.126998 61.465874 -3.012138
v 2.271897 60.539513 -4.145852
v 1.194407 59.372234 -4.873742
v 1.560568 58.778568 4.873742
v 2.968376 59.410297 4.145852
v 4.085619 59.911636 3.012138
v 4.802933 60.233521 1.583575
v 5.050104 60.344433 0.000000
v 4.802933 60.233521 -1.583575
v 4.085619 59.911636 -3.012138
v 2.968376 59.410297 -4.145852
v 1.560568 58.778568 -4.873742
v 1.689146 58.078293 4.873742
v 3.212947 58.078293 4.145852
v 4.422242 58.078293 3.012138
v 5.198658 58.078293 1.583575
v 5.466192 58.078293 0.000000
v 5.198658 58.078293 -1.583575
v 4.422242 58.078293 -3.012138
v 3.212947 58.078293 -4.145852
v 1.689146 58.078293 -4.873742
v 1.560567 57.378017 4.873742
v 2.968375 56.746288 4.145852
v 4.085618 56.244946 3.012138
v 4.802933 55.923065 1.583575
v 5.050103 55.812153 0.000000
v 4.802933 55.923065 -1.583575
v 4.085618 56.244946 -3.012138
v 2.968375 56.746288 -4.145852
v 1.560567 57.378017 -4.873742
v 1.194407 56.784351 4.873742
v 2.271896 55.617073 4.145852
v 3.126996 54.690712 3.012138
v 3.676005 54.095951 1.583575
v 3.865181 53.891014 0.000000
v 3.676005 54.095951 -1.583575
v 3.126996 54.690712 -3.012138
v 2.271896 55.617073 -4.145852
v 1.194407 56.784351 -4.873742
v 0.646408 56.387676 4.873742
v 1.229541 54.862553 4.145852
v 1.692317 53.652206 3.012138
v 1.989439 52.875114 1.583575
v 2.091820 52.607346 0.000000
v 1.989439 52.875114 -1.583575
v 1.692317 53.652206 -3.012138
v 1.229541 54.862553 -4.145852
v 0.646408 56.387676 -4.873742
v -0.000000 56.248383 4.873742
v -0.000001 54.597603 4.145852
v -0.000001 53.287533 3.012138
v -0.000001 52.446415 1.583575
v -0.000002 52.156586 0.000000
v -0.000001 52.446415 -1.583575
v -0.000001 53.287533 -3.012138
v -0.000001 54.597603 -4.145852
v -0.000000 56.248383 -4.873742
v -0.646409 56.387680 4.873742
v -1.229542 54.862553 4.145852
v -1.692320 53.652206 3.012138
v -1.989441 52.875118 1.583575
v -2.091823 52.607349 0.000000
v -1.989441 52.875118 -1.583575
v -1.692320 53.652206 -3.012138
v -1.229542 54.862553 -4.145852
v -0.646409 56.387680 -4.873742
v -1.194407 56.784351 4.873742
v -2.271897 55.617073 4.145852
v -3.126998 54.690716 3.012138
v -3.676007 54.095955 1.583575
v -3.865183 53.891014 0.000000
v -3.676007 54.095955 -1.583575
v -3.126998 54.690716 -3.012138
v -2.271897 55.617073 -4.145852
v -1.194407 56.784351 -4.873742
v -1.560568 57.378017 4.873742
v -2.968376 56.746292 4.145852
v -4.085618 56.244949 3.012138
v -4.802933 55.923069 1.583575
v -5.050104 55.812157 0.000000
v -4.802933 55.923069 -1.583575
v -4.085618 56.244949 -3.012138
v -2.968376 56.746292 -4.145852
v -1.560568 57.378017 -4.873742
v -1.689147 58.078293 4.873742
v -3.212946 58.078293 4.145852
v -4.422241 58.078297 3.012138
v -5.198656 58.078297 1.583575
v -5.466192 58.078297 0.000000
v -5.198656 58.078297 -1.583575
v -4.422241 58.078297 -3.012138
v -3.212946 58.078293 -4.145852
v -1.689147 58.078293 -4.873742
v -1.560567 58.778568 4.873742
v -2.968375 59.410297 4.145852
v -4.085617 59.911640 3.012138
v -4.802931 60.233521 1.583575
v -5.050102 60.344437 0.000000
v -4.802931 60.233521 -1.583575
v -4.085617 59.911640 -3.012138
v -2.968375 59.410297 -4.145852
v -1.560567 58.778568 -4.873742
v -1.194406 59.372234 4.873742
v -2.271895 60.539513 4.145852
v -3.126995 61.465874 3.012138
v -3.676003 62.060635 1.583575
v -3.865179 62.265575 0.000000
v -3.676003 62.060635 -1.583575
v -3.126995 61.465874 -3.012138
v -2.271895 60.539513 -4.145852
v -1.194406 59.372234 -4.873742
v -0.646408 59.768909 4.873742
v -1.229540 61.294033 4.145852
v -1.692316 62.504379 3.012138
v -1.989437 63.281471 1.583575
v -2.091818 63.549240 0.000000
v -1.989437 63.281471 -1.583575
v -1.692316 62.504379 -3.012138
v -1.229540 61.294033 -4.145852
v -0.646408 59.768909 -4.873742
v 0.000001 59.908203 4.873742
v 0.000002 61.558983 4.145852
v 0.000003 63.710171 1.583575
v 0.000002 61.558983 -4.145852
s 0
f 337 195 202
f 340 199 208 209
f 197 339 205 206
f 338 337 202 203
f 200 340 209 210
f 198 197 206 207
f 196 338 203 204
f 201 200 210
f 199 198 207 208
f 339 196 204 205
f 209 208 217 218
f 206 205 214 215
f 203 202 211 212
f 210 209 218 219
f 207 206 215 216
f 204 203 212 213
f 201 210 219
f 208 207 216 217
f 205 204 213 214
f 202 195 211
f 214 213 222 223
f 211 195 220
f 218 217 226 227
f 215 214 223 224
f 212 211 220 221
f 219 218 227 228
f 216 215 224 225
f 213 212 221 222
f 201 219 228
f 217 216 225 226
f 226 225 234 235
f 223 222 231 232
f 220 195 229
f 227 226 235 236
f 224 223 232 233
f 221 220 229 230
f 228 227 236 237
f 225 224 233 234
f 222 221 230 231
f 201 228 237
f 231 230 239 240
f 201 237 246
f 235 234 243 244
f 232 231 240 241
f 229 195 238
f 236 235 244 245
f 233 232 241 242
f 230 229 238 239
f 237 236 245 246
f 234 233 242 243
f 246 245 254 255
f 243 242 251 252
f 240 239 248 249
f 201 246 255
f 244 243 252 253
f 241 240 249 250
f 238 195 247
f 245 244 253 254
f 242 241 250 251
f 239 238 247 248
f 251 250 259 260
f 248 247 256 257
f 255 254 263 264
f 252 251 260 261
f 249 248 257 258
f 201 255 264
f 253 252 261 262
f 250 249 258 259
f 247 195 256
f 254 253 262 263
f 256 195 265
f 263 262 271 272
f 260 259 268 269
f 257 256 265 266
f 264 263 272 273
f 261 260 269 270
f 258 257 266 267
f 201 264 273
f 262 261 270 271
f 259 258 267 268
f 268 267 276 277
f 265 195 274
f 272 271 280 281
f 269 268 277 278
f 266 265 274 275
f 273 272 281 282
f 270 269 278 279
f 267 266 275 276
f 201 273 282
f 271 270 279 280
f 201 282 291
f 280 279 288 289
f 277 276 285 286
f 274 195 283
f 281 280 289 290
f 278 277 286 287
f 275 274 283 284
f 282 281 290 291
f 279 278 287 288
f 276 275 284 285
f 288 287 296 297
f 285 284 293 294
f 201 291 300
f 289 288 297 298
f 286 285 294 295
f 283 195 292
f 290 289 298 299
f 287 286 295 296
f 284 283 292 293
f 291 290 299 300
f 293 292 301 302
f 300 299 308 309
f 297 296 305 306
f 294 293 302 303
f 201 300 309
f 298 297 306 307
f 295 294 303 304
f 292 195 301
f 299 298 307 308
f 296 295 304 305
f 305 304 313 314
f 302 301 310 311
f 309 308 317 318
f 306 305 314 315
f 303 302 311 312
f 201 309 318
f 307 306 315 316
f 304 303 312 313
f 301 195 310
f 308 307 316 317
f 310 195 319
f 317 316 325 326
f 314 313 322 323
f 311 310 319 320
f 318 317 326 327
f 315 314 323 324
f 312 311 320 321
f 201 318 327
f 316 315 324 325
f 313 312 321 322
f 325 324 333 334
f 322 321 330 331
f 319 195 328
f 326 325 334 335
f 323 322 331 332
f 320 319 328 329
f 327 326 335 336
f 324 323 332 333
f 321 320 329 330
f 201 327 336
f 330 329 338 196
f 201 336 200
f 334 333 198 199
f 331 330 196 339
f 328 195 337
f 335 334 199 340
f 332 331 339 197
f 329 328 337 338
f 336 335 340 200
f 333 332 197 198
o brow
v -3.985765 60.868324 -4.569395
v -3.985765 60.868324 -3.430605
v -3.985765 62.120995 -4.569395
v -3.985765 62.120995 -3.430605
v 3.985765 60.868324 -4.569395
v 3.985765 60.868324 -3.430605
v 3.985765 62.120995 -4.569395
v 3.985765 62.120995 -3.430605
s 0
f 341 342 344 343
f 343 344 348 347
f 347 348 346 345
f 345 346 342 341
f 343 347 345 341
f 348 344 342 346
o left_arm
v -4.653025 44.412811 2.391457
v -10.346974 26.192169 2.391461
v -3.511725 44.056152 2.071062
v -9.205675 25.835514 2.071066
v -2.676236 43.795063 1.195728
v -8.370185 25.574425 1.195731
v -2.370426 43.699497 -0.000002
v -8.064375 25.478859 0.000002
v -2.676236 43.795063 -1.195731
v -8.370186 25.574425 -1.195728
v -3.511726 44.056152 -2.071066
v -9.205675 25.835514 -2.071062
v -4.653026 44.412811 -2.391461
v -10.346975 26.192169 -2.391457
v -5.794325 44.769466 -2.071066
v -11.488275 26.548826 -2.071062
v -6.629815 45.030556 -1.195731
v -12.323764 26.809917 -1.195728
v -6.935625 45.126122 -0.000002
v -12.629574 26.905483 0.000002
v -6.629815 45.030556 1.195728
v -12.323764 26.809917 1.195731
v -5.794325 44.769466 2.071062
v -11.488275 26.548826 2.071066
s 0
f 349 350 352 351
f 351 352 354 353
f 353 354 356 355
f 355 356 358 357
f 357 358 360 359
f 359 360 362 361
f 361 362 364 363
f 363 364 366 365
f 365 366 368 367
f 367 368 370 369
f 352 350 372 370 368 366 364 362 360 358 356 354
f 369 370 372 371
f 371 372 350 349
f 349 351 353 355 357 359 361 363 365 367 369 371
o right_arm
v 4.653025 44.412811 2.391457
v 10.346974 26.192169 2.391461
v 5.794325 44.769466 2.071062
v 11.488275 26.548826 2.071066
v 6.629815 45.030556 1.195728
v 12.323764 26.809917 1.195731
v 6.935625 45.126122 -0.000002
v 12.629574 26.905483 0.000002
v 6.629815 45.030556 -1.195731
v 12.323764 26.809917 -1.195728
v 5.794325 44.769466 -2.071066
v 11.488275 26.548826 -2.071062
v 4.653026 44.412811 -2.391461
v 10.346975 26.192169 -2.391457
v 3.511726 44.056152 -2.071066
v 9.205675 25.835514 -2.071062
v 2.676236 43.795063 -1.195731
v 8.370186 25.574425 -1.195728
v 2.370426 43.699497 -0.000002
v 8.064375 25.478859 0.000002
v 2.676236 43.795063 1.195728
v 8.370185 25.574425 1.195731
v 3.511725 44.056152 2.071062
v 9.205675 25.835514 2.071066
s 0
f 373 374 376 375
f 375 376 378 377
f 377 378 380 379
f 379 380 382 381
f 381 382 384 383
f 383 384 386 385
f 385 386 388 387
f 387 388 390 389
f 389 390 392 391
f 391 392 394 393
f 376 374 396 394 392 390 388 386 384 382 380 378
f 393 394 396 395
f 395 396 374 373
f 373 375 377 379 381 383 385 387 389 391 393 395
o left_leg
v -3.465302 22.775799 2.960855
v -4.034698 11.387899 2.960853
v -1.986723 22.701870 2.564176
v -2.556118 11.313971 2.564174
v -0.904327 22.647751 1.480428
v -1.473722 11.259851 1.480426
v -0.508143 22.627941 0.000001
v -1.077538 11.240042 -0.000001
v -0.904327 22.647751 -1.480426
v -1.473722 11.259851 -1.480428
v -1.986723 22.701872 -2.564174
v -2.556118 11.313972 -2.564176
v -3.465302 22.775801 -2.960853
v -4.034698 11.387901 -2.960855
v -4.943882 22.849730 -2.564174
v -5.513278 11.461830 -2.564176
v -6.026278 22.903849 -1.480426
v -6.595673 11.515949 -1.480428
v -6.422462 22.923658 0.000001
v -6.991858 11.535759 -0.000001
v -6.026278 22.903849 1.480428
v -6.595673 11.515949 1.480426
v -4.943882 22.849728 2.564176
v -5.513278 11.461828 2.564174
s 0
f 397 398 400 399
f 399 400 402 401
f 401 402 404 403
f 403 404 406 405
f 405 406 408 407
f 407 408 410 409
f 409 410 412 411
f 411 412 414 413
f 413 414 416 415
f 415 416 418 417
f 400 398 420 418 416 414 412 410 408 406 404 402
f 417 418 420 419
f 419 420 398 397
f 397 399 401 403 405 407 409 411 413 415 417 419
o right_leg
v 3.465302 22.775799 2.960855
v 4.034698 11.387899 2.960853
v 4.943882 22.849728 2.564176
v 5.513278 11.461828 2.564174
v 6.026278 22.903849 1.480428
v 6.595673 11.515949 1.480426
v 6.422462 22.923658 0.000001
v 6.991858 11.535759 -0.000001
v 6.026278 22.903849 -1.480426
v 6.595673 11.515949 -1.480428
v 4.943882 22.849730 -2.564174
v 5.513278 11.461830 -2.564176
v 3.465302 22.775801 -2.960853
v 4.034698 11.387901 -2.960855
v 1.986723 22.701872 -2.564174
v 2.556118 11.313972 -2.564176
v 0.904327 22.647751 -1.480426
v 1.473722 11.259851 -1.480428
v 0.508143 22.627941 0.000001
v 1.077538 11.240042 -0.000001
v 0.904327 22.647751 1.480428
v 1.473722 11.259851 1.480426
v 1.986723 22.701870 2.564176
v 2.556118 11.313971 2.564174
s 0
f 421 422 424 423
f 423 424 426 425
f 425 426 428 427
f 427 428 430 429
f 429 430 432 431
f 431 432 434 433
f 433 434 436 435
f 435 436 438 437
f 437 438 440 439
f 439 440 442 441
f 424 422 444 442 440 438 436 434 432 430 428 426
f 441 442 444 443
f 443 444 422 421
f 421 423 425 427 429 431 433 435 437 439 441 443
