# Blender 5.2.2 LTS
# www.blender.org
o tower_shaft
v 0.000000 -53.606834 12.034188
v 0.000000 -0.000002 12.034186
v -4.605284 -53.606834 11.118140
v -4.605284 -0.000002 11.118138
v -8.509456 -53.606834 8.509457
v -8.509456 -0.000002 8.509455
v -11.118139 -53.606834 4.605285
v -11.118139 -0.000002 4.605283
v -12.034187 -53.606834 0.000001
v -12.034187 -0.000002 -0.000001
v -11.118139 -53.606834 -4.605283
v -11.118139 -0.000002 -4.605285
v -8.509456 -53.606834 -8.509455
v -8.509456 -0.000002 -8.509457
v -4.605284 -53.606834 -11.118138
v -4.605284 -0.000002 -11.118140
v 0.000000 -53.606834 -12.034186
v 0.000000 -0.000002 -12.034188
v 4.605284 -53.606834 -11.118138
v 4.605284 -0.000002 -11.118140
v 8.509456 -53.606834 -8.509455
v 8.509456 -0.000002 -8.509457
v 11.118139 -53.606834 -4.605283
v 11.118139 -0.000002 -4.605285
v 12.034187 -53.606834 0.000001
v 12.034187 -0.000002 -0.000001
v 11.118139 -53.606834 4.605285
v 11.118139 -0.000002 4.605283
v 8.509456 -53.606834 8.509457
v 8.509456 -0.000002 8.509455
v 4.605284 -53.606834 11.118140
v 4.605284 -0.000002 11.118138
vn -0.1951 -0.0000 0.9808
vn -0.5556 -0.0000 0.8315
vn -0.8315 -0.0000 0.5556
vn -0.9808 -0.0000 0.1951
vn -0.9808 -0.0000 -0.1951
vn -0.8315 -0.0000 -0.5556
vn -0.5556 -0.0000 -0.8315
vn -0.1951 -0.0000 -0.9808
vn 0.1951 -0.0000 -0.9808
vn 0.5556 -0.0000 -0.8315
vn 0.8315 -0.0000 -0.5556
vn 0.9808 -0.0000 -0.1951
vn 0.9808 -0.0000 0.1951
vn 0.8315 -0.0000 0.5556
vn -0.0000 1.0000 -0.0000
vn 0.5556 -0.0000 0.8315
vn 0.1951 -0.0000 0.9808
vn -0.0000 -1.0000 -0.0000
vt 1.000000 0.500000
vt 1.000000 1.000000
vt 0.937500 1.000000
vt 0.937500 0.500000
vt 0.875000 1.000000
vt 0.875000 0.500000
vt 0.812500 1.000000
vt 0.812500 0.500000
vt 0.750000 1.000000
vt 0.750000 0.500000
vt 0.687500 1.000000
vt 0.687500 0.500000
vt 0.625000 1.000000
vt 0.625000 0.500000
vt 0.562500 1.000000
vt 0.562500 0.500000
vt 0.500000 1.000000
vt 0.500000 0.500000
vt 0.437500 1.000000
vt 0.437500 0.500000
vt 0.375000 1.000000
vt 0.375000 0.500000
vt 0.312500 1.000000
vt 0.312500 0.500000
vt 0.250000 1.000000
vt 0.250000 0.500000
vt 0.187500 1.000000
vt 0.187500 0.500000
vt 0.125000 1.000000
vt 0.125000 0.500000
vt 0.341844 0.471731
vt 0.250000 0.490000
vt 0.158156 0.471731
vt 0.080294 0.419706
vt 0.028269 0.341844
vt 0.010000 0.250000
vt 0.028269 0.158156
vt 0.080294 0.080294
vt 0.158156 0.028269
vt 0.250000 0.010000
vt 0.341844 0.028269
vt 0.419706 0.080294
vt 0.471731 0.158156
vt 0.490000 0.250000
vt 0.471731 0.341844
vt 0.419706 0.419706
vt 0.062500 1.000000
vt 0.062500 0.500000
vt 0.000000 1.000000
vt 0.000000 0.500000
vt 0.750000 0.490000
vt 0.841844 0.471731
vt 0.919706 0.419706
vt 0.971731 0.341844
vt 0.990000 0.250000
vt 0.971731 0.158156
vt 0.919706 0.080294
vt 0.841844 0.028269
vt 0.750000 0.010000
vt 0.658156 0.028269
vt 0.580294 0.080294
vt 0.528269 0.158156
vt 0.510000 0.250000
vt 0.528269 0.341844
vt 0.580294 0.419706
vt 0.658156 0.471731
s 0
f 1/1/1 2/2/1 4/3/1 3/4/1
f 3/4/2 4/3/2 6/5/2 5/6/2
f 5/6/3 6/5/3 8/7/3 7/8/3
f 7/8/4 8/7/4 10/9/4 9/10/4
f 9/10/5 10/9/5 12/11/5 11/12/5
f 11/12/6 12/11/6 14/13/6 13/14/6
f 13/14/7 14/13/7 16/15/7 15/16/7
f 15/16/8 16/15/8 18/17/8 17/18/8
f 17/18/9 18/17/9 20/19/9 19/20/9
f 19/20/10 20/19/10 22/21/10 21/22/10
f 21/22/11 22/21/11 24/23/11 23/24/11
f 23/24/12 24/23/12 26/25/12 25/26/12
f 25/26/13 26/25/13 28/27/13 27/28/13
f 27/28/14 28/27/14 30/29/14 29/30/14
f 4/31/15 2/32/15 32/33/15 30/34/15 28/35/15 26/36/15 24/37/15 22/38/15 20/39/15 18/40/15 16/41/15 14/42/15 12/43/15 10/44/15 8/45/15 6/46/15
f 29/30/16 30/29/16 32/47/16 31/48/16
f 31/48/17 32/47/17 2/49/17 1/50/17
f 1/51/18 3/52/18 5/53/18 7/54/18 9/55/18 11/56/18 13/57/18 15/58/18 17/59/18 19/60/18 21/61/18 23/62/18 25/63/18 27/64/18 29/65/18 31/66/18
o flared_base
v 0.000000 -9.846153 15.316238
v 0.000000 -0.000000 15.316238
v -5.861271 -9.846153 14.150358
v -5.861271 -0.000000 14.150358
v -10.830216 -9.846153 10.830216
v -10.830216 -0.000000 10.830216
v -14.150358 -9.846153 5.861271
v -14.150358 -0.000000 5.861271
v -15.316238 -9.846154 0.000000
v -15.316238 -0.000001 -0.000000
v -14.150358 -9.846155 -5.861271
v -14.150358 -0.000001 -5.861271
v -10.830216 -9.846155 -10.830216
v -10.830216 -0.000001 -10.830216
v -5.861271 -9.846155 -14.150358
v -5.861271 -0.000001 -14.150358
v 0.000000 -9.846155 -15.316238
v 0.000000 -0.000001 -15.316238
v 5.861271 -9.846155 -14.150358
v 5.861271 -0.000001 -14.150358
v 10.830216 -9.846155 -10.830216
v 10.830216 -0.000001 -10.830216
v 14.150358 -9.846155 -5.861271
v 14.150358 -0.000001 -5.861271
v 15.316238 -9.846154 0.000000
v 15.316238 -0.000001 -0.000000
v 14.150358 -9.846153 5.861271
v 14.150358 -0.000000 5.861271
v 10.830216 -9.846153 10.830216
v 10.830216 -0.000000 10.830216
v 5.861271 -9.846153 14.150358
v 5.861271 -0.000000 14.150358
vn -0.1951 -0.0000 0.9808
vn -0.5556 -0.0000 0.8315
vn -0.8315 -0.0000 0.5556
vn -0.9808 -0.0000 0.1951
vn -0.9808 -0.0000 -0.1951
vn -0.8315 -0.0000 -0.5556
vn -0.5556 -0.0000 -0.8315
vn -0.1951 -0.0000 -0.9808
vn 0.1951 -0.0000 -0.9808
vn 0.5556 -0.0000 -0.8315
vn 0.8315 -0.0000 -0.5556
vn 0.9808 -0.0000 -0.1951
vn 0.9808 -0.0000 0.1951
vn 0.8315 -0.0000 0.5556
vn -0.0000 1.0000 -0.0000
vn 0.5556 -0.0000 0.8315
vn 0.1951 -0.0000 0.9808
vn -0.0000 -1.0000 -0.0000
vt 1.000000 0.500000
vt 1.000000 1.000000
vt 0.937500 1.000000
vt 0.937500 0.500000
vt 0.875000 1.000000
vt 0.875000 0.500000
vt 0.812500 1.000000
vt 0.812500 0.500000
vt 0.750000 1.000000
vt 0.750000 0.500000
vt 0.687500 1.000000
vt 0.687500 0.500000
vt 0.625000 1.000000
vt 0.625000 0.500000
vt 0.562500 1.000000
vt 0.562500 0.500000
vt 0.500000 1.000000
vt 0.500000 0.500000
vt 0.437500 1.000000
vt 0.437500 0.500000
vt 0.375000 1.000000
vt 0.375000 0.500000
vt 0.312500 1.000000
vt 0.312500 0.500000
vt 0.250000 1.000000
vt 0.250000 0.500000
vt 0.187500 1.000000
vt 0.187500 0.500000
vt 0.125000 1.000000
vt 0.125000 0.500000
vt 0.341844 0.471731
vt 0.250000 0.490000
vt 0.158156 0.471731
vt 0.080294 0.419706
vt 0.028269 0.341844
vt 0.010000 0.250000
vt 0.028269 0.158156
vt 0.080294 0.080294
vt 0.158156 0.028269
vt 0.250000 0.010000
vt 0.341844 0.028269
vt 0.419706 0.080294
vt 0.471731 0.158156
vt 0.490000 0.250000
vt 0.471731 0.341844
vt 0.419706 0.419706
vt 0.062500 1.000000
vt 0.062500 0.500000
vt 0.000000 1.000000
vt 0.000000 0.500000
vt 0.750000 0.490000
vt 0.841844 0.471731
vt 0.919706 0.419706
vt 0.971731 0.341844
vt 0.990000 0.250000
vt 0.971731 0.158156
vt 0.919706 0.080294
vt 0.841844 0.028269
vt 0.750000 0.010000
vt 0.658156 0.028269
vt 0.580294 0.080294
vt 0.528269 0.158156
vt 0.510000 0.250000
vt 0.528269 0.341844
vt 0.580294 0.419706
vt 0.658156 0.471731
s 0
f 33/67/19 34/68/19 36/69/19 35/70/19
f 35/70/20 36/69/20 38/71/20 37/72/20
f 37/72/21 38/71/21 40/73/21 39/74/21
f 39/74/22 40/73/22 42/75/22 41/76/22
f 41/76/23 42/75/23 44/77/23 43/78/23
f 43/78/24 44/77/24 46/79/24 45/80/24
f 45/80/25 46/79/25 48/81/25 47/82/25
f 47/82/26 48/81/26 50/83/26 49/84/26
f 49/84/27 50/83/27 52/85/27 51/86/27
f 51/86/28 52/85/28 54/87/28 53/88/28
f 53/88/29 54/87/29 56/89/29 55/90/29
f 55/90/30 56/89/30 58/91/30 57/92/30
f 57/92/31 58/91/31 60/93/31 59/94/31
f 59/94/32 60/93/32 62/95/32 61/96/32
f 36/97/33 34/98/33 64/99/33 62/100/33 60/101/33 58/102/33 56/103/33 54/104/33 52/105/33 50/106/33 48/107/33 46/108/33 44/109/33 42/110/33 40/111/33 38/112/33
f 61/96/34 62/95/34 64/113/34 63/114/34
f 63/114/35 64/113/35 34/115/35 33/116/35
f 33/117/36 35/118/36 37/119/36 39/120/36 41/121/36 43/122/36 45/123/36 47/124/36 49/125/36 51/126/36 53/127/36 55/128/36 57/129/36 59/130/36 61/131/36 63/132/36
o upper_walkway
v 0.000000 -58.529915 14.222221
v 0.000000 -53.059830 14.222221
v -5.442609 -58.529915 13.139619
v -5.442609 -53.059830 13.139619
v -10.056628 -58.529915 10.056628
v -10.056628 -53.059830 10.056628
v -13.139619 -58.529915 5.442609
v -13.139619 -53.059830 5.442609
v -14.222221 -58.529915 0.000000
v -14.222221 -53.059830 -0.000000
v -13.139619 -58.529915 -5.442609
v -13.139619 -53.059830 -5.442609
v -10.056628 -58.529915 -10.056628
v -10.056628 -53.059830 -10.056628
v -5.442609 -58.529915 -13.139619
v -5.442609 -53.059830 -13.139619
v 0.000000 -58.529915 -14.222221
v 0.000000 -53.059830 -14.222221
v 5.442609 -58.529915 -13.139619
v 5.442609 -53.059830 -13.139619
v 10.056628 -58.529915 -10.056628
v 10.056628 -53.059830 -10.056628
v 13.139619 -58.529915 -5.442609
v 13.139619 -53.059830 -5.442609
v 14.222221 -58.529915 0.000000
v 14.222221 -53.059830 -0.000000
v 13.139619 -58.529915 5.442609
v 13.139619 -53.059830 5.442609
v 10.056628 -58.529915 10.056628
v 10.056628 -53.059830 10.056628
v 5.442609 -58.529915 13.139619
v 5.442609 -53.059830 13.139619
vn -0.1951 -0.0000 0.9808
vn -0.5556 -0.0000 0.8315
vn -0.8315 -0.0000 0.5556
vn -0.9808 -0.0000 0.1951
vn -0.9808 -0.0000 -0.1951
vn -0.8315 -0.0000 -0.5556
vn -0.5556 -0.0000 -0.8315
vn -0.1951 -0.0000 -0.9808
vn 0.1951 -0.0000 -0.9808
vn 0.5556 -0.0000 -0.8315
vn 0.8315 -0.0000 -0.5556
vn 0.9808 -0.0000 -0.1951
vn 0.9808 -0.0000 0.1951
vn 0.8315 -0.0000 0.5556
vn -0.0000 1.0000 -0.0000
vn 0.5556 -0.0000 0.8315
vn 0.1951 -0.0000 0.9808
vn -0.0000 -1.0000 -0.0000
vt 1.000000 0.500000
vt 1.000000 1.000000
vt 0.937500 1.000000
vt 0.937500 0.500000
vt 0.875000 1.000000
vt 0.875000 0.500000
vt 0.812500 1.000000
vt 0.812500 0.500000
vt 0.750000 1.000000
vt 0.750000 0.500000
vt 0.687500 1.000000
vt 0.687500 0.500000
vt 0.625000 1.000000
vt 0.625000 0.500000
vt 0.562500 1.000000
vt 0.562500 0.500000
vt 0.500000 1.000000
vt 0.500000 0.500000
vt 0.437500 1.000000
vt 0.437500 0.500000
vt 0.375000 1.000000
vt 0.375000 0.500000
vt 0.312500 1.000000
vt 0.312500 0.500000
vt 0.250000 1.000000
vt 0.250000 0.500000
vt 0.187500 1.000000
vt 0.187500 0.500000
vt 0.125000 1.000000
vt 0.125000 0.500000
vt 0.341844 0.471731
vt 0.250000 0.490000
vt 0.158156 0.471731
vt 0.080294 0.419706
vt 0.028269 0.341844
vt 0.010000 0.250000
vt 0.028269 0.158156
vt 0.080294 0.080294
vt 0.158156 0.028269
vt 0.250000 0.010000
vt 0.341844 0.028269
vt 0.419706 0.080294
vt 0.471731 0.158156
vt 0.490000 0.250000
vt 0.471731 0.341844
vt 0.419706 0.419706
vt 0.062500 1.000000
vt 0.062500 0.500000
vt 0.000000 1.000000
vt 0.000000 0.500000
vt 0.750000 0.490000
vt 0.841844 0.471731
vt 0.919706 0.419706
vt 0.971731 0.341844
vt 0.990000 0.250000
vt 0.971731 0.158156
vt 0.919706 0.080294
vt 0.841844 0.028269
vt 0.750000 0.010000
vt 0.658156 0.028269
vt 0.580294 0.080294
vt 0.528269 0.158156
vt 0.510000 0.250000
vt 0.528269 0.341844
vt 0.580294 0.419706
vt 0.658156 0.471731
s 0
f 65/133/37 66/134/37 68/135/37 67/136/37
f 67/136/38 68/135/38 70/137/38 69/138/38
f 69/138/39 70/137/39 72/139/39 71/140/39
f 71/140/40 72/139/40 74/141/40 73/142/40
f 73/142/41 74/141/41 76/143/41 75/144/41
f 75/144/42 76/143/42 78/145/42 77/146/42
f 77/146/43 78/145/43 80/147/43 79/148/43
f 79/148/44 80/147/44 82/149/44 81/150/44
f 81/150/45 82/149/45 84/151/45 83/152/45
f 83/152/46 84/151/46 86/153/46 85/154/46
f 85/154/47 86/153/47 88/155/47 87/156/47
f 87/156/48 88/155/48 90/157/48 89/158/48
f 89/158/49 90/157/49 92/159/49 91/160/49
f 91/160/50 92/159/50 94/161/50 93/162/50
f 68/163/51 66/164/51 96/165/51 94/166/51 92/167/51 90/168/51 88/169/51 86/170/51 84/171/51 82/172/51 80/173/51 78/174/51 76/175/51 74/176/51 72/177/51 70/178/51
f 93/162/52 94/161/52 96/179/52 95/180/52
f 95/180/53 96/179/53 66/181/53 65/182/53
f 65/183/54 67/184/54 69/185/54 71/186/54 73/187/54 75/188/54 77/189/54 79/190/54 81/191/54 83/192/54 85/193/54 87/194/54 89/195/54 91/196/54 93/197/54 95/198/54
o entrance_shadow
v 2.297436 -0.547009 -11.482906
v 2.297436 -0.547009 -10.717094
v 2.297436 -10.393163 -11.482906
v 2.297436 -10.393163 -10.717094
v -2.297436 -0.547009 -11.482906
v -2.297436 -0.547009 -10.717094
v -2.297436 -10.393163 -11.482906
v -2.297436 -10.393163 -10.717094
vn 1.0000 -0.0000 -0.0000
vn -0.0000 -1.0000 -0.0000
vn -1.0000 -0.0000 -0.0000
vn -0.0000 1.0000 -0.0000
vn -0.0000 -0.0000 -1.0000
vn -0.0000 -0.0000 1.0000
vt 0.375000 0.000000
vt 0.625000 0.000000
vt 0.625000 0.250000
vt 0.375000 0.250000
vt 0.625000 0.500000
vt 0.375000 0.500000
vt 0.625000 0.750000
vt 0.375000 0.750000
vt 0.625000 1.000000
vt 0.375000 1.000000
vt 0.125000 0.500000
vt 0.125000 0.750000
vt 0.875000 0.500000
vt 0.875000 0.750000
s 0
f 97/199/55 98/200/55 100/201/55 99/202/55
f 99/202/56 100/201/56 104/203/56 103/204/56
f 103/204/57 104/203/57 102/205/57 101/206/57
f 101/206/58 102/205/58 98/207/58 97/208/58
f 99/209/59 103/204/59 101/206/59 97/210/59
f 104/203/60 100/211/60 98/212/60 102/205/60
o arrow_slit
v 0.820513 -35.555557 -11.532906
v 0.820513 -35.555557 -10.767094
v 0.820513 -41.025642 -11.532906
v 0.820513 -41.025642 -10.767094
v -0.820513 -35.555557 -11.532906
v -0.820513 -35.555557 -10.767094
v -0.820513 -41.025642 -11.532906
v -0.820513 -41.025642 -10.767094
vn 1.0000 -0.0000 -0.0000
vn -0.0000 -1.0000 -0.0000
vn -1.0000 -0.0000 -0.0000
vn -0.0000 1.0000 -0.0000
vn -0.0000 -0.0000 -1.0000
vn -0.0000 -0.0000 1.0000
vt 0.375000 0.000000
vt 0.625000 0.000000
vt 0.625000 0.250000
vt 0.375000 0.250000
vt 0.625000 0.500000
vt 0.375000 0.500000
vt 0.625000 0.750000
vt 0.375000 0.750000
vt 0.625000 1.000000
vt 0.375000 1.000000
vt 0.125000 0.500000
vt 0.125000 0.750000
vt 0.875000 0.500000
vt 0.875000 0.750000
s 0
f 105/213/61 106/214/61 108/215/61 107/216/61
f 107/216/62 108/215/62 112/217/62 111/218/62
f 111/218/63 112/217/63 110/219/63 109/220/63
f 109/220/64 110/219/64 106/221/64 105/222/64
f 107/223/65 111/218/65 109/220/65 105/224/65
f 112/217/66 108/225/66 106/226/66 110/219/66
o merlon_00
v -8.249573 -58.529915 -1.750427
v -8.249573 -58.529915 1.750427
v -8.249573 -64.000000 -1.750427
v -8.249573 -64.000000 1.750427
v -11.750427 -58.529915 -1.750427
v -11.750427 -58.529915 1.750427
v -11.750427 -64.000000 -1.750427
v -11.750427 -64.000000 1.750427
vn 1.0000 -0.0000 -0.0000
vn -0.0000 -1.0000 -0.0000
vn -1.0000 -0.0000 -0.0000
vn -0.0000 1.0000 -0.0000
vn -0.0000 -0.0000 -1.0000
vn -0.0000 -0.0000 1.0000
vt 0.375000 0.000000
vt 0.625000 0.000000
vt 0.625000 0.250000
vt 0.375000 0.250000
vt 0.625000 0.500000
vt 0.375000 0.500000
vt 0.625000 0.750000
vt 0.375000 0.750000
vt 0.625000 1.000000
vt 0.375000 1.000000
vt 0.125000 0.500000
vt 0.125000 0.750000
vt 0.875000 0.500000
vt 0.875000 0.750000
s 0
f 113/227/67 114/228/67 116/229/67 115/230/67
f 115/230/68 116/229/68 120/231/68 119/232/68
f 119/232/69 120/231/69 118/233/69 117/234/69
f 117/234/70 118/233/70 114/235/70 113/236/70
f 115/237/71 119/232/71 117/234/71 113/238/71
f 120/231/72 116/239/72 114/240/72 118/233/72
o merlon_01
v -5.320641 -58.529915 5.320641
v -5.320641 -58.529915 8.821495
v -5.320641 -64.000000 5.320641
v -5.320641 -64.000000 8.821495
v -8.821495 -58.529915 5.320641
v -8.821495 -58.529915 8.821495
v -8.821495 -64.000000 5.320641
v -8.821495 -64.000000 8.821495
vn 1.0000 -0.0000 -0.0000
vn -0.0000 -1.0000 -0.0000
vn -1.0000 -0.0000 -0.0000
vn -0.0000 1.0000 -0.0000
vn -0.0000 -0.0000 -1.0000
vn -0.0000 -0.0000 1.0000
vt 0.375000 0.000000
vt 0.625000 0.000000
vt 0.625000 0.250000
vt 0.375000 0.250000
vt 0.625000 0.500000
vt 0.375000 0.500000
vt 0.625000 0.750000
vt 0.375000 0.750000
vt 0.625000 1.000000
vt 0.375000 1.000000
vt 0.125000 0.500000
vt 0.125000 0.750000
vt 0.875000 0.500000
vt 0.875000 0.750000
s 0
f 121/241/73 122/242/73 124/243/73 123/244/73
f 123/244/74 124/243/74 128/245/74 127/246/74
f 127/246/75 128/245/75 126/247/75 125/248/75
f 125/248/76 126/247/76 122/249/76 121/250/76
f 123/251/77 127/246/77 125/248/77 121/252/77
f 128/245/78 124/253/78 122/254/78 126/247/78
o merlon_02
v 1.750427 -58.529915 8.249573
v 1.750427 -58.529915 11.750427
v 1.750427 -64.000000 8.249573
v 1.750427 -64.000000 11.750427
v -1.750427 -58.529915 8.249573
v -1.750427 -58.529915 11.750427
v -1.750427 -64.000000 8.249573
v -1.750427 -64.000000 11.750427
vn 1.0000 -0.0000 -0.0000
vn -0.0000 -1.0000 -0.0000
vn -1.0000 -0.0000 -0.0000
vn -0.0000 1.0000 -0.0000
vn -0.0000 -0.0000 -1.0000
vn -0.0000 -0.0000 1.0000
vt 0.375000 0.000000
vt 0.625000 0.000000
vt 0.625000 0.250000
vt 0.375000 0.250000
vt 0.625000 0.500000
vt 0.375000 0.500000
vt 0.625000 0.750000
vt 0.375000 0.750000
vt 0.625000 1.000000
vt 0.375000 1.000000
vt 0.125000 0.500000
vt 0.125000 0.750000
vt 0.875000 0.500000
vt 0.875000 0.750000
s 0
f 129/255/79 130/256/79 132/257/79 131/258/79
f 131/258/80 132/257/80 136/259/80 135/260/80
f 135/260/81 136/259/81 134/261/81 133/262/81
f 133/262/82 134/261/82 130/263/82 129/264/82
f 131/265/83 135/260/83 133/262/83 129/266/83
f 136/259/84 132/267/84 130/268/84 134/261/84
o merlon_03
v 8.821495 -58.529915 5.320641
v 8.821495 -58.529915 8.821495
v 8.821495 -64.000000 5.320641
v 8.821495 -64.000000 8.821495
v 5.320641 -58.529915 5.320641
v 5.320641 -58.529915 8.821495
v 5.320641 -64.000000 5.320641
v 5.320641 -64.000000 8.821495
vn 1.0000 -0.0000 -0.0000
vn -0.0000 -1.0000 -0.0000
vn -1.0000 -0.0000 -0.0000
vn -0.0000 1.0000 -0.0000
vn -0.0000 -0.0000 -1.0000
vn -0.0000 -0.0000 1.0000
vt 0.375000 0.000000
vt 0.625000 0.000000
vt 0.625000 0.250000
vt 0.375000 0.250000
vt 0.625000 0.500000
vt 0.375000 0.500000
vt 0.625000 0.750000
vt 0.375000 0.750000
vt 0.625000 1.000000
vt 0.375000 1.000000
vt 0.125000 0.500000
vt 0.125000 0.750000
vt 0.875000 0.500000
vt 0.875000 0.750000
s 0
f 137/269/85 138/270/85 140/271/85 139/272/85
f 139/272/86 140/271/86 144/273/86 143/274/86
f 143/274/87 144/273/87 142/275/87 141/276/87
f 141/276/88 142/275/88 138/277/88 137/278/88
f 139/279/89 143/274/89 141/276/89 137/280/89
f 144/273/90 140/281/90 138/282/90 142/275/90
o merlon_04
v 11.750427 -58.529915 -1.750427
v 11.750427 -58.529915 1.750427
v 11.750427 -64.000000 -1.750427
v 11.750427 -64.000000 1.750427
v 8.249573 -58.529915 -1.750427
v 8.249573 -58.529915 1.750427
v 8.249573 -64.000000 -1.750427
v 8.249573 -64.000000 1.750427
vn 1.0000 -0.0000 -0.0000
vn -0.0000 -1.0000 -0.0000
vn -1.0000 -0.0000 -0.0000
vn -0.0000 1.0000 -0.0000
vn -0.0000 -0.0000 -1.0000
vn -0.0000 -0.0000 1.0000
vt 0.375000 0.000000
vt 0.625000 0.000000
vt 0.625000 0.250000
vt 0.375000 0.250000
vt 0.625000 0.500000
vt 0.375000 0.500000
vt 0.625000 0.750000
vt 0.375000 0.750000
vt 0.625000 1.000000
vt 0.375000 1.000000
vt 0.125000 0.500000
vt 0.125000 0.750000
vt 0.875000 0.500000
vt 0.875000 0.750000
s 0
f 145/283/91 146/284/91 148/285/91 147/286/91
f 147/286/92 148/285/92 152/287/92 151/288/92
f 151/288/93 152/287/93 150/289/93 149/290/93
f 149/290/94 150/289/94 146/291/94 145/292/94
f 147/293/95 151/288/95 149/290/95 145/294/95
f 152/287/96 148/295/96 146/296/96 150/289/96
o merlon_05
v 8.821495 -58.529915 -8.821495
v 8.821495 -58.529915 -5.320641
v 8.821495 -64.000000 -8.821495
v 8.821495 -64.000000 -5.320641
v 5.320641 -58.529915 -8.821495
v 5.320641 -58.529915 -5.320641
v 5.320641 -64.000000 -8.821495
v 5.320641 -64.000000 -5.320641
vn 1.0000 -0.0000 -0.0000
vn -0.0000 -1.0000 -0.0000
vn -1.0000 -0.0000 -0.0000
vn -0.0000 1.0000 -0.0000
vn -0.0000 -0.0000 -1.0000
vn -0.0000 -0.0000 1.0000
vt 0.375000 0.000000
vt 0.625000 0.000000
vt 0.625000 0.250000
vt 0.375000 0.250000
vt 0.625000 0.500000
vt 0.375000 0.500000
vt 0.625000 0.750000
vt 0.375000 0.750000
vt 0.625000 1.000000
vt 0.375000 1.000000
vt 0.125000 0.500000
vt 0.125000 0.750000
vt 0.875000 0.500000
vt 0.875000 0.750000
s 0
f 153/297/97 154/298/97 156/299/97 155/300/97
f 155/300/98 156/299/98 160/301/98 159/302/98
f 159/302/99 160/301/99 158/303/99 157/304/99
f 157/304/100 158/303/100 154/305/100 153/306/100
f 155/307/101 159/302/101 157/304/101 153/308/101
f 160/301/102 156/309/102 154/310/102 158/303/102
o merlon_06
v 1.750427 -58.529915 -11.750427
v 1.750427 -58.529915 -8.249573
v 1.750427 -64.000000 -11.750427
v 1.750427 -64.000000 -8.249573
v -1.750427 -58.529915 -11.750427
v -1.750427 -58.529915 -8.249573
v -1.750427 -64.000000 -11.750427
v -1.750427 -64.000000 -8.249573
vn 1.0000 -0.0000 -0.0000
vn -0.0000 -1.0000 -0.0000
vn -1.0000 -0.0000 -0.0000
vn -0.0000 1.0000 -0.0000
vn -0.0000 -0.0000 -1.0000
vn -0.0000 -0.0000 1.0000
vt 0.375000 0.000000
vt 0.625000 0.000000
vt 0.625000 0.250000
vt 0.375000 0.250000
vt 0.625000 0.500000
vt 0.375000 0.500000
vt 0.625000 0.750000
vt 0.375000 0.750000
vt 0.625000 1.000000
vt 0.375000 1.000000
vt 0.125000 0.500000
vt 0.125000 0.750000
vt 0.875000 0.500000
vt 0.875000 0.750000
s 0
f 161/311/103 162/312/103 164/313/103 163/314/103
f 163/314/104 164/313/104 168/315/104 167/316/104
f 167/316/105 168/315/105 166/317/105 165/318/105
f 165/318/106 166/317/106 162/319/106 161/320/106
f 163/321/107 167/316/107 165/318/107 161/322/107
f 168/315/108 164/323/108 162/324/108 166/317/108
o merlon_07
v -5.320641 -58.529915 -8.821495
v -5.320641 -58.529915 -5.320641
v -5.320641 -64.000000 -8.821495
v -5.320641 -64.000000 -5.320641
v -8.821495 -58.529915 -8.821495
v -8.821495 -58.529915 -5.320641
v -8.821495 -64.000000 -8.821495
v -8.821495 -64.000000 -5.320641
vn 1.0000 -0.0000 -0.0000
vn -0.0000 -1.0000 -0.0000
vn -1.0000 -0.0000 -0.0000
vn -0.0000 1.0000 -0.0000
vn -0.0000 -0.0000 -1.0000
vn -0.0000 -0.0000 1.0000
vt 0.375000 0.000000
vt 0.625000 0.000000
vt 0.625000 0.250000
vt 0.375000 0.250000
vt 0.625000 0.500000
vt 0.375000 0.500000
vt 0.625000 0.750000
vt 0.375000 0.750000
vt 0.625000 1.000000
vt 0.375000 1.000000
vt 0.125000 0.500000
vt 0.125000 0.750000
vt 0.875000 0.500000
vt 0.875000 0.750000
s 0
f 169/325/109 170/326/109 172/327/109 171/328/109
f 171/328/110 172/327/110 176/329/110 175/330/110
f 175/330/111 176/329/111 174/331/111 173/332/111
f 173/332/112 174/331/112 170/333/112 169/334/112
f 171/335/113 175/330/113 173/332/113 169/336/113
f 176/329/114 172/337/114 170/338/114 174/331/114
