# Blender 5.2.2 LTS
# www.blender.org
o continuous_tapered_hull
v 19.320755 -2.415094 0.000000
v 19.320755 -2.415094 0.000000
v 15.698113 -0.966038 -6.037736
v 15.698113 -0.966038 6.037736
v 8.452830 0.000000 -8.452830
v 8.452830 0.000000 8.452830
v -8.452830 0.000000 -8.452830
v -8.452830 0.000000 8.452830
v -16.905661 -1.449057 -6.037736
v -16.905661 -1.449057 6.037736
v -20.528301 -3.622642 0.000000
v -20.528301 -3.622642 0.000000
vn 0.3714 0.9285 -0.0000
vn -0.2169 -0.9762 -0.0000
vn 0.1322 0.9912 -0.0000
vn -0.0400 -0.9992 -0.0000
vn -0.0000 1.0000 -0.0000
vn 0.0570 -0.9984 -0.0000
vn -0.1690 0.9856 -0.0000
vn 0.2873 -0.9578 -0.0000
vn -0.5145 0.8575 -0.0000
vn -0.0000 -0.0000 1.0000
vn -0.3714 -0.9285 -0.0000
s 0
f 1//1 3//1 4//1 2//1
f 2//2 4//2 5//2 3//2
f 3//3 5//3 6//3 4//3
f 4//4 6//4 7//4 5//4
f 5//5 7//5 8//5 6//5
f 6//6 8//6 9//6 7//6
f 7//7 9//7 10//7 8//7
f 8//8 10//8 11//8 9//8
f 9//9 11//9 12//9 10//9
f 10//10 12//10 13//10 11//10
f 1//11 2//11 4//11 3//11
f 11//9 12//9 10//9 9//9
o deck
v 16.301888 -5.252830 -7.849057
v 16.301888 -5.252830 7.849057
v 16.301888 -7.305660 -7.849057
v 16.301888 -7.305660 7.849057
v -16.301888 -5.252830 -7.849057
v -16.301888 -5.252830 7.849057
v -16.301888 -7.305660 -7.849057
v -16.301888 -7.305660 7.849057
vn 1.0000 -0.0000 -0.0000
vn -0.0000 -1.0000 -0.0000
vn -1.0000 -0.0000 -0.0000
vn -0.0000 1.0000 -0.0000
vn -0.0000 -0.0000 -1.0000
vn -0.0000 -0.0000 1.0000
vt 0.375000 0.000000
vt 0.625000 0.000000
vt 0.625000 0.250000
vt 0.375000 0.250000
vt 0.625000 0.500000
vt 0.375000 0.500000
vt 0.625000 0.750000
vt 0.375000 0.750000
vt 0.625000 1.000000
vt 0.375000 1.000000
vt 0.125000 0.500000
vt 0.125000 0.750000
vt 0.875000 0.500000
vt 0.875000 0.750000
s 0
f 13/1/12 14/2/12 16/3/12 15/4/12
f 15/4/13 16/3/13 20/5/13 19/6/13
f 19/6/14 20/5/14 18/7/14 17/8/14
f 17/8/15 18/7/15 14/9/15 13/10/15
f 15/11/16 19/6/16 17/8/16 13/12/16
f 20/5/17 16/13/17 14/14/17 18/7/17
o front_rail
v 15.698113 -6.883018 -7.164151
v 15.698113 -6.883018 -5.835849
v 15.698113 -9.298113 -7.164151
v 15.698113 -9.298113 -5.835849
v -15.698113 -6.883018 -7.164151
v -15.698113 -6.883018 -5.835849
v -15.698113 -9.298113 -7.164151
v -15.698113 -9.298113 -5.835849
vn 1.0000 -0.0000 -0.0000
vn -0.0000 -1.0000 -0.0000
vn -1.0000 -0.0000 -0.0000
vn -0.0000 1.0000 -0.0000
vn -0.0000 -0.0000 -1.0000
vn -0.0000 -0.0000 1.0000
vt 0.375000 0.000000
vt 0.625000 0.000000
vt 0.625000 0.250000
vt 0.375000 0.250000
vt 0.625000 0.500000
vt 0.375000 0.500000
vt 0.625000 0.750000
vt 0.375000 0.750000
vt 0.625000 1.000000
vt 0.375000 1.000000
vt 0.125000 0.500000
vt 0.125000 0.750000
vt 0.875000 0.500000
vt 0.875000 0.750000
s 0
f 21/15/18 22/16/18 24/17/18 23/18/18
f 23/18/19 24/17/19 28/19/19 27/20/19
f 27/20/20 28/19/20 26/21/20 25/22/20
f 25/22/21 26/21/21 22/23/21 21/24/21
f 23/25/22 27/20/22 25/22/22 21/26/22
f 28/19/23 24/27/23 22/28/23 26/21/23
o mast
v 0.000000 -64.000000 1.630190
v 0.000000 -6.037735 1.630187
v -0.815094 -64.000000 1.411786
v -0.815094 -6.037735 1.411783
v -1.411785 -64.000000 0.815096
v -1.411785 -6.037735 0.815093
v -1.630189 -64.000000 0.000001
v -1.630189 -6.037735 -0.000001
v -1.411785 -64.000000 -0.815093
v -1.411785 -6.037735 -0.815096
v -0.815094 -64.000000 -1.411783
v -0.815094 -6.037735 -1.411786
v 0.000000 -64.000000 -1.630187
v 0.000000 -6.037735 -1.630190
v 0.815094 -64.000000 -1.411783
v 0.815094 -6.037735 -1.411786
v 1.411785 -64.000000 -0.815093
v 1.411785 -6.037735 -0.815096
v 1.630189 -64.000000 0.000001
v 1.630189 -6.037735 -0.000001
v 1.411785 -64.000000 0.815096
v 1.411785 -6.037735 0.815093
v 0.815094 -64.000000 1.411786
v 0.815094 -6.037735 1.411783
vn -0.2588 -0.0000 0.9659
vn -0.7071 -0.0000 0.7071
vn -0.9659 -0.0000 0.2588
vn -0.9659 -0.0000 -0.2588
vn -0.7071 -0.0000 -0.7071
vn -0.2588 -0.0000 -0.9659
vn 0.2588 -0.0000 -0.9659
vn 0.7071 -0.0000 -0.7071
vn 0.9659 -0.0000 -0.2588
vn 0.9659 -0.0000 0.2588
vn -0.0000 1.0000 -0.0000
vn 0.7071 -0.0000 0.7071
vn 0.2588 -0.0000 0.9659
vn -0.0000 -1.0000 -0.0000
vt 1.000000 0.500000
vt 1.000000 1.000000
vt 0.916667 1.000000
vt 0.916667 0.500000
vt 0.833333 1.000000
vt 0.833333 0.500000
vt 0.750000 1.000000
vt 0.750000 0.500000
vt 0.666667 1.000000
vt 0.666667 0.500000
vt 0.583333 1.000000
vt 0.583333 0.500000
vt 0.500000 1.000000
vt 0.500000 0.500000
vt 0.416667 1.000000
vt 0.416667 0.500000
vt 0.333333 1.000000
vt 0.333333 0.500000
vt 0.250000 1.000000
vt 0.250000 0.500000
vt 0.166667 1.000000
vt 0.166667 0.500000
vt 0.370000 0.457846
vt 0.250000 0.490000
vt 0.130000 0.457846
vt 0.042154 0.370000
vt 0.010000 0.250000
vt 0.042154 0.130000
vt 0.130000 0.042154
vt 0.250000 0.010000
vt 0.370000 0.042154
vt 0.457846 0.130000
vt 0.490000 0.250000
vt 0.457846 0.370000
vt 0.083333 1.000000
vt 0.083333 0.500000
vt 0.000000 1.000000
vt 0.000000 0.500000
vt 0.750000 0.490000
vt 0.870000 0.457846
vt 0.957846 0.370000
vt 0.990000 0.250000
vt 0.957846 0.130000
vt 0.870000 0.042154
vt 0.750000 0.010000
vt 0.630000 0.042154
vt 0.542154 0.130000
vt 0.510000 0.250000
vt 0.542154 0.370000
vt 0.630000 0.457846
s 0
f 29/29/24 30/30/24 32/31/24 31/32/24
f 31/32/25 32/31/25 34/33/25 33/34/25
f 33/34/26 34/33/26 36/35/26 35/36/26
f 35/36/27 36/35/27 38/37/27 37/38/27
f 37/38/28 38/37/28 40/39/28 39/40/28
f 39/40/29 40/39/29 42/41/29 41/42/29
f 41/42/30 42/41/30 44/43/30 43/44/30
f 43/44/31 44/43/31 46/45/31 45/46/31
f 45/46/32 46/45/32 48/47/32 47/48/32
f 47/48/33 48/47/33 50/49/33 49/50/33
f 32/51/34 30/52/34 52/53/34 50/54/34 48/55/34 46/56/34 44/57/34 42/58/34 40/59/34 38/60/34 36/61/34 34/62/34
f 49/50/35 50/49/35 52/63/35 51/64/35
f 51/64/36 52/63/36 30/65/36 29/66/36
f 29/67/37 31/68/37 33/69/37 35/70/37 37/71/37 39/72/37 41/73/37 43/74/37 45/75/37 47/76/37 49/77/37 51/78/37
o yard
v 17.509434 -42.747169 -0.724528
v 17.509434 -42.747169 0.724528
v 17.509434 -44.196228 -0.724528
v 17.509434 -44.196228 0.724528
v -17.509434 -42.747169 -0.724528
v -17.509434 -42.747169 0.724528
v -17.509434 -44.196228 -0.724528
v -17.509434 -44.196228 0.724528
vn 1.0000 -0.0000 -0.0000
vn -0.0000 -1.0000 -0.0000
vn -1.0000 -0.0000 -0.0000
vn -0.0000 1.0000 -0.0000
vn -0.0000 -0.0000 -1.0000
vn -0.0000 -0.0000 1.0000
vt 0.375000 0.000000
vt 0.625000 0.000000
vt 0.625000 0.250000
vt 0.375000 0.250000
vt 0.625000 0.500000
vt 0.375000 0.500000
vt 0.625000 0.750000
vt 0.375000 0.750000
vt 0.625000 1.000000
vt 0.375000 1.000000
vt 0.125000 0.500000
vt 0.125000 0.750000
vt 0.875000 0.500000
vt 0.875000 0.750000
s 0
f 53/79/38 54/80/38 56/81/38 55/82/38
f 55/82/39 56/81/39 60/83/39 59/84/39
f 59/84/40 60/83/40 58/85/40 57/86/40
f 57/86/41 58/85/41 54/87/41 53/88/41
f 55/89/42 59/84/42 57/86/42 53/90/42
f 60/83/43 56/91/43 54/92/43 58/85/43
o lower_sail
v 8.452830 -8.452830 0.000000
v -8.452830 -8.452830 0.000000
v -7.245283 -37.433960 0.000000
v 7.245283 -37.433960 0.000000
vn -0.0000 -0.0000 1.0000
s 0
f 61//44 62//44 63//44 64//44
o upper_sail
v 6.037736 -42.264153 0.000000
v -6.037736 -42.264153 0.000000
v -5.433962 -59.169811 0.000000
v 5.433962 -59.169811 0.000000
vn -0.0000 -0.0000 1.0000
s 0
f 65//45 66//45 67//45 68//45
