# Blender 5.2.2 LTS
# www.blender.org
o monument_base
v 13.096086 -0.000000 -10.249110
v 13.096086 -0.000000 10.249110
v 13.096086 -6.832740 -10.249110
v 13.096086 -6.832740 10.249110
v -13.096086 -0.000000 -10.249110
v -13.096086 -0.000000 10.249110
v -13.096086 -6.832740 -10.249110
v -13.096086 -6.832740 10.249110
vn 1.0000 -0.0000 -0.0000
vn -0.0000 -1.0000 -0.0000
vn -1.0000 -0.0000 -0.0000
vn -0.0000 1.0000 -0.0000
vn -0.0000 -0.0000 -1.0000
vn -0.0000 -0.0000 1.0000
vt 0.375000 0.000000
vt 0.625000 0.000000
vt 0.625000 0.250000
vt 0.375000 0.250000
vt 0.625000 0.500000
vt 0.375000 0.500000
vt 0.625000 0.750000
vt 0.375000 0.750000
vt 0.625000 1.000000
vt 0.375000 1.000000
vt 0.125000 0.500000
vt 0.125000 0.750000
vt 0.875000 0.500000
vt 0.875000 0.750000
s 0
f 1/1/1 2/2/1 4/3/1 3/4/1
f 3/4/2 4/3/2 8/5/2 7/6/2
f 7/6/3 8/5/3 6/7/3 5/8/3
f 5/8/4 6/7/4 2/9/4 1/10/4
f 3/11/5 7/6/5 5/8/5 1/12/5
f 8/5/6 4/13/6 2/14/6 6/7/6
o upper_step
v 10.249110 -6.832740 -7.971530
v 10.249110 -6.832740 7.971530
v 10.249110 -10.249110 -7.971530
v 10.249110 -10.249110 7.971530
v -10.249110 -6.832740 -7.971530
v -10.249110 -6.832740 7.971530
v -10.249110 -10.249110 -7.971530
v -10.249110 -10.249110 7.971530
vn 1.0000 -0.0000 -0.0000
vn -0.0000 -1.0000 -0.0000
vn -1.0000 -0.0000 -0.0000
vn -0.0000 1.0000 -0.0000
vn -0.0000 -0.0000 -1.0000
vn -0.0000 -0.0000 1.0000
vt 0.375000 0.000000
vt 0.625000 0.000000
vt 0.625000 0.250000
vt 0.375000 0.250000
vt 0.625000 0.500000
vt 0.375000 0.500000
vt 0.625000 0.750000
vt 0.375000 0.750000
vt 0.625000 1.000000
vt 0.375000 1.000000
vt 0.125000 0.500000
vt 0.125000 0.750000
vt 0.875000 0.500000
vt 0.875000 0.750000
s 0
f 9/15/7 10/16/7 12/17/7 11/18/7
f 11/18/8 12/17/8 16/19/8 15/20/8
f 15/20/9 16/19/9 14/21/9 13/22/9
f 13/22/10 14/21/10 10/23/10 9/24/10
f 11/25/11 15/20/11 13/22/11 9/26/11
f 16/19/12 12/27/12 10/28/12 14/21/12
o torso
v 0.000000 -35.302490 5.352313
v 0.000000 -45.436794 3.146011
v 0.000000 -47.829182 0.000000
v 0.000000 -47.216080 -1.653956
v 0.000000 -45.436794 -3.146011
v 0.000000 -39.173450 -5.090352
v 0.000000 -35.302490 -5.352313
v -0.861878 -38.878792 5.090352
v -1.639389 -42.105019 4.330112
v -2.256425 -44.665367 3.146011
v -2.652587 -46.309212 1.653956
v -2.789095 -46.875641 0.000000
v -2.652587 -46.309212 -1.653956
v -2.256425 -44.665367 -3.146011
v -1.639389 -42.105019 -4.330112
v -0.861878 -38.878792 -5.090352
v -1.592543 -38.039673 5.090352
v -3.029196 -40.508919 4.330112
v -4.169330 -42.468525 3.146011
v -4.901342 -43.726669 1.653956
v -5.153575 -44.160198 0.000000
v -4.901342 -43.726669 -1.653956
v -4.169330 -42.468525 -3.146011
v -3.029196 -40.508919 -4.330112
v -1.592543 -38.039673 -5.090352
v -2.080757 -36.783844 5.090352
v -3.957835 -38.120190 4.330112
v -5.447492 -39.180717 3.146011
v -6.403911 -39.861622 1.653956
v -6.733471 -40.096245 0.000000
v -6.403911 -39.861622 -1.653956
v -5.447492 -39.180717 -3.146011
v -3.957835 -38.120190 -4.330112
v -2.080757 -36.783844 -5.090352
v -2.252195 -35.302490 5.090352
v -4.283929 -35.302490 4.330112
v -5.896322 -35.302490 3.146011
v -6.931543 -35.302490 1.653956
v -7.288256 -35.302490 0.000000
v -6.931543 -35.302490 -1.653956
v -5.896322 -35.302490 -3.146011
v -4.283929 -35.302490 -4.330112
v -2.252195 -35.302490 -5.090352
v -2.080757 -33.821136 5.090352
v -3.957834 -32.484791 4.330112
v -5.447491 -31.424259 3.146011
v -6.403910 -30.743355 1.653956
v -6.733470 -30.508732 0.000000
v -6.403910 -30.743355 -1.653956
v -5.447491 -31.424259 -3.146011
v -3.957834 -32.484791 -4.330112
v -2.080757 -33.821136 -5.090352
v -1.592542 -32.565308 5.090352
v -3.029194 -30.096060 4.330112
v -4.169329 -28.136454 3.146011
v -4.901340 -26.878309 1.653956
v -5.153574 -26.444780 0.000000
v -4.901340 -26.878309 -1.653956
v -4.169329 -28.136454 -3.146011
v -3.029194 -30.096060 -4.330112
v -1.592542 -32.565308 -5.090352
v -0.861877 -31.726189 5.090352
v -1.639387 -28.499962 4.330112
v -2.256423 -25.939615 3.146011
v -2.652585 -24.295769 1.653956
v -2.789093 -23.729336 0.000000
v -2.652585 -24.295769 -1.653956
v -2.256423 -25.939615 -3.146011
v -1.639387 -28.499962 -4.330112
v -0.861877 -31.726189 -5.090352
v 0.000001 -31.431530 5.090352
v 0.000001 -27.939487 4.330112
v 0.000002 -25.168188 3.146011
v 0.000002 -23.388901 1.653956
v 0.000003 -22.775799 0.000000
v 0.000002 -23.388901 -1.653956
v 0.000002 -25.168188 -3.146011
v 0.000001 -27.939487 -4.330112
v 0.000001 -31.431530 -5.090352
v 0.861878 -31.726189 5.090352
v 1.639390 -28.499966 4.330112
v 2.256426 -25.939617 3.146011
v 2.652588 -24.295773 1.653956
v 2.789098 -23.729340 0.000000
v 2.652588 -24.295773 -1.653956
v 2.256426 -25.939617 -3.146011
v 1.639390 -28.499966 -4.330112
v 0.861878 -31.726189 -5.090352
v 1.592543 -32.565308 5.090352
v 3.029196 -30.096064 4.330112
v 4.169330 -28.136459 3.146011
v 4.901342 -26.878315 1.653956
v 5.153578 -26.444786 0.000000
v 4.901342 -26.878315 -1.653956
v 4.169330 -28.136459 -3.146011
v 3.029196 -30.096064 -4.330112
v 1.592543 -32.565308 -5.090352
v 2.080757 -33.821140 5.090352
v 3.957834 -32.484795 4.330112
v 5.447491 -31.424265 3.146011
v 6.403911 -30.743362 1.653956
v 6.733471 -30.508739 0.000000
v 6.403911 -30.743362 -1.653956
v 5.447491 -31.424265 -3.146011
v 3.957834 -32.484795 -4.330112
v 2.080757 -33.821140 -5.090352
v 2.252195 -35.302490 5.090352
v 4.283928 -35.302494 4.330112
v 5.896321 -35.302494 3.146011
v 6.931541 -35.302494 1.653956
v 7.288256 -35.302498 0.000000
v 6.931541 -35.302494 -1.653956
v 5.896321 -35.302494 -3.146011
v 4.283928 -35.302494 -4.330112
v 2.252195 -35.302490 -5.090352
v 2.080757 -36.783844 5.090352
v 3.957833 -38.120193 4.330112
v 5.447489 -39.180725 3.146011
v 6.403908 -39.861629 1.653956
v 6.733469 -40.096252 0.000000
v 6.403908 -39.861629 -1.653956
v 5.447489 -39.180725 -3.146011
v 3.957833 -38.120193 -4.330112
v 2.080757 -36.783844 -5.090352
v 1.592542 -38.039673 5.090352
v 3.029193 -40.508919 4.330112
v 4.169326 -42.468525 3.146011
v 4.901338 -43.726673 1.653956
v 5.153572 -44.160202 0.000000
v 4.901338 -43.726673 -1.653956
v 4.169326 -42.468525 -3.146011
v 3.029193 -40.508919 -4.330112
v 1.592542 -38.039673 -5.090352
v 0.861877 -38.878792 5.090352
v 1.639386 -42.105019 4.330112
v 2.256422 -44.665363 3.146011
v 2.652583 -46.309212 1.653956
v 2.789091 -46.875645 0.000000
v 2.652583 -46.309212 -1.653956
v 2.256422 -44.665363 -3.146011
v 1.639386 -42.105019 -4.330112
v 0.861877 -38.878792 -5.090352
v -0.000001 -39.173450 5.090352
v -0.000002 -42.665489 4.330112
v -0.000004 -47.216076 1.653956
v -0.000002 -42.665489 -4.330112
vn -0.1331 -0.3894 -0.9114
vn -0.3053 -0.8929 0.3310
vn -0.0725 -0.2122 0.9745
vn -0.0725 -0.2122 -0.9745
vn -0.3053 -0.8929 -0.3310
vn -0.1331 -0.3894 0.9114
vn -0.0231 -0.0675 -0.9975
vn -0.2146 -0.6276 -0.7484
vn -0.2146 -0.6276 0.7484
vn -0.0231 -0.0675 0.9975
vn -0.7249 -0.6312 0.2760
vn -0.2041 -0.1777 0.9627
vn -0.2041 -0.1777 -0.9627
vn -0.7249 -0.6312 -0.2760
vn -0.3643 -0.3172 0.8756
vn -0.0656 -0.0572 -0.9962
vn -0.5540 -0.4824 -0.6785
vn -0.5540 -0.4824 0.6785
vn -0.0656 -0.0572 0.9962
vn -0.3643 -0.3172 -0.8756
vn -0.0981 -0.0381 0.9945
vn -0.5177 -0.2013 -0.8316
vn -0.9069 -0.3526 0.2307
vn -0.3003 -0.1167 0.9467
vn -0.3003 -0.1167 -0.9467
vn -0.9069 -0.3526 -0.2307
vn -0.5177 -0.2013 0.8316
vn -0.0981 -0.0381 -0.9945
vn -0.7411 -0.2881 -0.6065
vn -0.7411 -0.2881 0.6065
vn -0.8179 -0.0947 -0.5675
vn -0.8179 -0.0947 0.5675
vn -0.1155 -0.0134 0.9932
vn -0.5905 -0.0683 -0.8041
vn -0.9713 -0.1124 0.2095
vn -0.3502 -0.0405 0.9358
vn -0.3502 -0.0405 -0.9358
vn -0.9713 -0.1124 -0.2095
vn -0.5905 -0.0683 0.8041
vn -0.1155 -0.0134 -0.9932
vn -0.5905 0.0683 0.8041
vn -0.1155 0.0134 -0.9932
vn -0.8179 0.0947 -0.5675
vn -0.8179 0.0947 0.5675
vn -0.1155 0.0134 0.9932
vn -0.5905 0.0683 -0.8041
vn -0.9713 0.1124 0.2095
vn -0.3502 0.0405 0.9358
vn -0.3502 0.0405 -0.9358
vn -0.9713 0.1124 -0.2095
vn -0.9069 0.3526 -0.2307
vn -0.5177 0.2013 0.8316
vn -0.0981 0.0381 -0.9945
vn -0.7411 0.2881 -0.6065
vn -0.7411 0.2881 0.6065
vn -0.0981 0.0381 0.9945
vn -0.5177 0.2013 -0.8316
vn -0.9069 0.3526 0.2307
vn -0.3003 0.1167 0.9467
vn -0.3003 0.1167 -0.9467
vn -0.2041 0.1777 0.9627
vn -0.2041 0.1777 -0.9627
vn -0.7249 0.6312 -0.2760
vn -0.3643 0.3172 0.8756
vn -0.0656 0.0572 -0.9962
vn -0.5540 0.4824 -0.6785
vn -0.5540 0.4824 0.6785
vn -0.0656 0.0572 0.9962
vn -0.3643 0.3172 -0.8756
vn -0.7249 0.6312 0.2760
vn -0.1331 0.3894 -0.9114
vn -0.3053 0.8929 0.3310
vn -0.0725 0.2122 0.9745
vn -0.0725 0.2122 -0.9745
vn -0.3053 0.8929 -0.3310
vn -0.1331 0.3894 0.9114
vn -0.0231 0.0675 -0.9975
vn -0.2146 0.6276 -0.7484
vn -0.2146 0.6276 0.7484
vn -0.0231 0.0675 0.9975
vn 0.2146 0.6276 0.7484
vn 0.0231 0.0675 0.9975
vn 0.1331 0.3894 -0.9114
vn 0.3053 0.8929 0.3310
vn 0.0725 0.2122 0.9745
vn 0.0725 0.2122 -0.9745
vn 0.3053 0.8929 -0.3310
vn 0.1331 0.3894 0.9114
vn 0.0231 0.0675 -0.9975
vn 0.2146 0.6276 -0.7484
vn 0.5540 0.4824 -0.6785
vn 0.5540 0.4824 0.6785
vn 0.0656 0.0572 0.9962
vn 0.3643 0.3172 -0.8756
vn 0.7249 0.6312 0.2760
vn 0.2041 0.1777 0.9627
vn 0.2041 0.1777 -0.9627
vn 0.7249 0.6312 -0.2760
vn 0.3643 0.3172 0.8756
vn 0.0656 0.0572 -0.9962
vn 0.5177 0.2013 0.8316
vn 0.0981 0.0381 -0.9945
vn 0.7411 0.2881 -0.6065
vn 0.7411 0.2881 0.6065
vn 0.0981 0.0381 0.9945
vn 0.5177 0.2013 -0.8316
vn 0.9069 0.3526 0.2307
vn 0.3003 0.1167 0.9467
vn 0.3003 0.1167 -0.9467
vn 0.9069 0.3526 -0.2307
vn 0.3502 0.0405 -0.9358
vn 0.9713 0.1124 -0.2095
vn 0.5905 0.0683 0.8041
vn 0.1155 0.0134 -0.9932
vn 0.8179 0.0947 -0.5675
vn 0.8179 0.0947 0.5675
vn 0.1155 0.0134 0.9932
vn 0.5905 0.0683 -0.8041
vn 0.9713 0.1124 0.2095
vn 0.3502 0.0405 0.9358
vn 0.9713 -0.1124 0.2095
vn 0.3502 -0.0405 0.9358
vn 0.3502 -0.0405 -0.9358
vn 0.9713 -0.1124 -0.2095
vn 0.5905 -0.0683 0.8041
vn 0.1155 -0.0134 -0.9932
vn 0.8179 -0.0947 -0.5675
vn 0.8179 -0.0947 0.5675
vn 0.1155 -0.0134 0.9932
vn 0.5905 -0.0683 -0.8041
vn 0.0981 -0.0381 0.9945
vn 0.5177 -0.2013 -0.8316
vn 0.9069 -0.3526 0.2307
vn 0.3003 -0.1167 0.9467
vn 0.3003 -0.1167 -0.9467
vn 0.9069 -0.3526 -0.2307
vn 0.5177 -0.2013 0.8316
vn 0.0981 -0.0381 -0.9945
vn 0.7411 -0.2881 -0.6065
vn 0.7411 -0.2881 0.6065
vn 0.5540 -0.4824 0.6785
vn 0.0656 -0.0572 0.9962
vn 0.3643 -0.3172 -0.8756
vn 0.7249 -0.6312 0.2760
vn 0.2041 -0.1777 0.9627
vn 0.2041 -0.1777 -0.9627
vn 0.7249 -0.6312 -0.2760
vn 0.3643 -0.3172 0.8756
vn 0.0656 -0.0572 -0.9962
vn 0.5540 -0.4824 -0.6785
vn 0.0231 -0.0675 -0.9975
vn 0.2146 -0.6276 -0.7484
vn 0.2146 -0.6276 0.7484
vn 0.0231 -0.0675 0.9975
vn 0.1331 -0.3894 -0.9114
vn 0.3053 -0.8929 0.3310
vn 0.0725 -0.2122 0.9745
vn 0.0725 -0.2122 -0.9745
vn 0.3053 -0.8929 -0.3310
vn 0.1331 -0.3894 0.9114
vt 0.750000 0.200000
vt 0.750000 0.300000
vt 0.687500 0.300000
vt 0.687500 0.200000
vt 0.750000 0.500000
vt 0.750000 0.600000
vt 0.687500 0.600000
vt 0.687500 0.500000
vt 0.750000 0.800000
vt 0.750000 0.900000
vt 0.687500 0.900000
vt 0.687500 0.800000
vt 0.750000 0.100000
vt 0.687500 0.100000
vt 0.750000 0.400000
vt 0.687500 0.400000
vt 0.750000 0.700000
vt 0.687500 0.700000
vt 0.718750 0.000000
vt 0.718750 1.000000
vt 0.625000 0.600000
vt 0.625000 0.500000
vt 0.625000 0.900000
vt 0.625000 0.800000
vt 0.625000 0.200000
vt 0.625000 0.100000
vt 0.625000 0.400000
vt 0.625000 0.700000
vt 0.656250 0.000000
vt 0.625000 0.300000
vt 0.656250 1.000000
vt 0.593750 1.000000
vt 0.562500 0.900000
vt 0.562500 0.300000
vt 0.562500 0.200000
vt 0.562500 0.600000
vt 0.562500 0.500000
vt 0.562500 0.800000
vt 0.562500 0.100000
vt 0.562500 0.400000
vt 0.562500 0.700000
vt 0.593750 0.000000
vt 0.500000 0.400000
vt 0.500000 0.300000
vt 0.500000 0.700000
vt 0.500000 0.600000
vt 0.531250 1.000000
vt 0.500000 0.900000
vt 0.500000 0.200000
vt 0.500000 0.500000
vt 0.500000 0.800000
vt 0.500000 0.100000
vt 0.531250 0.000000
vt 0.437500 0.800000
vt 0.437500 0.700000
vt 0.468750 0.000000
vt 0.437500 0.100000
vt 0.437500 0.400000
vt 0.437500 0.300000
vt 0.437500 0.600000
vt 0.468750 1.000000
vt 0.437500 0.900000
vt 0.437500 0.200000
vt 0.437500 0.500000
vt 0.375000 0.500000
vt 0.375000 0.400000
vt 0.375000 0.800000
vt 0.375000 0.700000
vt 0.406250 0.000000
vt 0.375000 0.100000
vt 0.375000 0.300000
vt 0.375000 0.600000
vt 0.406250 1.000000
vt 0.375000 0.900000
vt 0.375000 0.200000
vt 0.312500 0.900000
vt 0.312500 0.800000
vt 0.312500 0.200000
vt 0.312500 0.100000
vt 0.312500 0.500000
vt 0.312500 0.400000
vt 0.312500 0.700000
vt 0.343750 0.000000
vt 0.312500 0.300000
vt 0.312500 0.600000
vt 0.343750 1.000000
vt 0.250000 0.300000
vt 0.250000 0.200000
vt 0.250000 0.600000
vt 0.250000 0.500000
vt 0.250000 0.900000
vt 0.250000 0.800000
vt 0.250000 0.100000
vt 0.250000 0.400000
vt 0.250000 0.700000
vt 0.281250 0.000000
vt 0.281250 1.000000
vt 0.187500 0.700000
vt 0.187500 0.600000
vt 0.218750 1.000000
vt 0.187500 0.900000
vt 0.187500 0.300000
vt 0.187500 0.200000
vt 0.187500 0.500000
vt 0.187500 0.800000
vt 0.187500 0.100000
vt 0.187500 0.400000
vt 0.218750 0.000000
vt 0.125000 0.400000
vt 0.125000 0.300000
vt 0.125000 0.700000
vt 0.125000 0.600000
vt 0.156250 1.000000
vt 0.125000 0.900000
vt 0.125000 0.200000
vt 0.125000 0.500000
vt 0.125000 0.800000
vt 0.125000 0.100000
vt 0.156250 0.000000
vt 0.062500 0.800000
vt 0.062500 0.700000
vt 0.093750 0.000000
vt 0.062500 0.100000
vt 0.062500 0.400000
vt 0.062500 0.300000
vt 0.062500 0.600000
vt 0.093750 1.000000
vt 0.062500 0.900000
vt 0.062500 0.200000
vt 0.062500 0.500000
vt 0.000000 0.200000
vt 0.000000 0.100000
vt 0.000000 0.500000
vt 0.000000 0.400000
vt 0.000000 0.800000
vt 0.000000 0.700000
vt 0.031250 0.000000
vt 0.000000 0.300000
vt 0.000000 0.600000
vt 0.031250 1.000000
vt 0.000000 0.900000
vt 1.000000 0.500000
vt 1.000000 0.600000
vt 0.937500 0.600000
vt 0.937500 0.500000
vt 1.000000 0.800000
vt 1.000000 0.900000
vt 0.937500 0.900000
vt 0.937500 0.800000
vt 1.000000 0.100000
vt 1.000000 0.200000
vt 0.937500 0.200000
vt 0.937500 0.100000
vt 1.000000 0.400000
vt 0.937500 0.400000
vt 1.000000 0.700000
vt 0.937500 0.700000
vt 0.968750 0.000000
vt 1.000000 0.300000
vt 0.937500 0.300000
vt 0.968750 1.000000
vt 0.906250 1.000000
vt 0.875000 0.900000
vt 0.875000 0.300000
vt 0.875000 0.200000
vt 0.875000 0.600000
vt 0.875000 0.500000
vt 0.875000 0.800000
vt 0.875000 0.100000
vt 0.875000 0.400000
vt 0.875000 0.700000
vt 0.906250 0.000000
vt 0.812500 0.700000
vt 0.812500 0.600000
vt 0.843750 1.000000
vt 0.812500 0.900000
vt 0.812500 0.300000
vt 0.812500 0.200000
vt 0.812500 0.500000
vt 0.812500 0.800000
vt 0.812500 0.100000
vt 0.812500 0.400000
vt 0.843750 0.000000
vt 0.781250 0.000000
vt 0.781250 1.000000
s 0
f 162/29/13 21/30/13 30/31/13 31/32/13
f 19/33/14 161/34/14 27/35/14 28/36/14
f 160/37/15 159/38/15 24/39/15 25/40/15
f 22/41/16 162/29/16 31/32/16 32/42/16
f 20/43/17 19/33/17 28/36/17 29/44/17
f 18/45/18 160/37/18 25/40/18 26/46/18
f 23/47/19 22/41/19 32/42/19
f 21/30/20 20/43/20 29/44/20 30/31/20
f 161/34/21 18/45/21 26/46/21 27/35/21
f 159/38/22 17/48/22 24/39/22
f 28/36/23 27/35/23 36/49/23 37/50/23
f 25/40/24 24/39/24 33/51/24 34/52/24
f 32/42/25 31/32/25 40/53/25 41/54/25
f 29/44/26 28/36/26 37/50/26 38/55/26
f 26/46/27 25/40/27 34/52/27 35/56/27
f 23/57/28 32/42/28 41/54/28
f 30/31/29 29/44/29 38/55/29 39/58/29
f 27/35/30 26/46/30 35/56/30 36/49/30
f 24/39/31 17/59/31 33/51/31
f 31/32/32 30/31/32 39/58/32 40/53/32
f 33/51/33 17/60/33 42/61/33
f 40/53/34 39/58/34 48/62/34 49/63/34
f 37/50/35 36/49/35 45/64/35 46/65/35
f 34/52/36 33/51/36 42/61/36 43/66/36
f 41/54/37 40/53/37 49/63/37 50/67/37
f 38/55/38 37/50/38 46/65/38 47/68/38
f 35/56/39 34/52/39 43/66/39 44/69/39
f 23/70/40 41/54/40 50/67/40
f 39/58/41 38/55/41 47/68/41 48/62/41
f 36/49/42 35/56/42 44/69/42 45/64/42
f 48/62/43 47/68/43 56/71/43 57/72/43
f 45/64/44 44/69/44 53/73/44 54/74/44
f 42/61/45 17/75/45 51/76/45
f 49/63/46 48/62/46 57/72/46 58/77/46
f 46/65/47 45/64/47 54/74/47 55/78/47
f 43/66/48 42/61/48 51/76/48 52/79/48
f 50/67/49 49/63/49 58/77/49 59/80/49
f 47/68/50 46/65/50 55/78/50 56/71/50
f 44/69/51 43/66/51 52/79/51 53/73/51
f 23/81/52 50/67/52 59/80/52
f 53/73/53 52/79/53 61/82/53 62/83/53
f 23/84/54 59/80/54 68/85/54
f 57/72/55 56/71/55 65/86/55 66/87/55
f 54/74/56 53/73/56 62/83/56 63/88/56
f 51/76/57 17/89/57 60/90/57
f 58/77/58 57/72/58 66/87/58 67/91/58
f 55/78/59 54/74/59 63/88/59 64/92/59
f 52/79/60 51/76/60 60/90/60 61/82/60
f 59/80/61 58/77/61 67/91/61 68/85/61
f 56/71/62 55/78/62 64/92/62 65/86/62
f 65/86/63 64/92/63 73/93/63 74/94/63
f 62/83/64 61/82/64 70/95/64 71/96/64
f 23/97/65 68/85/65 77/98/65
f 66/87/66 65/86/66 74/94/66 75/99/66
f 63/88/67 62/83/67 71/96/67 72/100/67
f 60/90/68 17/101/68 69/102/68
f 67/91/69 66/87/69 75/99/69 76/103/69
f 64/92/70 63/88/70 72/100/70 73/93/70
f 61/82/71 60/90/71 69/102/71 70/95/71
f 68/85/72 67/91/72 76/103/72 77/98/72
f 70/95/73 69/102/73 78/104/73 79/105/73
f 77/98/74 76/103/74 85/106/74 86/107/74
f 74/94/75 73/93/75 82/108/75 83/109/75
f 71/96/76 70/95/76 79/105/76 80/110/76
f 23/111/77 77/98/77 86/107/77
f 75/99/78 74/94/78 83/109/78 84/112/78
f 72/100/79 71/96/79 80/110/79 81/113/79
f 69/102/80 17/114/80 78/104/80
f 76/103/81 75/99/81 84/112/81 85/106/81
f 73/93/82 72/100/82 81/113/82 82/108/82
f 85/106/83 84/112/83 93/115/83 94/116/83
f 82/108/84 81/113/84 90/117/84 91/118/84
f 79/105/85 78/104/85 87/119/85 88/120/85
f 86/107/86 85/106/86 94/116/86 95/121/86
f 83/109/87 82/108/87 91/118/87 92/122/87
f 80/110/88 79/105/88 88/120/88 89/123/88
f 23/124/89 86/107/89 95/121/89
f 84/112/90 83/109/90 92/122/90 93/115/90
f 81/113/91 80/110/91 89/123/91 90/117/91
f 78/104/92 17/125/92 87/119/92
f 90/117/93 89/123/93 98/126/93 99/127/93
f 87/119/94 17/128/94 96/129/94
f 94/116/95 93/115/95 102/130/95 103/131/95
f 91/118/96 90/117/96 99/127/96 100/132/96
f 88/120/97 87/119/97 96/129/97 97/133/97
f 95/121/98 94/116/98 103/131/98 104/134/98
f 92/122/99 91/118/99 100/132/99 101/135/99
f 89/123/100 88/120/100 97/133/100 98/126/100
f 23/136/101 95/121/101 104/134/101
f 93/115/102 92/122/102 101/135/102 102/130/102
f 102/130/103 101/135/103 110/137/103 111/138/103
f 99/127/104 98/126/104 107/139/104 108/140/104
f 96/129/105 17/141/105 105/142/105
f 103/131/106 102/130/106 111/138/106 112/143/106
f 100/132/107 99/127/107 108/140/107 109/144/107
f 97/133/108 96/129/108 105/142/108 106/145/108
f 104/134/109 103/131/109 112/143/109 113/146/109
f 101/135/110 100/132/110 109/144/110 110/137/110
f 98/126/111 97/133/111 106/145/111 107/139/111
f 23/147/112 104/134/112 113/146/112
f 107/139/113 106/145/113 115/148/113 116/149/113
f 23/150/114 113/146/114 122/151/114
f 111/138/115 110/137/115 119/152/115 120/153/115
f 108/140/116 107/139/116 116/149/116 117/154/116
f 105/142/117 17/155/117 114/156/117
f 112/143/118 111/138/118 120/153/118 121/157/118
f 109/144/119 108/140/119 117/154/119 118/158/119
f 106/145/120 105/142/120 114/156/120 115/148/120
f 113/146/121 112/143/121 121/157/121 122/151/121
f 110/137/122 109/144/122 118/158/122 119/152/122
f 122/151/123 121/157/123 130/159/123 131/160/123
f 119/152/124 118/158/124 127/161/124 128/162/124
f 116/149/125 115/148/125 124/163/125 125/164/125
f 23/165/126 122/151/126 131/160/126
f 120/153/127 119/152/127 128/162/127 129/166/127
f 117/154/128 116/149/128 125/164/128 126/167/128
f 114/156/129 17/168/129 123/169/129
f 121/157/130 120/153/130 129/166/130 130/159/130
f 118/158/131 117/154/131 126/167/131 127/161/131
f 115/148/132 114/156/132 123/169/132 124/163/132
f 127/170/133 126/171/133 135/172/133 136/173/133
f 124/174/134 123/175/134 132/176/134 133/177/134
f 131/178/135 130/179/135 139/180/135 140/181/135
f 128/182/136 127/170/136 136/173/136 137/183/136
f 125/184/137 124/174/137 133/177/137 134/185/137
f 23/186/138 131/178/138 140/181/138
f 129/187/139 128/182/139 137/183/139 138/188/139
f 126/171/140 125/184/140 134/185/140 135/172/140
f 123/175/141 17/189/141 132/176/141
f 130/179/142 129/187/142 138/188/142 139/180/142
f 132/176/143 17/190/143 141/191/143
f 139/180/144 138/188/144 147/192/144 148/193/144
f 136/173/145 135/172/145 144/194/145 145/195/145
f 133/177/146 132/176/146 141/191/146 142/196/146
f 140/181/147 139/180/147 148/193/147 149/197/147
f 137/183/148 136/173/148 145/195/148 146/198/148
f 134/185/149 133/177/149 142/196/149 143/199/149
f 23/200/150 140/181/150 149/197/150
f 138/188/151 137/183/151 146/198/151 147/192/151
f 135/172/152 134/185/152 143/199/152 144/194/152
f 144/194/153 143/199/153 152/201/153 153/202/153
f 141/191/154 17/203/154 150/204/154
f 148/193/155 147/192/155 156/205/155 157/206/155
f 145/195/156 144/194/156 153/202/156 154/207/156
f 142/196/157 141/191/157 150/204/157 151/208/157
f 149/197/158 148/193/158 157/206/158 158/209/158
f 146/198/159 145/195/159 154/207/159 155/210/159
f 143/199/160 142/196/160 151/208/160 152/201/160
f 23/211/161 149/197/161 158/209/161
f 147/192/162 146/198/162 155/210/162 156/205/162
f 23/212/163 158/209/163 22/41/163
f 156/205/164 155/210/164 20/43/164 21/30/164
f 153/202/165 152/201/165 18/45/165 161/34/165
f 150/204/166 17/213/166 159/38/166
f 157/206/167 156/205/167 21/30/167 162/29/167
f 154/207/168 153/202/168 161/34/168 19/33/168
f 151/208/169 150/204/169 159/38/169 160/37/169
f 158/209/170 157/206/170 162/29/170 22/41/170
f 155/210/171 154/207/171 19/33/171 20/43/171
f 152/201/172 151/208/172 160/37/172 18/45/172
o neck
v 0.000000 -51.814945 3.416370
v 0.000000 -46.120995 3.416370
v -1.307388 -51.814945 3.156314
v -1.307388 -46.120995 3.156314
v -2.415738 -51.814945 2.415739
v -2.415738 -46.120998 2.415738
v -3.156314 -51.814945 1.307388
v -3.156314 -46.120998 1.307388
v -3.416370 -51.814945 0.000000
v -3.416370 -46.120998 -0.000000
v -3.156314 -51.814945 -1.307388
v -3.156314 -46.120998 -1.307388
v -2.415738 -51.814945 -2.415738
v -2.415738 -46.120998 -2.415739
v -1.307388 -51.814949 -3.156314
v -1.307388 -46.120998 -3.156314
v 0.000000 -51.814949 -3.416370
v 0.000000 -46.120998 -3.416370
v 1.307388 -51.814949 -3.156314
v 1.307388 -46.120998 -3.156314
v 2.415738 -51.814945 -2.415738
v 2.415738 -46.120998 -2.415739
v 3.156314 -51.814945 -1.307388
v 3.156314 -46.120998 -1.307388
v 3.416370 -51.814945 0.000000
v 3.416370 -46.120998 -0.000000
v 3.156314 -51.814945 1.307388
v 3.156314 -46.120998 1.307388
v 2.415738 -51.814945 2.415739
v 2.415738 -46.120998 2.415738
v 1.307388 -51.814945 3.156314
v 1.307388 -46.120995 3.156314
vn -0.1951 -0.0000 0.9808
vn -0.5556 -0.0000 0.8315
vn -0.8315 -0.0000 0.5556
vn -0.9808 -0.0000 0.1951
vn -0.9808 -0.0000 -0.1951
vn -0.8315 -0.0000 -0.5556
vn -0.5556 -0.0000 -0.8315
vn -0.1951 -0.0000 -0.9808
vn 0.1951 -0.0000 -0.9808
vn 0.5556 -0.0000 -0.8315
vn 0.8315 -0.0000 -0.5556
vn 0.9808 -0.0000 -0.1951
vn 0.9808 -0.0000 0.1951
vn 0.8315 -0.0000 0.5556
vn -0.0000 1.0000 -0.0000
vn 0.5556 -0.0000 0.8315
vn 0.1951 -0.0000 0.9808
vn -0.0000 -1.0000 -0.0000
vt 1.000000 0.500000
vt 1.000000 1.000000
vt 0.937500 1.000000
vt 0.937500 0.500000
vt 0.875000 1.000000
vt 0.875000 0.500000
vt 0.812500 1.000000
vt 0.812500 0.500000
vt 0.750000 1.000000
vt 0.750000 0.500000
vt 0.687500 1.000000
vt 0.687500 0.500000
vt 0.625000 1.000000
vt 0.625000 0.500000
vt 0.562500 1.000000
vt 0.562500 0.500000
vt 0.500000 1.000000
vt 0.500000 0.500000
vt 0.437500 1.000000
vt 0.437500 0.500000
vt 0.375000 1.000000
vt 0.375000 0.500000
vt 0.312500 1.000000
vt 0.312500 0.500000
vt 0.250000 1.000000
vt 0.250000 0.500000
vt 0.187500 1.000000
vt 0.187500 0.500000
vt 0.125000 1.000000
vt 0.125000 0.500000
vt 0.341844 0.471731
vt 0.250000 0.490000
vt 0.158156 0.471731
vt 0.080294 0.419706
vt 0.028269 0.341844
vt 0.010000 0.250000
vt 0.028269 0.158156
vt 0.080294 0.080294
vt 0.158156 0.028269
vt 0.250000 0.010000
vt 0.341844 0.028269
vt 0.419706 0.080294
vt 0.471731 0.158156
vt 0.490000 0.250000
vt 0.471731 0.341844
vt 0.419706 0.419706
vt 0.062500 1.000000
vt 0.062500 0.500000
vt 0.000000 1.000000
vt 0.000000 0.500000
vt 0.750000 0.490000
vt 0.841844 0.471731
vt 0.919706 0.419706
vt 0.971731 0.341844
vt 0.990000 0.250000
vt 0.971731 0.158156
vt 0.919706 0.080294
vt 0.841844 0.028269
vt 0.750000 0.010000
vt 0.658156 0.028269
vt 0.580294 0.080294
vt 0.528269 0.158156
vt 0.510000 0.250000
vt 0.528269 0.341844
vt 0.580294 0.419706
vt 0.658156 0.471731
s 0
f 163/214/173 164/215/173 166/216/173 165/217/173
f 165/217/174 166/216/174 168/218/174 167/219/174
f 167/219/175 168/218/175 170/220/175 169/221/175
f 169/221/176 170/220/176 172/222/176 171/223/176
f 171/223/177 172/222/177 174/224/177 173/225/177
f 173/225/178 174/224/178 176/226/178 175/227/178
f 175/227/179 176/226/179 178/228/179 177/229/179
f 177/229/180 178/228/180 180/230/180 179/231/180
f 179/231/181 180/230/181 182/232/181 181/233/181
f 181/233/182 182/232/182 184/234/182 183/235/182
f 183/235/183 184/234/183 186/236/183 185/237/183
f 185/237/184 186/236/184 188/238/184 187/239/184
f 187/239/185 188/238/185 190/240/185 189/241/185
f 189/241/186 190/240/186 192/242/186 191/243/186
f 166/244/187 164/245/187 194/246/187 192/247/187 190/248/187 188/249/187 186/250/187 184/251/187 182/252/187 180/253/187 178/254/187 176/255/187 174/256/187 172/257/187 170/258/187 168/259/187
f 191/243/188 192/242/188 194/260/188 193/261/188
f 193/261/189 194/260/189 164/262/189 163/263/189
f 163/264/190 165/265/190 167/266/190 169/267/190 171/268/190 173/269/190 175/270/190 177/271/190 179/272/190 181/273/190 183/274/190 185/275/190 187/276/190 189/277/190 191/278/190 193/279/190
o head
v 0.000000 -58.078293 5.124555
v 0.000000 -62.869057 3.012138
v 0.000000 -64.000000 0.000000
v 0.000000 -63.710171 -1.583575
v 0.000000 -62.869057 -3.012138
v 0.000000 -59.908203 -4.873742
v 0.000000 -58.078293 -5.124555
v -0.646408 -59.768909 4.873742
v -1.229542 -61.294033 4.145852
v -1.692319 -62.504379 3.012138
v -1.989440 -63.281471 1.583575
v -2.091821 -63.549236 0.000000
v -1.989440 -63.281471 -1.583575
v -1.692319 -62.504379 -3.012138
v -1.229542 -61.294033 -4.145852
v -0.646408 -59.768909 -4.873742
v -1.194407 -59.372234 4.873742
v -2.271897 -60.539513 4.145852
v -3.126998 -61.465874 3.012138
v -3.676006 -62.060631 1.583575
v -3.865182 -62.265572 0.000000
v -3.676006 -62.060631 -1.583575
v -3.126998 -61.465874 -3.012138
v -2.271897 -60.539513 -4.145852
v -1.194407 -59.372234 -4.873742
v -1.560568 -58.778568 4.873742
v -2.968376 -59.410297 4.145852
v -4.085619 -59.911636 3.012138
v -4.802933 -60.233521 1.583575
v -5.050104 -60.344433 0.000000
v -4.802933 -60.233521 -1.583575
v -4.085619 -59.911636 -3.012138
v -2.968376 -59.410297 -4.145852
v -1.560568 -58.778568 -4.873742
v -1.689146 -58.078293 4.873742
v -3.212947 -58.078293 4.145852
v -4.422242 -58.078293 3.012138
v -5.198658 -58.078293 1.583575
v -5.466192 -58.078293 0.000000
v -5.198658 -58.078293 -1.583575
v -4.422242 -58.078293 -3.012138
v -3.212947 -58.078293 -4.145852
v -1.689146 -58.078293 -4.873742
v -1.560567 -57.378017 4.873742
v -2.968375 -56.746288 4.145852
v -4.085618 -56.244946 3.012138
v -4.802933 -55.923065 1.583575
v -5.050103 -55.812153 0.000000
v -4.802933 -55.923065 -1.583575
v -4.085618 -56.244946 -3.012138
v -2.968375 -56.746288 -4.145852
v -1.560567 -57.378017 -4.873742
v -1.194407 -56.784351 4.873742
v -2.271896 -55.617073 4.145852
v -3.126996 -54.690712 3.012138
v -3.676005 -54.095951 1.583575
v -3.865181 -53.891014 0.000000
v -3.676005 -54.095951 -1.583575
v -3.126996 -54.690712 -3.012138
v -2.271896 -55.617073 -4.145852
v -1.194407 -56.784351 -4.873742
v -0.646408 -56.387676 4.873742
v -1.229541 -54.862553 4.145852
v -1.692317 -53.652206 3.012138
v -1.989439 -52.875114 1.583575
v -2.091820 -52.607346 0.000000
v -1.989439 -52.875114 -1.583575
v -1.692317 -53.652206 -3.012138
v -1.229541 -54.862553 -4.145852
v -0.646408 -56.387676 -4.873742
v 0.000000 -56.248383 4.873742
v 0.000001 -54.597603 4.145852
v 0.000001 -53.287533 3.012138
v 0.000001 -52.446415 1.583575
v 0.000002 -52.156586 0.000000
v 0.000001 -52.446415 -1.583575
v 0.000001 -53.287533 -3.012138
v 0.000001 -54.597603 -4.145852
v 0.000000 -56.248383 -4.873742
v 0.646409 -56.387680 4.873742
v 1.229542 -54.862553 4.145852
v 1.692320 -53.652206 3.012138
v 1.989441 -52.875118 1.583575
v 2.091823 -52.607349 0.000000
v 1.989441 -52.875118 -1.583575
v 1.692320 -53.652206 -3.012138
v 1.229542 -54.862553 -4.145852
v 0.646409 -56.387680 -4.873742
v 1.194407 -56.784351 4.873742
v 2.271897 -55.617073 4.145852
v 3.126998 -54.690716 3.012138
v 3.676007 -54.095955 1.583575
v 3.865183 -53.891014 0.000000
v 3.676007 -54.095955 -1.583575
v 3.126998 -54.690716 -3.012138
v 2.271897 -55.617073 -4.145852
v 1.194407 -56.784351 -4.873742
v 1.560568 -57.378017 4.873742
v 2.968376 -56.746292 4.145852
v 4.085618 -56.244949 3.012138
v 4.802933 -55.923069 1.583575
v 5.050104 -55.812157 0.000000
v 4.802933 -55.923069 -1.583575
v 4.085618 -56.244949 -3.012138
v 2.968376 -56.746292 -4.145852
v 1.560568 -57.378017 -4.873742
v 1.689147 -58.078293 4.873742
v 3.212946 -58.078293 4.145852
v 4.422241 -58.078297 3.012138
v 5.198656 -58.078297 1.583575
v 5.466192 -58.078297 0.000000
v 5.198656 -58.078297 -1.583575
v 4.422241 -58.078297 -3.012138
v 3.212946 -58.078293 -4.145852
v 1.689147 -58.078293 -4.873742
v 1.560567 -58.778568 4.873742
v 2.968375 -59.410297 4.145852
v 4.085617 -59.911640 3.012138
v 4.802931 -60.233521 1.583575
v 5.050102 -60.344437 0.000000
v 4.802931 -60.233521 -1.583575
v 4.085617 -59.911640 -3.012138
v 2.968375 -59.410297 -4.145852
v 1.560567 -58.778568 -4.873742
v 1.194406 -59.372234 4.873742
v 2.271895 -60.539513 4.145852
v 3.126995 -61.465874 3.012138
v 3.676003 -62.060635 1.583575
v 3.865179 -62.265575 0.000000
v 3.676003 -62.060635 -1.583575
v 3.126995 -61.465874 -3.012138
v 2.271895 -60.539513 -4.145852
v 1.194406 -59.372234 -4.873742
v 0.646408 -59.768909 4.873742
v 1.229540 -61.294033 4.145852
v 1.692316 -62.504379 3.012138
v 1.989437 -63.281471 1.583575
v 2.091818 -63.549240 0.000000
v 1.989437 -63.281471 -1.583575
v 1.692316 -62.504379 -3.012138
v 1.229540 -61.294033 -4.145852
v 0.646408 -59.768909 -4.873742
v -0.000001 -59.908203 4.873742
v -0.000002 -61.558983 4.145852
v -0.000003 -63.710171 1.583575
v -0.000002 -61.558983 -4.145852
vn -0.1826 -0.8472 -0.4988
vn -0.1826 -0.8472 0.4988
vn -0.0292 -0.1357 0.9903
vn -0.1396 -0.6480 -0.7488
vn -0.2074 -0.9623 0.1761
vn -0.0866 -0.4019 0.9116
vn -0.0866 -0.4019 -0.9116
vn -0.2074 -0.9623 -0.1761
vn -0.1396 -0.6480 0.7488
vn -0.0292 -0.1357 -0.9903
vn -0.5110 -0.7060 -0.4903
vn -0.5110 -0.7060 0.4903
vn -0.0833 -0.1150 0.9899
vn -0.3936 -0.5438 -0.7412
vn -0.5776 -0.7979 0.1723
vn -0.2457 -0.3394 0.9080
vn -0.2457 -0.3394 -0.9080
vn -0.5776 -0.7979 -0.1723
vn -0.3936 -0.5438 0.7412
vn -0.0833 -0.1150 -0.9899
vn -0.5809 -0.3583 0.7309
vn -0.1245 -0.0768 -0.9892
vn -0.7471 -0.4608 -0.4790
vn -0.7471 -0.4608 0.4790
vn -0.1245 -0.0768 0.9892
vn -0.5809 -0.3583 -0.7309
vn -0.8391 -0.5176 0.1672
vn -0.3657 -0.2255 0.9030
vn -0.3657 -0.2255 -0.9030
vn -0.8391 -0.5176 -0.1672
vn -0.9703 -0.1781 -0.1639
vn -0.6786 -0.1246 0.7239
vn -0.1468 -0.0270 -0.9888
vn -0.8674 -0.1593 -0.4714
vn -0.8674 -0.1593 0.4714
vn -0.1468 -0.0270 0.9888
vn -0.6786 -0.1246 -0.7239
vn -0.9703 -0.1781 0.1639
vn -0.4297 -0.0789 0.8995
vn -0.4297 -0.0789 -0.8995
vn -0.4297 0.0789 0.8995
vn -0.4297 0.0789 -0.8995
vn -0.9703 0.1781 -0.1639
vn -0.6786 0.1246 0.7239
vn -0.1468 0.0270 -0.9888
vn -0.8674 0.1593 -0.4714
vn -0.8674 0.1593 0.4714
vn -0.1468 0.0270 0.9888
vn -0.6786 0.1246 -0.7239
vn -0.9703 0.1781 0.1639
vn -0.5809 0.3583 -0.7309
vn -0.8391 0.5176 0.1672
vn -0.3657 0.2255 0.9030
vn -0.3657 0.2255 -0.9030
vn -0.8391 0.5176 -0.1672
vn -0.5809 0.3583 0.7309
vn -0.1245 0.0768 -0.9892
vn -0.7471 0.4608 -0.4790
vn -0.7471 0.4608 0.4790
vn -0.1245 0.0768 0.9892
vn -0.5110 0.7060 0.4903
vn -0.0833 0.1150 0.9899
vn -0.3936 0.5438 -0.7412
vn -0.5776 0.7979 0.1723
vn -0.2457 0.3394 0.9080
vn -0.2457 0.3394 -0.9080
vn -0.5776 0.7979 -0.1723
vn -0.3936 0.5438 0.7412
vn -0.0833 0.1150 -0.9899
vn -0.5110 0.7060 -0.4903
vn -0.1826 0.8472 -0.4988
vn -0.1826 0.8472 0.4988
vn -0.0292 0.1357 0.9903
vn -0.1396 0.6480 -0.7488
vn -0.2074 0.9623 0.1761
vn -0.0866 0.4019 0.9116
vn -0.0866 0.4019 -0.9116
vn -0.2074 0.9623 -0.1761
vn -0.1396 0.6480 0.7488
vn -0.0292 0.1357 -0.9903
vn 0.1396 0.6480 0.7488
vn 0.0292 0.1357 -0.9903
vn 0.1826 0.8472 -0.4988
vn 0.1826 0.8472 0.4988
vn 0.0292 0.1357 0.9903
vn 0.1396 0.6480 -0.7488
vn 0.2074 0.9623 0.1761
vn 0.0866 0.4019 0.9116
vn 0.0866 0.4019 -0.9116
vn 0.2074 0.9623 -0.1761
vn 0.2457 0.3394 -0.9080
vn 0.5776 0.7979 -0.1723
vn 0.3936 0.5438 0.7412
vn 0.0833 0.1150 -0.9899
vn 0.5110 0.7060 -0.4903
vn 0.5110 0.7060 0.4903
vn 0.0833 0.1150 0.9899
vn 0.3936 0.5438 -0.7412
vn 0.5776 0.7979 0.1723
vn 0.2457 0.3394 0.9080
vn 0.8391 0.5176 0.1672
vn 0.3657 0.2255 0.9030
vn 0.3657 0.2255 -0.9030
vn 0.8391 0.5176 -0.1672
vn 0.5809 0.3583 0.7309
vn 0.1245 0.0768 -0.9892
vn 0.7471 0.4608 -0.4790
vn 0.7471 0.4608 0.4790
vn 0.1245 0.0768 0.9892
vn 0.5809 0.3583 -0.7309
vn 0.1468 0.0270 0.9888
vn 0.6786 0.1246 -0.7239
vn 0.9703 0.1781 0.1639
vn 0.4297 0.0789 0.8995
vn 0.4297 0.0789 -0.8995
vn 0.9703 0.1781 -0.1639
vn 0.6786 0.1246 0.7239
vn 0.1468 0.0270 -0.9888
vn 0.8674 0.1593 -0.4714
vn 0.8674 0.1593 0.4714
vn 0.8674 -0.1593 0.4714
vn 0.1468 -0.0270 0.9888
vn 0.6786 -0.1246 -0.7239
vn 0.9703 -0.1782 0.1639
vn 0.4297 -0.0789 0.8995
vn 0.4297 -0.0789 -0.8995
vn 0.9703 -0.1782 -0.1639
vn 0.6786 -0.1246 0.7239
vn 0.1468 -0.0270 -0.9888
vn 0.8674 -0.1593 -0.4714
vn 0.1245 -0.0768 -0.9892
vn 0.7471 -0.4608 -0.4790
vn 0.7471 -0.4608 0.4790
vn 0.1245 -0.0768 0.9892
vn 0.5809 -0.3583 -0.7309
vn 0.8391 -0.5176 0.1672
vn 0.3657 -0.2255 0.9030
vn 0.3657 -0.2255 -0.9030
vn 0.8391 -0.5176 -0.1672
vn 0.5809 -0.3583 0.7309
vn 0.5776 -0.7979 -0.1723
vn 0.3936 -0.5438 0.7412
vn 0.0833 -0.1150 -0.9899
vn 0.5110 -0.7060 -0.4903
vn 0.5110 -0.7060 0.4903
vn 0.0833 -0.1150 0.9899
vn 0.3936 -0.5438 -0.7412
vn 0.5776 -0.7979 0.1723
vn 0.2457 -0.3394 0.9080
vn 0.2457 -0.3394 -0.9080
vn 0.0866 -0.4019 0.9116
vn 0.0866 -0.4019 -0.9116
vn 0.2074 -0.9623 -0.1761
vn 0.1396 -0.6480 0.7488
vn 0.0292 -0.1357 -0.9903
vn 0.1826 -0.8472 -0.4988
vn 0.1826 -0.8472 0.4988
vn 0.0292 -0.1357 0.9903
vn 0.1396 -0.6480 -0.7488
vn 0.2074 -0.9623 0.1761
vt 0.750000 0.300000
vt 0.750000 0.400000
vt 0.687500 0.400000
vt 0.687500 0.300000
vt 0.750000 0.600000
vt 0.750000 0.700000
vt 0.687500 0.700000
vt 0.687500 0.600000
vt 0.750000 0.900000
vt 0.718750 1.000000
vt 0.687500 0.900000
vt 0.750000 0.200000
vt 0.687500 0.200000
vt 0.750000 0.500000
vt 0.687500 0.500000
vt 0.750000 0.800000
vt 0.687500 0.800000
vt 0.750000 0.100000
vt 0.687500 0.100000
vt 0.718750 0.000000
vt 0.625000 0.400000
vt 0.625000 0.300000
vt 0.625000 0.700000
vt 0.625000 0.600000
vt 0.656250 1.000000
vt 0.625000 0.900000
vt 0.625000 0.200000
vt 0.625000 0.500000
vt 0.625000 0.800000
vt 0.625000 0.100000
vt 0.656250 0.000000
vt 0.562500 0.800000
vt 0.562500 0.700000
vt 0.593750 0.000000
vt 0.562500 0.100000
vt 0.562500 0.400000
vt 0.562500 0.300000
vt 0.562500 0.600000
vt 0.593750 1.000000
vt 0.562500 0.900000
vt 0.562500 0.200000
vt 0.562500 0.500000
vt 0.500000 0.500000
vt 0.500000 0.400000
vt 0.500000 0.800000
vt 0.500000 0.700000
vt 0.531250 0.000000
vt 0.500000 0.100000
vt 0.500000 0.300000
vt 0.500000 0.600000
vt 0.531250 1.000000
vt 0.500000 0.900000
vt 0.500000 0.200000
vt 0.437500 0.900000
vt 0.437500 0.800000
vt 0.437500 0.200000
vt 0.437500 0.100000
vt 0.437500 0.500000
vt 0.437500 0.400000
vt 0.437500 0.700000
vt 0.468750 0.000000
vt 0.437500 0.300000
vt 0.437500 0.600000
vt 0.468750 1.000000
vt 0.375000 0.300000
vt 0.375000 0.200000
vt 0.375000 0.600000
vt 0.375000 0.500000
vt 0.375000 0.900000
vt 0.375000 0.800000
vt 0.375000 0.100000
vt 0.375000 0.400000
vt 0.375000 0.700000
vt 0.406250 0.000000
vt 0.406250 1.000000
vt 0.312500 0.700000
vt 0.312500 0.600000
vt 0.343750 1.000000
vt 0.312500 0.900000
vt 0.312500 0.300000
vt 0.312500 0.200000
vt 0.312500 0.500000
vt 0.312500 0.800000
vt 0.312500 0.100000
vt 0.312500 0.400000
vt 0.343750 0.000000
vt 0.250000 0.400000
vt 0.250000 0.300000
vt 0.250000 0.700000
vt 0.250000 0.600000
vt 0.281250 1.000000
vt 0.250000 0.900000
vt 0.250000 0.200000
vt 0.250000 0.500000
vt 0.250000 0.800000
vt 0.250000 0.100000
vt 0.281250 0.000000
vt 0.187500 0.800000
vt 0.187500 0.700000
vt 0.218750 0.000000
vt 0.187500 0.100000
vt 0.187500 0.400000
vt 0.187500 0.300000
vt 0.187500 0.600000
vt 0.218750 1.000000
vt 0.187500 0.900000
vt 0.187500 0.200000
vt 0.187500 0.500000
vt 0.125000 0.200000
vt 0.125000 0.100000
vt 0.125000 0.500000
vt 0.125000 0.400000
vt 0.125000 0.800000
vt 0.125000 0.700000
vt 0.156250 0.000000
vt 0.125000 0.300000
vt 0.125000 0.600000
vt 0.156250 1.000000
vt 0.125000 0.900000
vt 0.062500 0.600000
vt 0.062500 0.500000
vt 0.062500 0.900000
vt 0.062500 0.800000
vt 0.062500 0.200000
vt 0.062500 0.100000
vt 0.062500 0.400000
vt 0.062500 0.700000
vt 0.093750 0.000000
vt 0.062500 0.300000
vt 0.093750 1.000000
vt 0.031250 1.000000
vt 0.000000 0.900000
vt 0.000000 0.300000
vt 0.000000 0.200000
vt 0.000000 0.600000
vt 0.000000 0.500000
vt 0.000000 0.800000
vt 0.000000 0.100000
vt 0.000000 0.400000
vt 0.000000 0.700000
vt 0.031250 0.000000
vt 1.000000 0.600000
vt 1.000000 0.700000
vt 0.937500 0.700000
vt 0.937500 0.600000
vt 1.000000 0.900000
vt 0.968750 1.000000
vt 0.937500 0.900000
vt 1.000000 0.200000
vt 1.000000 0.300000
vt 0.937500 0.300000
vt 0.937500 0.200000
vt 1.000000 0.500000
vt 0.937500 0.500000
vt 1.000000 0.800000
vt 0.937500 0.800000
vt 1.000000 0.100000
vt 0.937500 0.100000
vt 1.000000 0.400000
vt 0.937500 0.400000
vt 0.968750 0.000000
vt 0.906250 0.000000
vt 0.875000 0.100000
vt 0.875000 0.400000
vt 0.875000 0.300000
vt 0.875000 0.700000
vt 0.875000 0.600000
vt 0.906250 1.000000
vt 0.875000 0.900000
vt 0.875000 0.200000
vt 0.875000 0.500000
vt 0.875000 0.800000
vt 0.812500 0.500000
vt 0.812500 0.400000
vt 0.812500 0.800000
vt 0.812500 0.700000
vt 0.843750 0.000000
vt 0.812500 0.100000
vt 0.812500 0.300000
vt 0.812500 0.600000
vt 0.843750 1.000000
vt 0.812500 0.900000
vt 0.812500 0.200000
vt 0.781250 0.000000
vt 0.781250 1.000000
s 0
f 199/280/191 198/281/191 207/282/191 208/283/191
f 339/284/192 196/285/192 204/286/192 205/287/192
f 337/288/193 195/289/193 202/290/193
f 340/291/194 199/280/194 208/283/194 209/292/194
f 197/293/195 339/284/195 205/287/195 206/294/195
f 338/295/196 337/288/196 202/290/196 203/296/196
f 200/297/197 340/291/197 209/292/197 210/298/197
f 198/281/198 197/293/198 206/294/198 207/282/198
f 196/285/199 338/295/199 203/296/199 204/286/199
f 201/299/200 200/297/200 210/298/200
f 208/283/201 207/282/201 216/300/201 217/301/201
f 205/287/202 204/286/202 213/302/202 214/303/202
f 202/290/203 195/304/203 211/305/203
f 209/292/204 208/283/204 217/301/204 218/306/204
f 206/294/205 205/287/205 214/303/205 215/307/205
f 203/296/206 202/290/206 211/305/206 212/308/206
f 210/298/207 209/292/207 218/306/207 219/309/207
f 207/282/208 206/294/208 215/307/208 216/300/208
f 204/286/209 203/296/209 212/308/209 213/302/209
f 201/310/210 210/298/210 219/309/210
f 213/302/211 212/308/211 221/311/211 222/312/211
f 201/313/212 219/309/212 228/314/212
f 217/301/213 216/300/213 225/315/213 226/316/213
f 214/303/214 213/302/214 222/312/214 223/317/214
f 211/305/215 195/318/215 220/319/215
f 218/306/216 217/301/216 226/316/216 227/320/216
f 215/307/217 214/303/217 223/317/217 224/321/217
f 212/308/218 211/305/218 220/319/218 221/311/218
f 219/309/219 218/306/219 227/320/219 228/314/219
f 216/300/220 215/307/220 224/321/220 225/315/220
f 225/315/221 224/321/221 233/322/221 234/323/221
f 222/312/222 221/311/222 230/324/222 231/325/222
f 201/326/223 228/314/223 237/327/223
f 226/316/224 225/315/224 234/323/224 235/328/224
f 223/317/225 222/312/225 231/325/225 232/329/225
f 220/319/226 195/330/226 229/331/226
f 227/320/227 226/316/227 235/328/227 236/332/227
f 224/321/228 223/317/228 232/329/228 233/322/228
f 221/311/229 220/319/229 229/331/229 230/324/229
f 228/314/230 227/320/230 236/332/230 237/327/230
f 230/324/231 229/331/231 238/333/231 239/334/231
f 237/327/232 236/332/232 245/335/232 246/336/232
f 234/323/233 233/322/233 242/337/233 243/338/233
f 231/325/234 230/324/234 239/334/234 240/339/234
f 201/340/235 237/327/235 246/336/235
f 235/328/236 234/323/236 243/338/236 244/341/236
f 232/329/237 231/325/237 240/339/237 241/342/237
f 229/331/238 195/343/238 238/333/238
f 236/332/239 235/328/239 244/341/239 245/335/239
f 233/322/240 232/329/240 241/342/240 242/337/240
f 245/335/241 244/341/241 253/344/241 254/345/241
f 242/337/242 241/342/242 250/346/242 251/347/242
f 239/334/243 238/333/243 247/348/243 248/349/243
f 246/336/244 245/335/244 254/345/244 255/350/244
f 243/338/245 242/337/245 251/347/245 252/351/245
f 240/339/246 239/334/246 248/349/246 249/352/246
f 201/353/247 246/336/247 255/350/247
f 244/341/248 243/338/248 252/351/248 253/344/248
f 241/342/249 240/339/249 249/352/249 250/346/249
f 238/333/250 195/354/250 247/348/250
f 250/346/251 249/352/251 258/355/251 259/356/251
f 247/348/252 195/357/252 256/358/252
f 254/345/253 253/344/253 262/359/253 263/360/253
f 251/347/254 250/346/254 259/356/254 260/361/254
f 248/349/255 247/348/255 256/358/255 257/362/255
f 255/350/256 254/345/256 263/360/256 264/363/256
f 252/351/257 251/347/257 260/361/257 261/364/257
f 249/352/258 248/349/258 257/362/258 258/355/258
f 201/365/259 255/350/259 264/363/259
f 253/344/260 252/351/260 261/364/260 262/359/260
f 262/359/261 261/364/261 270/366/261 271/367/261
f 259/356/262 258/355/262 267/368/262 268/369/262
f 256/358/263 195/370/263 265/371/263
f 263/360/264 262/359/264 271/367/264 272/372/264
f 260/361/265 259/356/265 268/369/265 269/373/265
f 257/362/266 256/358/266 265/371/266 266/374/266
f 264/363/267 263/360/267 272/372/267 273/375/267
f 261/364/268 260/361/268 269/373/268 270/366/268
f 258/355/269 257/362/269 266/374/269 267/368/269
f 201/376/270 264/363/270 273/375/270
f 267/368/271 266/374/271 275/377/271 276/378/271
f 201/379/272 273/375/272 282/380/272
f 271/367/273 270/366/273 279/381/273 280/382/273
f 268/369/274 267/368/274 276/378/274 277/383/274
f 265/371/275 195/384/275 274/385/275
f 272/372/276 271/367/276 280/382/276 281/386/276
f 269/373/277 268/369/277 277/383/277 278/387/277
f 266/374/278 265/371/278 274/385/278 275/377/278
f 273/375/279 272/372/279 281/386/279 282/380/279
f 270/366/280 269/373/280 278/387/280 279/381/280
f 282/380/281 281/386/281 290/388/281 291/389/281
f 279/381/282 278/387/282 287/390/282 288/391/282
f 276/378/283 275/377/283 284/392/283 285/393/283
f 201/394/284 282/380/284 291/389/284
f 280/382/285 279/381/285 288/391/285 289/395/285
f 277/383/286 276/378/286 285/393/286 286/396/286
f 274/385/287 195/397/287 283/398/287
f 281/386/288 280/382/288 289/395/288 290/388/288
f 278/387/289 277/383/289 286/396/289 287/390/289
f 275/377/290 274/385/290 283/398/290 284/392/290
f 287/390/291 286/396/291 295/399/291 296/400/291
f 284/392/292 283/398/292 292/401/292 293/402/292
f 291/389/293 290/388/293 299/403/293 300/404/293
f 288/391/294 287/390/294 296/400/294 297/405/294
f 285/393/295 284/392/295 293/402/295 294/406/295
f 201/407/296 291/389/296 300/404/296
f 289/395/297 288/391/297 297/405/297 298/408/297
f 286/396/298 285/393/298 294/406/298 295/399/298
f 283/398/299 195/409/299 292/401/299
f 290/388/300 289/395/300 298/408/300 299/403/300
f 292/401/301 195/410/301 301/411/301
f 299/403/302 298/408/302 307/412/302 308/413/302
f 296/400/303 295/399/303 304/414/303 305/415/303
f 293/402/304 292/401/304 301/411/304 302/416/304
f 300/404/305 299/403/305 308/413/305 309/417/305
f 297/405/306 296/400/306 305/415/306 306/418/306
f 294/406/307 293/402/307 302/416/307 303/419/307
f 201/420/308 300/404/308 309/417/308
f 298/408/309 297/405/309 306/418/309 307/412/309
f 295/399/310 294/406/310 303/419/310 304/414/310
f 304/421/311 303/422/311 312/423/311 313/424/311
f 301/425/312 195/426/312 310/427/312
f 308/428/313 307/429/313 316/430/313 317/431/313
f 305/432/314 304/421/314 313/424/314 314/433/314
f 302/434/315 301/425/315 310/427/315 311/435/315
f 309/436/316 308/428/316 317/431/316 318/437/316
f 306/438/317 305/432/317 314/433/317 315/439/317
f 303/422/318 302/434/318 311/435/318 312/423/318
f 201/440/319 309/436/319 318/437/319
f 307/429/320 306/438/320 315/439/320 316/430/320
f 201/441/321 318/437/321 327/442/321
f 316/430/322 315/439/322 324/443/322 325/444/322
f 313/424/323 312/423/323 321/445/323 322/446/323
f 310/427/324 195/447/324 319/448/324
f 317/431/325 316/430/325 325/444/325 326/449/325
f 314/433/326 313/424/326 322/446/326 323/450/326
f 311/435/327 310/427/327 319/448/327 320/451/327
f 318/437/328 317/431/328 326/449/328 327/442/328
f 315/439/329 314/433/329 323/450/329 324/443/329
f 312/423/330 311/435/330 320/451/330 321/445/330
f 324/443/331 323/450/331 332/452/331 333/453/331
f 321/445/332 320/451/332 329/454/332 330/455/332
f 201/456/333 327/442/333 336/457/333
f 325/444/334 324/443/334 333/453/334 334/458/334
f 322/446/335 321/445/335 330/455/335 331/459/335
f 319/448/336 195/460/336 328/461/336
f 326/449/337 325/444/337 334/458/337 335/462/337
f 323/450/338 322/446/338 331/459/338 332/452/338
f 320/451/339 319/448/339 328/461/339 329/454/339
f 327/442/340 326/449/340 335/462/340 336/457/340
f 329/454/341 328/461/341 337/288/341 338/295/341
f 336/457/342 335/462/342 340/291/342 200/297/342
f 333/453/343 332/452/343 197/293/343 198/281/343
f 330/455/344 329/454/344 338/295/344 196/285/344
f 201/463/345 336/457/345 200/297/345
f 334/458/346 333/453/346 198/281/346 199/280/346
f 331/459/347 330/455/347 196/285/347 339/284/347
f 328/461/348 195/464/348 337/288/348
f 335/462/349 334/458/349 199/280/349 340/291/349
f 332/452/350 331/459/350 339/284/350 197/293/350
o brow
v 3.985765 -60.868324 -4.569395
v 3.985765 -60.868324 -3.430605
v 3.985765 -62.120995 -4.569395
v 3.985765 -62.120995 -3.430605
v -3.985765 -60.868324 -4.569395
v -3.985765 -60.868324 -3.430605
v -3.985765 -62.120995 -4.569395
v -3.985765 -62.120995 -3.430605
vn 1.0000 -0.0000 -0.0000
vn -0.0000 -1.0000 -0.0000
vn -1.0000 -0.0000 -0.0000
vn -0.0000 1.0000 -0.0000
vn -0.0000 -0.0000 -1.0000
vn -0.0000 -0.0000 1.0000
vt 0.375000 0.000000
vt 0.625000 0.000000
vt 0.625000 0.250000
vt 0.375000 0.250000
vt 0.625000 0.500000
vt 0.375000 0.500000
vt 0.625000 0.750000
vt 0.375000 0.750000
vt 0.625000 1.000000
vt 0.375000 1.000000
vt 0.125000 0.500000
vt 0.125000 0.750000
vt 0.875000 0.500000
vt 0.875000 0.750000
s 0
f 341/465/351 342/466/351 344/467/351 343/468/351
f 343/468/352 344/467/352 348/469/352 347/470/352
f 347/470/353 348/469/353 346/471/353 345/472/353
f 345/472/354 346/471/354 342/473/354 341/474/354
f 343/475/355 347/470/355 345/472/355 341/476/355
f 348/469/356 344/477/356 342/478/356 346/471/356
o left_arm
v 4.653025 -44.412811 2.391457
v 10.346974 -26.192169 2.391461
v 3.511725 -44.056152 2.071062
v 9.205675 -25.835514 2.071066
v 2.676236 -43.795063 1.195728
v 8.370185 -25.574425 1.195731
v 2.370426 -43.699497 -0.000002
v 8.064375 -25.478859 0.000002
v 2.676236 -43.795063 -1.195731
v 8.370186 -25.574425 -1.195728
v 3.511726 -44.056152 -2.071066
v 9.205675 -25.835514 -2.071062
v 4.653026 -44.412811 -2.391461
v 10.346975 -26.192169 -2.391457
v 5.794325 -44.769466 -2.071066
v 11.488275 -26.548826 -2.071062
v 6.629815 -45.030556 -1.195731
v 12.323764 -26.809917 -1.195728
v 6.935625 -45.126122 -0.000002
v 12.629574 -26.905483 0.000002
v 6.629815 -45.030556 1.195728
v 12.323764 -26.809917 1.195731
v 5.794325 -44.769466 2.071062
v 11.488275 -26.548826 2.071066
vn -0.2470 0.0772 0.9659
vn -0.6749 0.2109 0.7071
vn -0.9220 0.2881 0.2588
vn -0.9220 0.2881 -0.2588
vn -0.6749 0.2109 -0.7071
vn -0.2470 0.0772 -0.9659
vn 0.2470 -0.0772 -0.9659
vn 0.6749 -0.2109 -0.7071
vn 0.9220 -0.2881 -0.2588
vn 0.9220 -0.2881 0.2588
vn 0.2983 0.9545 -0.0000
vn 0.6749 -0.2109 0.7071
vn 0.2470 -0.0772 0.9659
vn -0.2983 -0.9545 -0.0000
vt 1.000000 0.500000
vt 1.000000 1.000000
vt 0.916667 1.000000
vt 0.916667 0.500000
vt 0.833333 1.000000
vt 0.833333 0.500000
vt 0.750000 1.000000
vt 0.750000 0.500000
vt 0.666667 1.000000
vt 0.666667 0.500000
vt 0.583333 1.000000
vt 0.583333 0.500000
vt 0.500000 1.000000
vt 0.500000 0.500000
vt 0.416667 1.000000
vt 0.416667 0.500000
vt 0.333333 1.000000
vt 0.333333 0.500000
vt 0.250000 1.000000
vt 0.250000 0.500000
vt 0.166667 1.000000
vt 0.166667 0.500000
vt 0.370000 0.457846
vt 0.250000 0.490000
vt 0.130000 0.457846
vt 0.042154 0.370000
vt 0.010000 0.250000
vt 0.042154 0.130000
vt 0.130000 0.042154
vt 0.250000 0.010000
vt 0.370000 0.042154
vt 0.457846 0.130000
vt 0.490000 0.250000
vt 0.457846 0.370000
vt 0.083333 1.000000
vt 0.083333 0.500000
vt 0.000000 1.000000
vt 0.000000 0.500000
vt 0.750000 0.490000
vt 0.870000 0.457846
vt 0.957846 0.370000
vt 0.990000 0.250000
vt 0.957846 0.130000
vt 0.870000 0.042154
vt 0.750000 0.010000
vt 0.630000 0.042154
vt 0.542154 0.130000
vt 0.510000 0.250000
vt 0.542154 0.370000
vt 0.630000 0.457846
s 0
f 349/479/357 350/480/357 352/481/357 351/482/357
f 351/482/358 352/481/358 354/483/358 353/484/358
f 353/484/359 354/483/359 356/485/359 355/486/359
f 355/486/360 356/485/360 358/487/360 357/488/360
f 357/488/361 358/487/361 360/489/361 359/490/361
f 359/490/362 360/489/362 362/491/362 361/492/362
f 361/492/363 362/491/363 364/493/363 363/494/363
f 363/494/364 364/493/364 366/495/364 365/496/364
f 365/496/365 366/495/365 368/497/365 367/498/365
f 367/498/366 368/497/366 370/499/366 369/500/366
f 352/501/367 350/502/367 372/503/367 370/504/367 368/505/367 366/506/367 364/507/367 362/508/367 360/509/367 358/510/367 356/511/367 354/512/367
f 369/500/368 370/499/368 372/513/368 371/514/368
f 371/514/369 372/513/369 350/515/369 349/516/369
f 349/517/370 351/518/370 353/519/370 355/520/370 357/521/370 359/522/370 361/523/370 363/524/370 365/525/370 367/526/370 369/527/370 371/528/370
o right_arm
v -4.653025 -44.412811 2.391457
v -10.346974 -26.192169 2.391461
v -5.794325 -44.769466 2.071062
v -11.488275 -26.548826 2.071066
v -6.629815 -45.030556 1.195728
v -12.323764 -26.809917 1.195731
v -6.935625 -45.126122 -0.000002
v -12.629574 -26.905483 0.000002
v -6.629815 -45.030556 -1.195731
v -12.323764 -26.809917 -1.195728
v -5.794325 -44.769466 -2.071066
v -11.488275 -26.548826 -2.071062
v -4.653026 -44.412811 -2.391461
v -10.346975 -26.192169 -2.391457
v -3.511726 -44.056152 -2.071066
v -9.205675 -25.835514 -2.071062
v -2.676236 -43.795063 -1.195731
v -8.370186 -25.574425 -1.195728
v -2.370426 -43.699497 -0.000002
v -8.064375 -25.478859 0.000002
v -2.676236 -43.795063 1.195728
v -8.370185 -25.574425 1.195731
v -3.511725 -44.056152 2.071062
v -9.205675 -25.835514 2.071066
vn -0.2470 -0.0772 0.9659
vn -0.6749 -0.2109 0.7071
vn -0.9220 -0.2881 0.2588
vn -0.9220 -0.2881 -0.2588
vn -0.6749 -0.2109 -0.7071
vn -0.2470 -0.0772 -0.9659
vn 0.2470 0.0772 -0.9659
vn 0.6749 0.2109 -0.7071
vn 0.9220 0.2881 -0.2588
vn 0.9220 0.2881 0.2588
vn -0.2983 0.9545 -0.0000
vn 0.6749 0.2109 0.7071
vn 0.2470 0.0772 0.9659
vn 0.2983 -0.9545 -0.0000
vt 1.000000 0.500000
vt 1.000000 1.000000
vt 0.916667 1.000000
vt 0.916667 0.500000
vt 0.833333 1.000000
vt 0.833333 0.500000
vt 0.750000 1.000000
vt 0.750000 0.500000
vt 0.666667 1.000000
vt 0.666667 0.500000
vt 0.583333 1.000000
vt 0.583333 0.500000
vt 0.500000 1.000000
vt 0.500000 0.500000
vt 0.416667 1.000000
vt 0.416667 0.500000
vt 0.333333 1.000000
vt 0.333333 0.500000
vt 0.250000 1.000000
vt 0.250000 0.500000
vt 0.166667 1.000000
vt 0.166667 0.500000
vt 0.370000 0.457846
vt 0.250000 0.490000
vt 0.130000 0.457846
vt 0.042154 0.370000
vt 0.010000 0.250000
vt 0.042154 0.130000
vt 0.130000 0.042154
vt 0.250000 0.010000
vt 0.370000 0.042154
vt 0.457846 0.130000
vt 0.490000 0.250000
vt 0.457846 0.370000
vt 0.083333 1.000000
vt 0.083333 0.500000
vt 0.000000 1.000000
vt 0.000000 0.500000
vt 0.750000 0.490000
vt 0.870000 0.457846
vt 0.957846 0.370000
vt 0.990000 0.250000
vt 0.957846 0.130000
vt 0.870000 0.042154
vt 0.750000 0.010000
vt 0.630000 0.042154
vt 0.542154 0.130000
vt 0.510000 0.250000
vt 0.542154 0.370000
vt 0.630000 0.457846
s 0
f 373/529/371 374/530/371 376/531/371 375/532/371
f 375/532/372 376/531/372 378/533/372 377/534/372
f 377/534/373 378/533/373 380/535/373 379/536/373
f 379/536/374 380/535/374 382/537/374 381/538/374
f 381/538/375 382/537/375 384/539/375 383/540/375
f 383/540/376 384/539/376 386/541/376 385/542/376
f 385/542/377 386/541/377 388/543/377 387/544/377
f 387/544/378 388/543/378 390/545/378 389/546/378
f 389/546/379 390/545/379 392/547/379 391/548/379
f 391/548/380 392/547/380 394/549/380 393/550/380
f 376/551/381 374/552/381 396/553/381 394/554/381 392/555/381 390/556/381 388/557/381 386/558/381 384/559/381 382/560/381 380/561/381 378/562/381
f 393/550/382 394/549/382 396/563/382 395/564/382
f 395/564/383 396/563/383 374/565/383 373/566/383
f 373/567/384 375/568/384 377/569/384 379/570/384 381/571/384 383/572/384 385/573/384 387/574/384 389/575/384 391/576/384 393/577/384 395/578/384
o left_leg
v 3.465302 -22.775799 2.960855
v 4.034698 -11.387899 2.960853
v 1.986723 -22.701870 2.564176
v 2.556118 -11.313971 2.564174
v 0.904327 -22.647751 1.480428
v 1.473722 -11.259851 1.480426
v 0.508143 -22.627941 0.000001
v 1.077538 -11.240042 -0.000001
v 0.904327 -22.647751 -1.480426
v 1.473722 -11.259851 -1.480428
v 1.986723 -22.701872 -2.564174
v 2.556118 -11.313972 -2.564176
v 3.465302 -22.775801 -2.960853
v 4.034698 -11.387901 -2.960855
v 4.943882 -22.849730 -2.564174
v 5.513278 -11.461830 -2.564176
v 6.026278 -22.903849 -1.480426
v 6.595673 -11.515949 -1.480428
v 6.422462 -22.923658 0.000001
v 6.991858 -11.535759 -0.000001
v 6.026278 -22.903849 1.480428
v 6.595673 -11.515949 1.480426
v 4.943882 -22.849728 2.564176
v 5.513278 -11.461828 2.564174
vn -0.2585 0.0129 0.9659
vn -0.7062 0.0353 0.7071
vn -0.9647 0.0482 0.2588
vn -0.9647 0.0482 -0.2588
vn -0.7062 0.0353 -0.7071
vn -0.2585 0.0129 -0.9659
vn 0.2585 -0.0129 -0.9659
vn 0.7062 -0.0353 -0.7071
vn 0.9647 -0.0482 -0.2588
vn 0.9647 -0.0482 0.2588
vn 0.0499 0.9988 -0.0000
vn 0.7062 -0.0353 0.7071
vn 0.2585 -0.0129 0.9659
vn -0.0499 -0.9988 -0.0000
vt 1.000000 0.500000
vt 1.000000 1.000000
vt 0.916667 1.000000
vt 0.916667 0.500000
vt 0.833333 1.000000
vt 0.833333 0.500000
vt 0.750000 1.000000
vt 0.750000 0.500000
vt 0.666667 1.000000
vt 0.666667 0.500000
vt 0.583333 1.000000
vt 0.583333 0.500000
vt 0.500000 1.000000
vt 0.500000 0.500000
vt 0.416667 1.000000
vt 0.416667 0.500000
vt 0.333333 1.000000
vt 0.333333 0.500000
vt 0.250000 1.000000
vt 0.250000 0.500000
vt 0.166667 1.000000
vt 0.166667 0.500000
vt 0.370000 0.457846
vt 0.250000 0.490000
vt 0.130000 0.457846
vt 0.042154 0.370000
vt 0.010000 0.250000
vt 0.042154 0.130000
vt 0.130000 0.042154
vt 0.250000 0.010000
vt 0.370000 0.042154
vt 0.457846 0.130000
vt 0.490000 0.250000
vt 0.457846 0.370000
vt 0.083333 1.000000
vt 0.083333 0.500000
vt 0.000000 1.000000
vt 0.000000 0.500000
vt 0.750000 0.490000
vt 0.870000 0.457846
vt 0.957846 0.370000
vt 0.990000 0.250000
vt 0.957846 0.130000
vt 0.870000 0.042154
vt 0.750000 0.010000
vt 0.630000 0.042154
vt 0.542154 0.130000
vt 0.510000 0.250000
vt 0.542154 0.370000
vt 0.630000 0.457846
s 0
f 397/579/385 398/580/385 400/581/385 399/582/385
f 399/582/386 400/581/386 402/583/386 401/584/386
f 401/584/387 402/583/387 404/585/387 403/586/387
f 403/586/388 404/585/388 406/587/388 405/588/388
f 405/588/389 406/587/389 408/589/389 407/590/389
f 407/590/390 408/589/390 410/591/390 409/592/390
f 409/592/391 410/591/391 412/593/391 411/594/391
f 411/594/392 412/593/392 414/595/392 413/596/392
f 413/596/393 414/595/393 416/597/393 415/598/393
f 415/598/394 416/597/394 418/599/394 417/600/394
f 400/601/395 398/602/395 420/603/395 418/604/395 416/605/395 414/606/395 412/607/395 410/608/395 408/609/395 406/610/395 404/611/395 402/612/395
f 417/600/396 418/599/396 420/613/396 419/614/396
f 419/614/397 420/613/397 398/615/397 397/616/397
f 397/617/398 399/618/398 401/619/398 403/620/398 405/621/398 407/622/398 409/623/398 411/624/398 413/625/398 415/626/398 417/627/398 419/628/398
o right_leg
v -3.465302 -22.775799 2.960855
v -4.034698 -11.387899 2.960853
v -4.943882 -22.849728 2.564176
v -5.513278 -11.461828 2.564174
v -6.026278 -22.903849 1.480428
v -6.595673 -11.515949 1.480426
v -6.422462 -22.923658 0.000001
v -6.991858 -11.535759 -0.000001
v -6.026278 -22.903849 -1.480426
v -6.595673 -11.515949 -1.480428
v -4.943882 -22.849730 -2.564174
v -5.513278 -11.461830 -2.564176
v -3.465302 -22.775801 -2.960853
v -4.034698 -11.387901 -2.960855
v -1.986723 -22.701872 -2.564174
v -2.556118 -11.313972 -2.564176
v -0.904327 -22.647751 -1.480426
v -1.473722 -11.259851 -1.480428
v -0.508143 -22.627941 0.000001
v -1.077538 -11.240042 -0.000001
v -0.904327 -22.647751 1.480428
v -1.473722 -11.259851 1.480426
v -1.986723 -22.701870 2.564176
v -2.556118 -11.313971 2.564174
vn -0.2585 -0.0129 0.9659
vn -0.7062 -0.0353 0.7071
vn -0.9647 -0.0482 0.2588
vn -0.9647 -0.0482 -0.2588
vn -0.7062 -0.0353 -0.7071
vn -0.2585 -0.0129 -0.9659
vn 0.2585 0.0129 -0.9659
vn 0.7062 0.0353 -0.7071
vn 0.9647 0.0482 -0.2588
vn 0.9647 0.0482 0.2588
vn -0.0499 0.9988 -0.0000
vn 0.7062 0.0353 0.7071
vn 0.2585 0.0129 0.9659
vn 0.0499 -0.9988 -0.0000
vt 1.000000 0.500000
vt 1.000000 1.000000
vt 0.916667 1.000000
vt 0.916667 0.500000
vt 0.833333 1.000000
vt 0.833333 0.500000
vt 0.750000 1.000000
vt 0.750000 0.500000
vt 0.666667 1.000000
vt 0.666667 0.500000
vt 0.583333 1.000000
vt 0.583333 0.500000
vt 0.500000 1.000000
vt 0.500000 0.500000
vt 0.416667 1.000000
vt 0.416667 0.500000
vt 0.333333 1.000000
vt 0.333333 0.500000
vt 0.250000 1.000000
vt 0.250000 0.500000
vt 0.166667 1.000000
vt 0.166667 0.500000
vt 0.370000 0.457846
vt 0.250000 0.490000
vt 0.130000 0.457846
vt 0.042154 0.370000
vt 0.010000 0.250000
vt 0.042154 0.130000
vt 0.130000 0.042154
vt 0.250000 0.010000
vt 0.370000 0.042154
vt 0.457846 0.130000
vt 0.490000 0.250000
vt 0.457846 0.370000
vt 0.083333 1.000000
vt 0.083333 0.500000
vt 0.000000 1.000000
vt 0.000000 0.500000
vt 0.750000 0.490000
vt 0.870000 0.457846
vt 0.957846 0.370000
vt 0.990000 0.250000
vt 0.957846 0.130000
vt 0.870000 0.042154
vt 0.750000 0.010000
vt 0.630000 0.042154
vt 0.542154 0.130000
vt 0.510000 0.250000
vt 0.542154 0.370000
vt 0.630000 0.457846
s 0
f 421/629/399 422/630/399 424/631/399 423/632/399
f 423/632/400 424/631/400 426/633/400 425/634/400
f 425/634/401 426/633/401 428/635/401 427/636/401
f 427/636/402 428/635/402 430/637/402 429/638/402
f 429/638/403 430/637/403 432/639/403 431/640/403
f 431/640/404 432/639/404 434/641/404 433/642/404
f 433/642/405 434/641/405 436/643/405 435/644/405
f 435/644/406 436/643/406 438/645/406 437/646/406
f 437/646/407 438/645/407 440/647/407 439/648/407
f 439/648/408 440/647/408 442/649/408 441/650/408
f 424/651/409 422/652/409 444/653/409 442/654/409 440/655/409 438/656/409 436/657/409 434/658/409 432/659/409 430/660/409 428/661/409 426/662/409
f 441/650/410 442/649/410 444/663/410 443/664/410
f 443/664/411 444/663/411 422/665/411 421/666/411
f 421/667/412 423/668/412 425/669/412 427/670/412 429/671/412 431/672/412 433/673/412 435/674/412 437/675/412 439/676/412 441/677/412 443/678/412
